<?xml version="1.0" encoding="utf-8"?>
<!-- Generator: Adobe Illustrator 27.9.0, SVG Export Plug-In . SVG Version: 6.00 Build 0)  -->
<svg version="1.1" xmlns="http://www.w3.org/2000/svg" xmlns:xlink="http://www.w3.org/1999/xlink" x="0px" y="0px"
	 viewBox="0 0 360 360" style="enable-background:new 0 0 360 360;" xml:space="preserve">
<style type="text/css">
	.st0{fill:#FFFFFF;stroke:#FFFFFF;stroke-width:1.2412;stroke-linecap:round;stroke-linejoin:round;stroke-miterlimit:10;}
	.st1{fill:#FFFFFF;}
</style>
<g id="Layer_1">
</g>
<g id="Layer_2">
	<g>
		<path class="st0" d="M152.99,112.08l0.26-2.37c0.06-0.54-0.13-0.81-0.76-0.97c-4.66-1.19-7.6-4.42-7.13-8.72l0.19-1.72
			c0.05-0.48,0.41-0.81,0.89-0.81h4.09c0.48,0,0.77,0.32,0.72,0.81l-0.05,0.43c-0.34,3.12,1.67,5.01,4.95,5.01
			c3.12,0,5.69-1.88,6.03-5.01l0.05-0.43c0.35-3.23-2.96-4.52-6.69-7.33c-4.14-3.07-8.6-5.65-7.97-11.42l0.19-1.72
			c0.46-4.25,4.11-7.65,8.91-8.72c0.72-0.16,0.91-0.43,0.97-0.97l0.25-2.37c0.05-0.49,0.36-0.81,0.89-0.81h2.96
			c0.54,0,0.77,0.32,0.72,0.81l-0.25,2.37c-0.06,0.54,0.08,0.81,0.76,0.97c4.57,1.08,7.59,4.47,7.13,8.72l-0.19,1.72
			c-0.05,0.48-0.36,0.81-0.84,0.81h-4.14c-0.48,0-0.72-0.32-0.67-0.81l0.05-0.43c0.34-3.12-1.83-5.01-4.95-5.01
			c-3.18,0-5.7,1.89-6.03,5.01l-0.05,0.43c-0.35,3.23,2.35,4.2,6.53,7.32c3.78,2.85,8.7,5.66,8.08,11.42l-0.19,1.72
			c-0.46,4.31-4.16,7.65-8.96,8.72c-0.72,0.16-0.91,0.43-0.97,0.97l-0.26,2.37c-0.05,0.48-0.35,0.81-0.89,0.81h-2.91
			C153.18,112.89,152.94,112.57,152.99,112.08z"/>
	</g>
	<g>
		<path class="st1" d="M120.9,285.7c-2.27,0-3.11,1.07-3.11,2.16c0,3.58,9.97,1.91,9.97,8.74c0,3.33-2.35,5.41-6.86,5.41
			c-3.25,0-5.84-1.61-6.91-3.33c-0.14-0.22-0.22-0.49-0.22-0.76c0-0.82,0.66-1.47,1.45-1.47c0.6,0,0.93,0.33,1.2,0.6
			c1.15,1.15,2.59,2.08,4.48,2.08c2.49,0,3.69-0.82,3.69-2.51c0-3.99-9.97-2.16-9.97-8.74c0-2.7,1.94-5,6.28-5
			c2.73,0,5.11,1.01,6.2,2.57c0.16,0.25,0.27,0.55,0.27,0.87c0,0.79-0.66,1.45-1.48,1.45c-0.38,0-0.76-0.22-1.17-0.6
			C123.88,286.33,122.46,285.7,120.9,285.7z"/>
		<path class="st1" d="M144.42,300.26c0,0.87-0.71,1.58-1.58,1.58s-1.58-0.71-1.58-1.58v-6.58h-7.81v6.58
			c0,0.87-0.71,1.58-1.58,1.58s-1.58-0.71-1.58-1.58v-15.65c0-0.87,0.71-1.58,1.58-1.58s1.58,0.71,1.58,1.58v6.17h7.81v-6.17
			c0-0.87,0.71-1.58,1.58-1.58s1.58,0.71,1.58,1.58V300.26z"/>
		<path class="st1" d="M150.88,300.26c0,0.87-0.71,1.58-1.58,1.58s-1.58-0.71-1.58-1.58v-15.65c0-0.87,0.71-1.58,1.58-1.58
			s1.58,0.71,1.58,1.58V300.26z"/>
		<path class="st1" d="M157.32,294.47v5.79c0,0.87-0.71,1.58-1.58,1.58s-1.58-0.71-1.58-1.58v-15.43c0-0.87,0.71-1.58,1.58-1.58
			h5.22c3.2,0,5.74,1.78,5.74,5.6c0,3.77-2.49,5.63-5.74,5.63H157.32z M157.32,286.08v5.54h3.39c1.69,0,2.7-1.01,2.7-2.79
			c0-1.8-1.04-2.76-2.7-2.76H157.32z"/>
		<path class="st1" d="M172.4,294.47v5.79c0,0.87-0.71,1.58-1.58,1.58s-1.58-0.71-1.58-1.58v-15.43c0-0.87,0.71-1.58,1.58-1.58h5.22
			c3.2,0,5.74,1.78,5.74,5.6c0,3.77-2.48,5.63-5.74,5.63H172.4z M172.4,286.08v5.54h3.39c1.69,0,2.7-1.01,2.7-2.79
			c0-1.8-1.04-2.76-2.7-2.76H172.4z"/>
		<path class="st1" d="M187.49,300.26c0,0.87-0.71,1.58-1.58,1.58c-0.87,0-1.58-0.71-1.58-1.58v-15.65c0-0.87,0.71-1.58,1.58-1.58
			c0.88,0,1.58,0.71,1.58,1.58V300.26z"/>
		<path class="st1" d="M204.64,284.58v15.71c0,0.85-0.71,1.56-1.56,1.56c-0.52,0-1.01-0.27-1.29-0.68l-8.06-11.64v10.76
			c0,0.85-0.71,1.56-1.56,1.56s-1.56-0.71-1.56-1.56v-15.71c0-0.85,0.71-1.56,1.56-1.56c0.55,0,0.98,0.25,1.26,0.66l8.09,11.72
			v-10.82c0-0.85,0.71-1.56,1.56-1.56C203.93,283.02,204.64,283.73,204.64,284.58z"/>
		<path class="st1" d="M220.13,294.55h-3.71c-0.76,0-1.39-0.63-1.39-1.39s0.63-1.39,1.39-1.39h5.3c0.77,0,1.5,0.66,1.5,1.45v4.37
			c0,0.63-0.13,1.04-0.46,1.45c-1.31,1.75-4.21,2.98-7.13,2.98c-5.44,0-8.55-2.87-8.55-9.56c0-6.47,3.11-9.59,8.55-9.59
			c3.3,0,5.46,1.31,6.58,2.95c0.22,0.33,0.3,0.6,0.3,0.9c0,0.79-0.66,1.45-1.47,1.45c-0.38,0-0.77-0.16-1.12-0.55
			c-1.12-1.23-2.29-1.91-4.29-1.91c-3.63,0-5.27,2.24-5.27,6.75c0,4.78,1.64,6.72,5.27,6.72c2.02,0,3.44-0.46,4.51-1.56V294.55z"/>
		<path class="st1" d="M112.88,327.37v5.68c0,0.87-0.71,1.58-1.58,1.58s-1.58-0.71-1.58-1.58v-15.43c0-0.87,0.71-1.58,1.58-1.58
			h5.22c3.69,0,5.76,2.62,5.76,5.71c0,2.59-1.58,5.11-4.21,5.43l4.04,4.92c0.25,0.33,0.33,0.66,0.33,0.96
			c0,0.87-0.71,1.58-1.58,1.58c-0.46,0-0.96-0.22-1.23-0.57l-4.97-6.69H112.88z M112.88,318.87v5.71h3.69
			c1.69,0,2.43-1.39,2.43-2.84c0-1.48-0.74-2.87-2.51-2.87H112.88z"/>
		<path class="st1" d="M128.18,323.76h5.16c0.76,0,1.39,0.63,1.39,1.39c0,0.76-0.63,1.39-1.39,1.39h-5.16v5.03h7.24
			c0.79,0,1.42,0.63,1.42,1.42s-0.63,1.42-1.42,1.42h-8.82c-0.87,0-1.58-0.71-1.58-1.58v-15.21c0-0.87,0.71-1.58,1.58-1.58h8.52
			c0.79,0,1.42,0.63,1.42,1.42c0,0.79-0.63,1.42-1.42,1.42h-6.94V323.76z"/>
		<path class="st1" d="M138.59,325.24c0-6.47,3.11-9.59,8.55-9.59c3.3,0,5.46,1.31,6.58,2.95c0.22,0.33,0.3,0.6,0.3,0.9
			c0,0.79-0.66,1.45-1.47,1.45c-0.38,0-0.76-0.16-1.12-0.55c-1.12-1.23-2.29-1.91-4.29-1.91c-3.63,0-5.27,2.24-5.27,6.75
			c0,4.78,1.64,6.72,5.27,6.72c2.02,0,3.11-0.46,4.42-1.8c0.44-0.44,0.79-0.6,1.17-0.6c0.82,0,1.47,0.66,1.47,1.47
			c0,0.33-0.11,0.6-0.27,0.82c-1.31,1.75-3.88,2.95-6.8,2.95C141.71,334.8,138.59,331.93,138.59,325.24z"/>
		<path class="st1" d="M156.08,325.24c0-6.47,3.14-9.59,8.66-9.59s8.66,3.11,8.66,9.59c0,6.39-3.14,9.56-8.66,9.56
			S156.08,331.63,156.08,325.24z M159.36,325.24c0,4.51,1.78,6.72,5.38,6.72s5.38-2.21,5.38-6.72c0-4.53-1.78-6.75-5.38-6.75
			S159.36,320.7,159.36,325.24z"/>
		<path class="st1" d="M181.16,333.62l-6.2-15.62c-0.08-0.19-0.11-0.36-0.11-0.6c0-0.87,0.71-1.58,1.58-1.58
			c0.79,0,1.28,0.49,1.45,0.93l4.75,12.59l4.75-12.59c0.16-0.41,0.66-0.93,1.45-0.93c0.88,0,1.59,0.71,1.59,1.58
			c0,0.25-0.03,0.41-0.11,0.6l-6.2,15.62c-0.22,0.55-0.65,1.01-1.47,1.01S181.38,334.17,181.16,333.62z"/>
		<path class="st1" d="M195.75,323.76h5.16c0.76,0,1.39,0.63,1.39,1.39c0,0.76-0.63,1.39-1.39,1.39h-5.16v5.03h7.24
			c0.79,0,1.42,0.63,1.42,1.42s-0.63,1.42-1.42,1.42h-8.82c-0.87,0-1.58-0.71-1.58-1.58v-15.21c0-0.87,0.71-1.58,1.58-1.58h8.52
			c0.79,0,1.42,0.63,1.42,1.42c0,0.79-0.63,1.42-1.42,1.42h-6.94V323.76z"/>
		<path class="st1" d="M210.04,327.37v5.68c0,0.87-0.71,1.58-1.58,1.58c-0.88,0-1.58-0.71-1.58-1.58v-15.43
			c0-0.87,0.71-1.58,1.58-1.58h5.22c3.69,0,5.76,2.62,5.76,5.71c0,2.59-1.58,5.11-4.21,5.43l4.04,4.92
			c0.25,0.33,0.33,0.66,0.33,0.96c0,0.87-0.71,1.58-1.59,1.58c-0.46,0-0.96-0.22-1.23-0.57l-4.97-6.69H210.04z M210.04,318.87v5.71
			h3.69c1.69,0,2.43-1.39,2.43-2.84c0-1.48-0.74-2.87-2.51-2.87H210.04z"/>
		<path class="st1" d="M228.1,323.02l4.12-6.47c0.27-0.44,0.77-0.74,1.34-0.74c0.87,0,1.58,0.71,1.58,1.58
			c0,0.3-0.08,0.63-0.25,0.85l-5.22,7.78v7.02c0,0.87-0.71,1.58-1.58,1.58c-0.88,0-1.58-0.71-1.58-1.58v-7.02l-5.22-7.78
			c-0.16-0.22-0.25-0.55-0.25-0.85c0-0.87,0.71-1.58,1.58-1.58c0.57,0,1.04,0.27,1.34,0.74L228.1,323.02z"/>
	</g>
	<path class="st1" d="M193.2,63.7c-0.05-1.29-0.75-2.62-1.97-3.74c-12.95-11.83-28.17-15.49-45.25-10.88
		c-5.31,1.43-10.33,4.06-15.78,8.25l-2.12,1.63l-0.19-3.61c-0.03-0.55-0.06-0.98-0.07-1.41c-0.04-1.48-0.5-2.72-1.35-3.58
		c-0.78-0.8-1.85-1.22-3.1-1.22c-0.05,0-0.1,0-0.15,0c-1.17,0.03-2.19,0.48-2.96,1.3c-0.87,0.92-1.31,2.23-1.26,3.67
		c0.16,4.53,0.35,9.41,0.61,15.37c0.11,2.59,1.56,4.16,3.97,4.32c5.23,0.35,10.68,0.55,16.67,0.61c0.01,0,0.03,0,0.04,0
		c2.03,0,3.78-1.68,3.99-3.84c0.23-2.35-1.04-4.17-3.3-4.75c-0.48-0.12-0.99-0.2-1.63-0.3c-0.34-0.05-0.71-0.11-1.12-0.18
		l-3.53-0.61l3-1.96c0.34-0.22,0.64-0.42,0.92-0.61c0.57-0.38,1.04-0.7,1.54-0.99c14.65-8.58,32.32-6.56,45.01,5.15
		c2.38,2.19,5,2.34,6.84,0.39C192.82,65.84,193.24,64.8,193.2,63.7z"/>
	<path class="st1" d="M195.66,124.78c-0.13-4.6-0.33-9.67-0.64-15.94c-0.1-2.14-1.72-3.9-3.69-4c-5.72-0.3-11.47-0.47-17.07-0.49
		c-0.01,0-0.01,0-0.02,0c-2.17,0-3.85,1.81-3.9,4.21c-0.05,2.31,1.58,4.16,3.88,4.39c0.38,0.04,0.75,0.07,1.27,0.11l5,0.43
		l-3.3,2.23c-0.39,0.26-0.72,0.49-1.01,0.69c-0.57,0.4-1.01,0.69-1.46,0.96c-14.58,8.84-32.75,6.83-45.22-5.01
		c-1.24-1.17-2.58-1.77-3.84-1.77c-1.09,0-2.12,0.44-2.97,1.33c-1.86,1.94-1.58,4.55,0.73,6.8c15.78,15.4,41.21,17.13,59.16,4.01
		l4.03-2.92l0.18,3.59c0.03,0.55,0.05,1.01,0.07,1.46c0.04,1.43,0.58,2.7,1.52,3.59c0.82,0.77,1.89,1.17,3.02,1.13
		C193.85,129.51,195.73,127.4,195.66,124.78z"/>
	<path class="st1" d="M221.51,176.95c2.54,11.13,11.38,18.1,23.06,18.18c11.93,0.04,23.83-7.36,30.39-18.96
		c0.88-1.56,2.29-3.33,5.38-3.22c2.74,0.1,5.58,0.06,8.34,0.02l0.11,0c4.05-0.06,6.44-2.14,7.12-6.18c0.85-5.05,1.7-10.1,2.55-15.15
		c1.96-11.69,3.99-23.78,6.04-35.67c0,0,0,0,0,0c0.36-2.1,0.04-3.6-1.09-5.01c-11.31-14.08-23.04-28.75-34.88-43.59
		c-1.06-1.33-2.33-1.89-4.26-1.87c-5.77,0.04-11.62,0.03-17.27,0.03l-9.62-0.01c-0.83,0-1.62-0.36-2.15-1
		c-0.54-0.63-0.76-1.47-0.63-2.29l1.97-11.67c1.17-6.91,2.33-13.82,3.47-20.73c0.16-0.95,0.19-2.29-0.52-3.25
		c-0.68-0.9-1.86-1.22-2.73-1.32c-0.48-0.06-1.05-0.06-1.66-0.06h-0.26c-45.84,0-91.68,0-137.53,0l-0.4,0
		c-0.32,0-0.64-0.01-0.96,0.01c-3.51,0.2-5.98,2.38-6.59,5.84c-0.7,3.96-1.37,7.92-2.03,11.88c-0.01,0.08-0.02,0.16-0.03,0.23
		l-12.66,75.25c-2.73,16.24-5.47,32.49-8.2,48.73c-0.24,1.45-0.35,3.4,0.54,4.46c0.84,1.01,2.64,1.24,4.01,1.26
		c1.73,0.02,3.47,0.02,5.21,0.01c0.76,0,1.52,0,2.29,0c1.88,0,3.79,0.01,5.68,0.08c2.09,0.07,4.2,1.71,4.7,3.64
		c3.05,11.78,11.57,18.53,23.38,18.53c0.01,0,0.02,0,0.03,0c12.03-0.01,23.42-7.15,30.48-19.1c0.84-1.43,2.98-2.98,4.96-2.98
		c14.39-0.05,29-0.06,43.14-0.07c8.55-0.01,17.1-0.01,25.65-0.03c0,0,0.01,0,0.01,0C219.24,172.95,220.91,174.3,221.51,176.95z
		 M268.8,166.97c-1.73,10.35-11.22,18.43-21.62,18.43c-0.03,0-0.06,0-0.09,0h0c-5.09-0.02-9.56-2.02-12.57-5.61
		c-3.08-3.68-4.28-8.59-3.37-13.82c1.81-10.42,11.07-18.27,21.53-18.27c0,0,0,0,0,0c5.14,0,9.64,1.98,12.68,5.57
		C268.44,156.91,269.66,161.78,268.8,166.97z M234.92,75.2l8.01-0.01c4.72-0.01,9.59-0.02,14.38,0.05c0.8,0.01,3.55,0.2,5.1,2.11
		c6.2,7.62,12.43,15.43,18.45,22.98l3.68,4.61c0.33,0.42,0.49,0.81,0.62,1.12c0.04,0.1,0.09,0.23,0.17,0.38
		c0.4,0.87,0.33,1.89-0.19,2.7s-1.41,1.3-2.37,1.3h-52.83c-0.83,0-1.62-0.36-2.15-1c-0.54-0.63-0.76-1.47-0.63-2.29l4.98-29.6
		C232.37,76.19,233.54,75.2,234.92,75.2z M136.4,166.97c-1.71,10.31-11.13,18.4-21.42,18.43c-0.02,0-0.03,0-0.05,0
		c-5.18,0-9.71-1.98-12.75-5.58c-3.1-3.67-4.31-8.59-3.41-13.85c1.75-10.25,11.2-18.28,21.52-18.28c0.01,0,0.02,0,0.03,0
		c5.14,0.01,9.64,1.98,12.67,5.55C136.05,156.88,137.26,161.75,136.4,166.97z M208.36,160.65c-0.23,1.36-1.4,2.35-2.78,2.35h-56.16
		c-1.48,0-2.71-1.15-2.81-2.63c-0.51-7.8-3.67-13.85-9.37-17.99c-4.37-3.17-9.56-4.65-15.36-4.4c-13.67,0.59-26.04,9.78-31.49,23.4
		c-0.43,1.07-1.46,1.77-2.62,1.77h-7.52c-0.83,0-1.62-0.36-2.15-1c-0.54-0.63-0.76-1.47-0.63-2.29L97.05,43.56
		c0.02-0.14,0.06-0.28,0.1-0.41l0.97-5.75c0.23-1.36,1.4-2.35,2.78-2.35h125.28c0.83,0,1.62,0.36,2.15,1
		c0.54,0.63,0.76,1.47,0.63,2.29L208.36,160.65z M218.92,156.06l5.63-33.45c0.23-1.36,1.4-2.35,2.78-2.35h63.5
		c0.83,0,1.62,0.36,2.15,1c0.54,0.63,0.76,1.47,0.63,2.29l-6.26,37.21c-0.23,1.36-1.4,2.35-2.78,2.35h-2.61
		c-1.43,0-2.63-1.07-2.8-2.48c-1.77-14.76-9.42-22.13-23.36-22.53c-12.94-0.37-23.57,6.32-31.67,19.88c-0.7,1.16-2.12,1.67-3.39,1.2
		C219.45,158.71,218.69,157.4,218.92,156.06z"/>
</g>
</svg>
