<?xml version="1.0" encoding="utf-8"?>
<!-- Generator: Adobe Illustrator 27.9.0, SVG Export Plug-In . SVG Version: 6.00 Build 0)  -->
<svg version="1.1" xmlns="http://www.w3.org/2000/svg" xmlns:xlink="http://www.w3.org/1999/xlink" x="0px" y="0px"
	 viewBox="0 0 360 360" style="enable-background:new 0 0 360 360;" xml:space="preserve">
<style type="text/css">
	.st0{fill:#FFFFFF;}
</style>
<g id="Layer_1">
</g>
<g id="Layer_2">
	<g>
		<path class="st0" d="M133.41,307.15h5.16c0.76,0,1.39,0.63,1.39,1.39c0,0.77-0.63,1.39-1.39,1.39h-5.16v5.03h7.24
			c0.79,0,1.42,0.63,1.42,1.42c0,0.79-0.63,1.42-1.42,1.42h-8.82c-0.87,0-1.58-0.71-1.58-1.58v-15.21c0-0.88,0.71-1.58,1.58-1.58
			h8.52c0.79,0,1.42,0.63,1.42,1.42c0,0.79-0.63,1.42-1.42,1.42h-6.94V307.15z"/>
		<path class="st0" d="M143.82,308.63c0-6.47,3.11-9.59,8.55-9.59c3.3,0,5.46,1.31,6.58,2.95c0.22,0.33,0.3,0.6,0.3,0.9
			c0,0.79-0.66,1.45-1.47,1.45c-0.38,0-0.76-0.16-1.12-0.55c-1.12-1.23-2.29-1.91-4.29-1.91c-3.63,0-5.27,2.24-5.27,6.75
			c0,4.78,1.64,6.72,5.27,6.72c2.02,0,3.11-0.46,4.42-1.8c0.44-0.44,0.79-0.6,1.17-0.6c0.82,0,1.47,0.65,1.47,1.47
			c0,0.33-0.11,0.6-0.27,0.82c-1.31,1.75-3.88,2.95-6.8,2.95C146.93,318.19,143.82,315.32,143.82,308.63z"/>
		<path class="st0" d="M161.31,308.63c0-6.47,3.14-9.59,8.66-9.59s8.66,3.11,8.66,9.59c0,6.39-3.14,9.56-8.66,9.56
			S161.31,315.02,161.31,308.63z M164.58,308.63c0,4.51,1.78,6.72,5.38,6.72s5.38-2.21,5.38-6.72c0-4.53-1.78-6.75-5.38-6.75
			S164.58,304.09,164.58,308.63z"/>
		<path class="st0" d="M100.51,334.67c-2.27,0-3.11,1.07-3.11,2.16c0,3.58,9.97,1.91,9.97,8.74c0,3.33-2.35,5.41-6.86,5.41
			c-3.25,0-5.84-1.61-6.91-3.33c-0.14-0.22-0.22-0.49-0.22-0.77c0-0.82,0.66-1.47,1.45-1.47c0.6,0,0.93,0.33,1.2,0.6
			c1.15,1.15,2.59,2.07,4.48,2.07c2.49,0,3.69-0.82,3.69-2.51c0-3.99-9.97-2.16-9.97-8.74c0-2.71,1.94-5,6.28-5
			c2.73,0,5.11,1.01,6.2,2.57c0.16,0.25,0.27,0.55,0.27,0.88c0,0.79-0.66,1.45-1.48,1.45c-0.38,0-0.76-0.22-1.17-0.6
			C103.49,335.3,102.07,334.67,100.51,334.67z"/>
		<path class="st0" d="M116.74,335v14.23c0,0.87-0.71,1.58-1.58,1.58s-1.58-0.71-1.58-1.58V335h-4.18c-0.76,0-1.39-0.63-1.39-1.39
			c0-0.77,0.63-1.39,1.39-1.39h11.53c0.76,0,1.39,0.63,1.39,1.39c0,0.76-0.63,1.39-1.39,1.39H116.74z"/>
		<path class="st0" d="M127.7,343.55v5.68c0,0.87-0.71,1.58-1.58,1.58s-1.58-0.71-1.58-1.58V333.8c0-0.88,0.71-1.58,1.58-1.58h5.22
			c3.69,0,5.76,2.62,5.76,5.71c0,2.6-1.58,5.11-4.21,5.44l4.04,4.92c0.25,0.33,0.33,0.66,0.33,0.96c0,0.87-0.71,1.58-1.58,1.58
			c-0.46,0-0.96-0.22-1.23-0.57l-4.97-6.69H127.7z M127.7,335.05v5.71h3.69c1.69,0,2.43-1.39,2.43-2.84c0-1.47-0.74-2.87-2.51-2.87
			H127.7z"/>
		<path class="st0" d="M143.41,345.81l-1.67,3.96c-0.25,0.57-0.76,1.04-1.47,1.04c-0.85,0-1.56-0.71-1.56-1.56
			c0-0.16,0.03-0.38,0.11-0.57l6.45-15.71c0.16-0.38,0.6-0.98,1.45-0.98s1.28,0.6,1.45,0.98l6.45,15.71
			c0.08,0.19,0.11,0.41,0.11,0.57c0,0.85-0.71,1.56-1.56,1.56c-0.71,0-1.23-0.46-1.47-1.04l-1.67-3.96H143.41z M146.72,337.18
			l-2.24,5.73h4.48L146.72,337.18z"/>
		<path class="st0" d="M161.82,335v14.23c0,0.87-0.71,1.58-1.58,1.58c-0.88,0-1.58-0.71-1.58-1.58V335h-4.18
			c-0.76,0-1.39-0.63-1.39-1.39c0-0.77,0.63-1.39,1.39-1.39H166c0.76,0,1.39,0.63,1.39,1.39c0,0.76-0.63,1.39-1.39,1.39H161.82z"/>
		<path class="st0" d="M172.78,339.94h5.16c0.76,0,1.39,0.63,1.39,1.39c0,0.77-0.63,1.39-1.39,1.39h-5.16v5.03h7.24
			c0.79,0,1.42,0.63,1.42,1.42c0,0.79-0.63,1.42-1.42,1.42h-8.82c-0.87,0-1.58-0.71-1.58-1.58V333.8c0-0.88,0.71-1.58,1.58-1.58
			h8.52c0.79,0,1.42,0.63,1.42,1.42c0,0.79-0.63,1.42-1.42,1.42h-6.94V339.94z"/>
		<path class="st0" d="M196.25,343.52h-3.71c-0.77,0-1.39-0.63-1.39-1.39c0-0.77,0.63-1.39,1.39-1.39h5.3c0.76,0,1.5,0.65,1.5,1.45
			v4.37c0,0.63-0.14,1.04-0.46,1.45c-1.31,1.75-4.21,2.98-7.13,2.98c-5.44,0-8.55-2.87-8.55-9.56c0-6.47,3.11-9.59,8.55-9.59
			c3.3,0,5.46,1.31,6.58,2.95c0.22,0.33,0.3,0.6,0.3,0.9c0,0.79-0.65,1.45-1.47,1.45c-0.38,0-0.76-0.16-1.12-0.55
			c-1.12-1.23-2.29-1.91-4.29-1.91c-3.63,0-5.27,2.24-5.27,6.75c0,4.78,1.64,6.72,5.27,6.72c2.02,0,3.44-0.46,4.51-1.56V343.52z"/>
		<path class="st0" d="M208,339.2l4.12-6.47c0.27-0.44,0.77-0.74,1.34-0.74c0.87,0,1.58,0.71,1.58,1.58c0,0.3-0.08,0.63-0.25,0.85
			l-5.22,7.79v7.02c0,0.87-0.71,1.58-1.58,1.58c-0.88,0-1.58-0.71-1.58-1.58v-7.02l-5.22-7.79c-0.16-0.22-0.25-0.54-0.25-0.85
			c0-0.88,0.71-1.58,1.58-1.58c0.57,0,1.04,0.27,1.34,0.74L208,339.2z"/>
	</g>
	<path class="st0" d="M237.96,51.06l-77.49,77.49c-1.25,1.25-1.25,3.27,0,4.52l0,0c1.25,1.25,3.27,1.25,4.52,0l77.49-77.49"/>
	<path class="st0" d="M187.81,131.04c-0.78-0.78-1.62-0.73-2.51,0.16l-25.37,25.37c-1.51,1.51-2.87,2.64-4.09,3.4
		c-1.22,0.76-2.41,1.16-3.56,1.2c-1.15,0.05-2.32-0.29-3.5-1c-1.18-0.71-2.46-1.77-3.86-3.16l-0.91-0.91l17.52-17.52
		c-1.64-0.25-3.15-1.01-4.35-2.2c-1.24-1.24-1.97-2.8-2.21-4.42l-17.55,17.55l-0.54-0.54c-1.39-1.39-2.45-2.68-3.16-3.86
		c-0.71-1.18-1.05-2.34-1-3.5c0.05-1.15,0.45-2.34,1.2-3.56c0.76-1.22,1.89-2.58,3.4-4.09l25.37-25.37
		c0.89-0.89,0.94-1.73,0.16-2.51l-5.09-5.09c-0.78-0.78-1.62-0.73-2.51,0.16l-25.55,25.55c-2.94,2.94-5.18,5.7-6.71,8.27
		c-1.53,2.57-2.39,5.07-2.56,7.49c-0.17,2.42,0.33,4.83,1.52,7.21c1.19,2.39,3.06,4.86,5.64,7.43l9.21,9.21
		c2.57,2.57,5.06,4.46,7.46,5.66c2.4,1.2,4.81,1.72,7.24,1.55c2.42-0.17,4.91-1.03,7.46-2.59c2.55-1.55,5.3-3.8,8.24-6.74
		l25.55-25.55c0.89-0.89,0.94-1.73,0.16-2.51L187.81,131.04z"/>
	<path class="st0" d="M208.11,96.57c20.8,25.11,19.46,62.5-4.05,86.01c-12.47,12.47-28.85,18.71-45.24,18.71
		c-16.38,0-32.76-6.24-45.24-18.71c-24.94-24.94-24.94-65.53,0-90.47c12.07-12.06,28.13-18.71,45.24-18.71
		c13.81,0,26.95,4.34,37.85,12.36l8.85-8.85c-13.7-10.6-30.19-15.92-46.7-15.92c-19.57,0-39.12,7.44-54.02,22.34
		c-14.41,14.4-22.34,33.59-22.34,54.02c0,20.43,7.93,39.61,22.34,54.02c14.41,14.41,33.59,22.34,54.02,22.34
		c20.43,0,39.61-7.93,54.02-22.34c14.41-14.4,22.34-33.59,22.34-54.02c0-18.4-6.46-35.78-18.26-49.58L208.11,96.57z"/>
	<path class="st0" d="M286.4,30.34c-0.15-0.45-0.55-0.78-1.02-0.84l-18.87-2.47l-2.47-18.87c-0.06-0.47-0.39-0.87-0.84-1.02
		c-0.45-0.15-0.95-0.03-1.29,0.3l-26.12,26.33c-0.26,0.26-0.39,0.62-0.36,0.98l1.24,15.82l-77.08,77.08c-1.73,1.73-1.73,4.56,0,6.29
		c0.84,0.84,1.96,1.3,3.15,1.3c1.19,0,2.31-0.46,3.15-1.3l77.08-77.08l15.82,1.24c0.36,0.03,0.72-0.1,0.98-0.36l26.33-26.12
		C286.44,31.3,286.55,30.8,286.4,30.34z"/>
</g>
</svg>
