<?xml version="1.0" encoding="utf-8"?>
<!-- Generator: Adobe Illustrator 27.9.0, SVG Export Plug-In . SVG Version: 6.00 Build 0)  -->
<svg version="1.1" id="Layer_1" xmlns="http://www.w3.org/2000/svg" xmlns:xlink="http://www.w3.org/1999/xlink" x="0px" y="0px"
	 viewBox="0 0 360 360" style="enable-background:new 0 0 360 360;" xml:space="preserve">
<style type="text/css">
	.st0{fill:#FFFFFF;}
</style>
<g>
	<path class="st0" d="M88.79,221.54c0-0.63,0-1.07,0-1.52c0-22.84,0-45.69,0-68.53c0-2.84,1-3.86,3.81-3.86c5.55,0,11.09,0,16.64,0
		c0.41,0,0.82,0,1.4,0c0-0.5,0-0.9,0-1.3c0-10.85,0-21.69,0-32.54c0-2.71,1.09-3.79,3.81-3.79c12.03,0,24.07,0,36.1,0
		c2.75,0,3.81,1.05,3.81,3.77c0,7.88,0,15.76,0,23.65c0,0.42,0,0.83,0,1.35c2.43,0,4.81,0,7.33,0c0-0.45,0-0.89,0-1.33
		c0-19.85,0.01-39.69-0.02-59.54c0-1.73,0.61-2.87,2.14-3.71c8.13-4.46,16.24-8.96,24.33-13.49c1.39-0.78,2.64-0.8,4.03-0.02
		c8.19,4.57,16.39,9.12,24.6,13.65c1.34,0.74,1.9,1.81,1.9,3.33c-0.02,8.27-0.01,16.53-0.01,24.8c0,0.45,0,0.9,0,1.51
		c0.49,0,0.89,0,1.29,0c6.59,0,13.18,0,19.78,0c2.55,0,3.72,1.16,3.72,3.7c0,14.89,0,29.79,0,44.68c0,0.41,0,0.82,0,1.36
		c0.89-0.23,1.65-0.43,2.42-0.64c7.66-2.14,15.31-4.28,22.96-6.42c2.59-0.72,4.34,0.6,4.34,3.3c0,23.37,0,46.74,0,70.1
		c0,0.45,0,0.89,0,1.49c1.79,0,3.49-0.02,5.19,0.01c1.73,0.03,3,1.29,3.03,2.96c0.03,1.69-1.18,3.01-2.87,3.11
		c-0.31,0.02-0.63,0.01-0.94,0.01c-64.38,0-128.77,0-193.15,0c-0.35,0-0.7,0.01-1.05-0.01c-1.63-0.11-2.85-1.43-2.83-3.05
		c0.02-1.63,1.24-2.96,2.87-3.01C85.17,221.5,86.91,221.54,88.79,221.54z M212.54,221.49c0-0.53,0-0.97,0-1.41
		c0-15.97,0-31.95,0-47.92c0-30.66,0-61.31,0.01-91.97c0-0.79-0.11-1.31-0.91-1.75c-6.91-3.78-13.8-7.61-20.68-11.45
		c-0.54-0.3-0.96-0.34-1.53-0.02c-6.91,3.86-13.83,7.7-20.76,11.51c-0.67,0.37-0.9,0.79-0.9,1.55c0.02,19.22,0.02,38.43,0.02,57.65
		c0,0.37,0.04,0.74,0.06,1.17c0.5,0,0.88,0,1.26,0c2.96,0,5.93-0.02,8.89,0.01c1.93,0.02,3.12,1.18,3.25,3.1
		c0.02,0.35,0.01,0.7,0.01,1.05c0,25.67,0,51.34,0,77c0,0.47,0,0.95,0,1.47C191.72,221.49,202.03,221.49,212.54,221.49z
		 M116.83,147.63c2.23,0,4.35,0.11,6.46-0.02c3.45-0.21,4.27,1.68,4.27,4.21c-0.06,22.77-0.03,45.54-0.03,68.32
		c0,0.44,0,0.87,0,1.35c6.98,0,13.8,0,20.65,0c0-35.14,0-70.23,0-105.28c-10.5,0-20.9,0-31.35,0
		C116.83,126.67,116.83,137.05,116.83,147.63z M237.26,110.18c-6.22,0-12.36,0-18.51,0c0,37.15,0,74.2,0,111.31
		c6.19,0,12.32,0,18.51,0C237.26,184.38,237.26,147.33,237.26,110.18z M175.05,221.47c0-25.5,0-50.94,0-76.42
		c-6.91,0-13.75,0-20.6,0c0,25.52,0,50.96,0,76.42C161.35,221.47,168.17,221.47,175.05,221.47z M94.98,153.76
		c0,22.64,0,45.18,0,67.71c8.83,0,17.57,0,26.36,0c0-22.6,0-45.13,0-67.71C112.52,153.76,103.78,153.76,94.98,153.76z
		 M267.01,221.47c0-22.66,0-45.26,0-67.94c-0.46,0.12-0.83,0.2-1.19,0.3c-7.12,1.99-14.23,3.99-21.35,5.94
		c-0.81,0.22-1.02,0.55-1.02,1.35c0.02,19.77,0.02,39.54,0.02,59.31c0,0.34,0.04,0.67,0.06,1.04
		C251.4,221.47,259.19,221.47,267.01,221.47z"/>
	<path class="st0" d="M201.55,145.85c0-0.63-0.05-1.26,0.01-1.88c0.13-1.6,1.42-2.78,2.99-2.8c1.61-0.02,2.98,1.18,3.08,2.82
		c0.08,1.25,0.08,2.51,0,3.76c-0.1,1.62-1.52,2.86-3.09,2.82c-1.56-0.04-2.84-1.24-2.97-2.83
		C201.5,147.11,201.55,146.48,201.55,145.85z"/>
	<path class="st0" d="M207.64,104.23c0,0.56,0.03,1.12,0,1.67c-0.09,1.71-1.39,2.98-3.03,2.99c-1.64,0.01-2.98-1.26-3.05-2.96
		c-0.05-1.18-0.05-2.37,0.01-3.56c0.08-1.64,1.42-2.88,3.02-2.88c1.61,0,2.93,1.21,3.06,2.85
		C207.67,102.97,207.63,103.61,207.64,104.23C207.63,104.23,207.64,104.23,207.64,104.23z"/>
	<path class="st0" d="M207.63,118.05c0,0.63,0.04,1.26-0.01,1.88c-0.14,1.65-1.45,2.85-3.06,2.84c-1.62-0.01-2.92-1.22-3.01-2.88
		c-0.06-1.22-0.07-2.44,0-3.66c0.09-1.63,1.46-2.87,3.05-2.86c1.54,0.01,2.86,1.22,3.01,2.8
		C207.68,116.79,207.63,117.42,207.63,118.05z"/>
	<path class="st0" d="M207.64,131.99c0,0.56,0.02,1.12,0,1.67c-0.09,1.71-1.37,2.98-3.02,3c-1.64,0.02-2.99-1.24-3.07-2.94
		c-0.05-1.18-0.06-2.37,0.01-3.55c0.09-1.66,1.39-2.88,3-2.89c1.64-0.02,2.98,1.25,3.08,2.94
		C207.67,130.8,207.64,131.4,207.64,131.99z"/>
	<path class="st0" d="M201.55,90.33c0-0.63-0.04-1.26,0.01-1.88c0.12-1.62,1.37-2.79,2.95-2.82c1.63-0.03,2.99,1.12,3.1,2.77
		c0.09,1.28,0.09,2.58-0.01,3.87c-0.12,1.61-1.45,2.73-3.04,2.71c-1.59-0.01-2.86-1.16-3-2.77
		C201.51,91.59,201.55,90.96,201.55,90.33C201.55,90.33,201.55,90.33,201.55,90.33z"/>
	<path class="st0" d="M207.64,159.77c0,0.59,0.04,1.19-0.01,1.78c-0.12,1.69-1.48,2.93-3.12,2.89c-1.6-0.04-2.88-1.28-2.96-2.94
		c-0.05-1.18-0.06-2.37,0-3.56c0.08-1.65,1.4-2.88,3.01-2.89c1.59-0.02,2.93,1.21,3.06,2.85
		C207.68,158.51,207.63,159.14,207.64,159.77C207.63,159.77,207.63,159.77,207.64,159.77z"/>
	<path class="st0" d="M207.63,173.69c0,0.59,0.04,1.19-0.01,1.78c-0.12,1.64-1.43,2.85-3.05,2.84c-1.63,0-2.93-1.2-3.02-2.86
		c-0.06-1.22-0.07-2.44,0-3.66c0.09-1.66,1.41-2.85,3.04-2.84c1.63,0.01,2.91,1.2,3.03,2.86
		C207.67,172.43,207.63,173.06,207.63,173.69z"/>
	<path class="st0" d="M178.83,118.13c0,0.59,0.03,1.18,0,1.77c-0.1,1.63-1.4,2.86-3.01,2.87c-1.62,0.01-2.96-1.17-3.06-2.81
		c-0.08-1.25-0.07-2.5,0-3.75c0.09-1.61,1.47-2.86,3.05-2.85c1.58,0.01,2.91,1.26,3.02,2.88
		C178.86,116.87,178.82,117.5,178.83,118.13z"/>
	<path class="st0" d="M193.24,145.85c0,0.59,0.03,1.18-0.01,1.77c-0.1,1.64-1.37,2.88-2.97,2.94c-1.58,0.06-2.97-1.13-3.09-2.78
		c-0.09-1.28-0.09-2.57,0-3.85c0.11-1.65,1.47-2.8,3.09-2.77c1.56,0.03,2.83,1.22,2.97,2.81
		C193.28,144.6,193.23,145.23,193.24,145.85C193.24,145.85,193.24,145.85,193.24,145.85z"/>
	<path class="st0" d="M193.24,118.03c0,0.63,0.04,1.25-0.01,1.88c-0.12,1.64-1.42,2.85-3.02,2.86c-1.61,0.01-2.94-1.16-3.04-2.82
		c-0.08-1.25-0.08-2.5,0-3.75c0.11-1.64,1.47-2.86,3.05-2.83c1.63,0.02,2.94,1.31,3.02,2.99
		C193.27,116.92,193.24,117.48,193.24,118.03C193.24,118.03,193.24,118.03,193.24,118.03z"/>
	<path class="st0" d="M193.24,104.15c0,0.59,0.03,1.18-0.01,1.77c-0.09,1.68-1.41,2.96-3.04,2.98c-1.58,0.02-2.93-1.19-3.04-2.84
		c-0.08-1.24-0.08-2.5,0-3.75c0.11-1.66,1.46-2.83,3.06-2.81c1.64,0.02,2.93,1.29,3.02,2.99
		C193.27,103.04,193.24,103.6,193.24,104.15z"/>
	<path class="st0" d="M193.24,159.73c0,0.59,0.03,1.18-0.01,1.77c-0.1,1.65-1.37,2.89-2.96,2.94c-1.64,0.05-3.02-1.16-3.12-2.86
		c-0.08-1.25-0.08-2.5,0.01-3.75c0.12-1.65,1.48-2.83,3.08-2.79c1.59,0.04,2.89,1.29,2.99,2.91
		C193.27,158.54,193.24,159.14,193.24,159.73z"/>
	<path class="st0" d="M172.74,104.16c0-0.63-0.04-1.26,0.01-1.88c0.14-1.58,1.45-2.77,3.01-2.78c1.56-0.01,2.93,1.15,3.04,2.74
		c0.09,1.28,0.08,2.58,0.01,3.87c-0.09,1.58-1.44,2.77-3,2.79c-1.55,0.02-2.9-1.17-3.05-2.74
		C172.69,105.49,172.75,104.83,172.74,104.16C172.74,104.16,172.74,104.16,172.74,104.16z"/>
	<path class="st0" d="M193.24,90.32c0,0.59,0.03,1.19-0.01,1.78c-0.11,1.66-1.38,2.87-3,2.89c-1.65,0.02-2.96-1.12-3.06-2.8
		c-0.08-1.25-0.08-2.51,0-3.76c0.11-1.67,1.45-2.82,3.08-2.79c1.61,0.03,2.88,1.25,2.99,2.91
		C193.27,89.13,193.24,89.73,193.24,90.32z"/>
	<path class="st0" d="M193.24,131.98c0,0.56,0.02,1.12,0,1.67c-0.08,1.71-1.36,2.98-3.01,3.01c-1.6,0.03-2.95-1.16-3.06-2.82
		c-0.08-1.25-0.08-2.51,0-3.76c0.12-1.66,1.48-2.84,3.08-2.8c1.62,0.04,2.88,1.27,2.98,2.92
		C193.27,130.79,193.24,131.39,193.24,131.98C193.24,131.98,193.24,131.98,193.24,131.98z"/>
	<path class="st0" d="M178.83,132.04c0,0.59,0.03,1.19-0.01,1.78c-0.12,1.63-1.45,2.85-3.06,2.84c-1.57-0.01-2.91-1.2-3-2.78
		c-0.08-1.28-0.08-2.58,0.01-3.87c0.11-1.59,1.47-2.75,3.04-2.74c1.6,0.01,2.92,1.26,3.02,2.89
		C178.86,130.79,178.83,131.42,178.83,132.04z"/>
	<path class="st0" d="M178.83,90.34c0,0.59,0.03,1.19-0.01,1.78c-0.1,1.65-1.39,2.86-3.02,2.86c-1.63,0.01-2.96-1.18-3.05-2.83
		c-0.07-1.22-0.06-2.44,0-3.66c0.08-1.65,1.4-2.86,3.02-2.87c1.65-0.01,2.97,1.24,3.06,2.94C178.86,89.15,178.83,89.75,178.83,90.34
		z"/>
	<path class="st0" d="M121.7,125.79c0-0.59-0.03-1.18,0.01-1.77c0.11-1.61,1.44-2.87,3.02-2.89c1.58-0.02,2.95,1.21,3.05,2.83
		c0.07,1.25,0.08,2.5,0,3.75c-0.1,1.69-1.49,2.88-3.15,2.81c-1.6-0.06-2.84-1.31-2.92-2.97C121.68,126.97,121.7,126.38,121.7,125.79
		z"/>
	<path class="st0" d="M143.31,170.43c0,0.59,0.02,1.19,0,1.78c-0.08,1.66-1.32,2.89-2.95,2.94c-1.61,0.05-3-1.14-3.11-2.78
		c-0.08-1.25-0.08-2.51,0-3.76c0.09-1.64,1.46-2.86,3.06-2.84c1.66,0.02,2.94,1.28,3.01,2.99
		C143.33,169.31,143.31,169.87,143.31,170.43z"/>
	<path class="st0" d="M143.31,140.73c0,0.59,0.02,1.19-0.01,1.78c-0.08,1.61-1.31,2.82-2.89,2.88c-1.59,0.06-3-1.03-3.14-2.61
		c-0.12-1.35-0.11-2.72-0.01-4.07c0.12-1.57,1.56-2.75,3.08-2.71c1.61,0.05,2.88,1.3,2.96,2.95
		C143.33,139.54,143.31,140.14,143.31,140.73z"/>
	<path class="st0" d="M143.31,125.83c0,0.59,0.02,1.19,0,1.78c-0.08,1.65-1.35,2.89-2.97,2.92c-1.61,0.03-2.99-1.16-3.09-2.8
		c-0.08-1.25-0.07-2.51,0-3.76c0.09-1.62,1.49-2.86,3.07-2.83c1.61,0.03,2.9,1.28,2.99,2.92
		C143.33,124.65,143.31,125.24,143.31,125.83z"/>
	<path class="st0" d="M143.31,155.68c0,0.56,0.02,1.12,0,1.67c-0.08,1.66-1.33,2.88-2.96,2.91c-1.63,0.03-2.99-1.14-3.1-2.78
		c-0.08-1.25-0.08-2.51,0-3.76c0.1-1.64,1.46-2.84,3.07-2.82c1.66,0.02,2.93,1.29,2.99,3C143.33,154.49,143.31,155.08,143.31,155.68
		z"/>
	<path class="st0" d="M143.31,185.29c0,0.59,0.02,1.19,0,1.78c-0.07,1.65-1.32,2.9-2.94,2.94c-1.61,0.04-3.01-1.14-3.12-2.76
		c-0.08-1.28-0.09-2.58,0.01-3.87c0.12-1.63,1.55-2.82,3.14-2.75c1.62,0.07,2.85,1.32,2.91,2.98
		C143.33,184.17,143.31,184.73,143.31,185.29z"/>
	<path class="st0" d="M121.7,140.63c0-0.56-0.03-1.12,0-1.67c0.09-1.64,1.37-2.91,2.97-2.96c1.58-0.05,2.99,1.17,3.1,2.8
		c0.08,1.28,0.08,2.58-0.01,3.87c-0.12,1.64-1.51,2.78-3.14,2.72c-1.57-0.06-2.81-1.27-2.91-2.88
		C121.67,141.89,121.7,141.26,121.7,140.63z"/>
	<path class="st0" d="M117.8,166.03c0,0.59,0.04,1.19-0.01,1.78c-0.13,1.59-1.42,2.79-2.98,2.81c-1.55,0.03-2.94-1.15-3.05-2.73
		c-0.09-1.32-0.09-2.65,0-3.97c0.12-1.58,1.5-2.72,3.07-2.7c1.57,0.03,2.85,1.22,2.97,2.82C117.84,164.71,117.8,165.37,117.8,166.03
		C117.8,166.03,117.8,166.03,117.8,166.03z"/>
	<path class="st0" d="M111.72,179.79c0-0.56-0.02-1.12,0-1.67c0.07-1.7,1.37-2.99,3-3.02c1.63-0.03,3,1.25,3.07,2.94
		c0.05,1.18,0.05,2.37,0,3.56c-0.08,1.66-1.39,2.89-2.99,2.91c-1.65,0.02-2.98-1.23-3.08-2.93
		C111.69,180.98,111.72,180.39,111.72,179.79z"/>
	<path class="st0" d="M111.72,193.68c0-0.59-0.03-1.19,0.01-1.78c0.11-1.65,1.39-2.88,3-2.91c1.64-0.02,3,1.23,3.07,2.93
		c0.05,1.18,0.05,2.37-0.01,3.56c-0.07,1.65-1.38,2.88-2.99,2.9c-1.65,0.02-2.99-1.24-3.08-2.93
		C111.69,194.87,111.72,194.27,111.72,193.68z"/>
	<path class="st0" d="M104.58,179.82c0,0.59,0.03,1.18-0.01,1.77c-0.11,1.65-1.38,2.88-2.97,2.91c-1.59,0.03-2.98-1.15-3.09-2.79
		c-0.09-1.28-0.09-2.57,0-3.85c0.13-1.63,1.54-2.82,3.12-2.76c1.6,0.05,2.85,1.29,2.95,2.95
		C104.61,178.64,104.58,179.23,104.58,179.82C104.58,179.82,104.58,179.82,104.58,179.82z"/>
	<path class="st0" d="M104.58,165.96c0,0.56,0.02,1.12-0.01,1.67c-0.09,1.71-1.39,2.98-3.03,2.99c-1.59,0.01-2.94-1.21-3.05-2.86
		c-0.08-1.22-0.08-2.44,0-3.66c0.1-1.7,1.48-2.91,3.14-2.87c1.61,0.04,2.86,1.28,2.95,2.95
		C104.61,164.77,104.58,165.37,104.58,165.96z"/>
	<path class="st0" d="M104.57,193.74c0,0.59,0.03,1.19-0.01,1.78c-0.11,1.61-1.35,2.81-2.93,2.87c-1.6,0.06-3.01-1.12-3.13-2.76
		c-0.1-1.28-0.1-2.58,0-3.87c0.12-1.63,1.55-2.83,3.13-2.77c1.6,0.06,2.85,1.31,2.94,2.97
		C104.61,192.56,104.58,193.15,104.57,193.74C104.58,193.74,104.57,193.74,104.57,193.74z"/>
	<path class="st0" d="M251.67,183.83c0,0.66,0.06,1.33-0.01,1.98c-0.19,1.62-1.57,2.76-3.18,2.67c-1.55-0.08-2.81-1.33-2.87-2.91
		c-0.05-1.18-0.04-2.36,0-3.54c0.06-1.63,1.35-2.88,2.95-2.95c1.57-0.06,2.95,1.14,3.11,2.77
		C251.73,182.51,251.67,183.17,251.67,183.83C251.67,183.83,251.67,183.83,251.67,183.83z"/>
	<path class="st0" d="M264.9,169.94c0,0.63,0.05,1.26-0.01,1.88c-0.16,1.61-1.44,2.78-3,2.79c-1.56,0.01-2.92-1.15-3.04-2.75
		c-0.1-1.28-0.1-2.58-0.01-3.87c0.12-1.64,1.51-2.82,3.11-2.78c1.57,0.04,2.81,1.22,2.95,2.84c0.05,0.62,0.01,1.25,0.01,1.88
		C264.91,169.94,264.91,169.94,264.9,169.94z"/>
	<path class="st0" d="M251.67,169.98c0,0.63,0.05,1.26-0.01,1.88c-0.16,1.59-1.48,2.76-3.04,2.74c-1.61-0.01-2.94-1.25-3.02-2.89
		c-0.05-1.22-0.06-2.44,0-3.66c0.08-1.58,1.39-2.8,2.95-2.84c1.56-0.05,2.92,1.1,3.09,2.68
		C251.73,168.58,251.66,169.29,251.67,169.98C251.67,169.98,251.67,169.98,251.67,169.98z"/>
	<path class="st0" d="M264.91,183.82c0,0.63,0.05,1.25-0.01,1.87c-0.15,1.61-1.42,2.77-2.98,2.79c-1.56,0.02-2.93-1.09-3.06-2.69
		c-0.11-1.34-0.11-2.71,0.01-4.06c0.14-1.53,1.51-2.65,3.01-2.65c1.54,0,2.85,1.17,3.02,2.76
		C264.95,182.5,264.9,183.17,264.91,183.82C264.9,183.82,264.9,183.82,264.91,183.82z"/>
	<g>
		<circle class="st0" cx="131.85" cy="92.87" r="7.91"/>
		<path class="st0" d="M144.4,84.68c-0.98,0-1.96-0.39-2.69-1.15l-0.26-0.27c-5.27-5.27-13.61-5.38-19-0.25
			c-1.49,1.42-3.85,1.36-5.26-0.13c-1.42-1.49-1.36-3.85,0.13-5.27c8.34-7.93,21.25-7.77,29.39,0.37c0.09,0.09,0.2,0.2,0.3,0.31
			l0.09,0.09c1.42,1.49,1.37,3.84-0.11,5.27C146.25,84.34,145.32,84.68,144.4,84.68z"/>
		<path class="st0" d="M152.67,76.33c-0.95,0-1.89-0.36-2.61-1.1l-0.2-0.21c-9.83-9.84-25.8-9.95-35.69-0.34
			c-1.47,1.43-3.83,1.4-5.27-0.08c-1.43-1.47-1.4-3.83,0.07-5.27c12.79-12.43,33.45-12.28,46.06,0.33c0.08,0.08,0.18,0.18,0.27,0.28
			c1.44,1.47,1.45,3.87-0.02,5.3C154.56,75.97,153.61,76.33,152.67,76.33z"/>
		<path class="st0" d="M161.99,67.01c-0.95,0-1.89-0.36-2.6-1.1l-0.21-0.22c-14.95-14.96-39.28-15.08-54.31-0.34
			c-1.47,1.44-3.82,1.42-5.27-0.05c-1.44-1.47-1.42-3.83,0.05-5.27c17.93-17.58,46.96-17.44,64.72,0.31
			c0.09,0.09,0.18,0.18,0.27,0.28c1.44,1.47,1.45,3.87-0.02,5.31C163.88,66.65,162.93,67.01,161.99,67.01z"/>
	</g>
</g>
<path class="st0" d="M113.99,318.95l1.22,0.71l3.44,0.46l3.89-6.73l-2.12-2.75l-1.22-0.7c-0.21-0.12-0.3-0.37-0.22-0.6
	c0.46-1.33,0.83-2.71,1.1-4.1c0.05-0.24,0.25-0.41,0.49-0.41h1.41l3.21-1.32v-7.77l-3.21-1.32h-1.41c-0.24,0-0.45-0.17-0.49-0.41
	c-0.27-1.39-0.63-2.76-1.1-4.1c-0.08-0.23,0.02-0.48,0.22-0.6l1.22-0.7l2.12-2.75l-3.89-6.73l-3.44,0.46l-1.22,0.71
	c-0.21,0.12-0.47,0.08-0.63-0.11c-0.92-1.06-1.93-2.07-3-3c-0.18-0.16-0.23-0.42-0.11-0.63l0.71-1.22l0.46-3.44l-2.14-1.24
	l-6.03,10.45c6.14,4.28,9.94,11.33,9.94,18.49c0,7.09-3.66,14.06-9.57,18.3l6.02,10.43l1.78-1.03l-0.46-3.44l-0.71-1.22
	c-0.12-0.21-0.08-0.47,0.11-0.63c1.07-0.92,2.07-1.93,3-3C113.52,318.88,113.79,318.83,113.99,318.95z"/>
<path class="st0" d="M96.15,329.26c0-0.24,0.17-0.45,0.41-0.49c1.39-0.27,2.77-0.63,4.1-1.09c0.22-0.08,0.48,0.01,0.6,0.22l0.7,1.22
	l2.75,2.12l2.56-1.48l-6.01-10.41c-3.18,1.66-6.73,2.54-10.3,2.54c-10.19,0-18.82-6.6-21.47-16.41c-0.04-0.15-0.01-0.31,0.09-0.43
	c0.09-0.12,0.24-0.2,0.4-0.2h20.18l3.21-1.32v-7.77l-3.21-1.32H69.96c-0.16,0-0.3-0.07-0.4-0.2c-0.09-0.12-0.13-0.28-0.09-0.43
	c2.65-9.82,11.28-16.41,21.47-16.41c3.43,0,6.86,0.81,9.93,2.35l6.02-10.42l-2.2-1.27l-2.75,2.12l-0.7,1.22
	c-0.12,0.21-0.37,0.3-0.6,0.22c-1.33-0.46-2.71-0.83-4.1-1.1c-0.24-0.05-0.41-0.25-0.41-0.49v-1.41l-1.32-3.21h-7.77l-1.32,3.21
	v1.41c0,0.24-0.17,0.45-0.41,0.49c-1.39,0.27-2.77,0.64-4.1,1.1c-0.23,0.08-0.48-0.01-0.6-0.22l-0.7-1.22l-2.75-2.12l-6.73,3.89
	l0.46,3.44l0.71,1.22c0.12,0.21,0.08,0.47-0.11,0.63c-1.06,0.92-2.07,1.93-3,3c-0.16,0.18-0.42,0.22-0.63,0.1l-1.22-0.71l-3.44-0.46
	l-3.89,6.73l2.12,2.75l1.22,0.7c0.21,0.12,0.3,0.37,0.22,0.6c-0.46,1.33-0.83,2.71-1.09,4.1c-0.05,0.24-0.25,0.41-0.49,0.41h-1.41
	l-3.21,1.32v7.77l3.21,1.32h1.41c0.24,0,0.45,0.17,0.49,0.41c0.27,1.38,0.63,2.76,1.09,4.1c0.08,0.23-0.02,0.48-0.22,0.6l-1.22,0.7
	l-2.12,2.75l3.89,6.73l3.44-0.46l1.22-0.71c0.21-0.12,0.47-0.08,0.63,0.11c0.92,1.07,1.93,2.07,3,3c0.18,0.16,0.23,0.42,0.11,0.63
	l-0.71,1.22l-0.46,3.44l6.73,3.89l2.75-2.12l0.7-1.22c0.12-0.21,0.37-0.3,0.6-0.22c1.34,0.46,2.72,0.83,4.1,1.09
	c0.24,0.04,0.41,0.25,0.41,0.49v1.41l1.32,3.21h7.77l1.32-3.21V329.26z"/>
<g>
	<path class="st0" d="M141.05,307.69c-1.55,0-2.92-0.29-4.11-0.86c-1.19-0.57-2.12-1.36-2.81-2.38c-0.68-1.01-1.03-2.21-1.03-3.58
		v-3.25c0-1.21,0.32-2.32,0.98-3.32c0.65-1,1.51-1.81,2.58-2.41c1.07-0.6,2.26-0.91,3.56-0.91c1.23,0,2.36,0.27,3.39,0.8
		c1.03,0.54,1.85,1.28,2.48,2.24c0.63,0.96,0.94,2.05,0.94,3.28c0,0.96-0.15,1.64-0.44,2.05c-0.3,0.41-0.68,0.66-1.16,0.75
		c-0.48,0.09-0.98,0.14-1.51,0.14h-7.22v0.79c0,1.14,0.42,2.05,1.25,2.72c0.83,0.67,1.9,1.01,3.2,1.01c0.8,0,1.45-0.11,1.95-0.34
		c0.5-0.23,0.92-0.44,1.27-0.65c0.34-0.21,0.66-0.31,0.96-0.31c0.3,0,0.55,0.09,0.75,0.27c0.21,0.18,0.36,0.4,0.48,0.65
		c0.11,0.25,0.17,0.48,0.17,0.68c0,0.34-0.23,0.72-0.7,1.13c-0.47,0.41-1.12,0.76-1.97,1.04
		C143.21,307.54,142.21,307.69,141.05,307.69z M136.7,298.04h5.68c0.5,0,0.84-0.07,1.01-0.21c0.17-0.14,0.26-0.41,0.26-0.82
		c0-0.59-0.15-1.15-0.44-1.66c-0.3-0.51-0.71-0.91-1.23-1.2c-0.53-0.29-1.12-0.43-1.78-0.43c-0.64,0-1.22,0.14-1.74,0.41
		c-0.53,0.27-0.95,0.65-1.27,1.13c-0.32,0.48-0.48,1.04-0.48,1.68V298.04z"/>
	<path class="st0" d="M157.23,307.69c-1.64,0-2.99-0.3-4.05-0.89c-1.06-0.59-1.84-1.4-2.34-2.43c-0.5-1.03-0.75-2.19-0.75-3.49
		v-3.08c0-1.28,0.25-2.43,0.75-3.47c0.5-1.04,1.28-1.85,2.33-2.45c1.05-0.59,2.38-0.89,4-0.89c1.05,0,1.97,0.13,2.75,0.38
		c0.79,0.25,1.4,0.56,1.85,0.94c0.44,0.38,0.67,0.77,0.67,1.18c0,0.21-0.06,0.45-0.19,0.74c-0.13,0.29-0.3,0.53-0.51,0.72
		c-0.22,0.19-0.47,0.29-0.77,0.29c-0.23,0-0.47-0.09-0.74-0.27c-0.26-0.18-0.61-0.36-1.04-0.53c-0.43-0.17-1.02-0.26-1.74-0.26
		c-1.28,0-2.22,0.32-2.84,0.96c-0.62,0.64-0.92,1.53-0.92,2.67v3.08c0,1.14,0.31,2.03,0.92,2.67c0.62,0.64,1.57,0.96,2.87,0.96
		c0.75,0,1.35-0.1,1.78-0.29c0.43-0.19,0.78-0.38,1.04-0.56c0.26-0.18,0.52-0.27,0.77-0.27c0.32,0,0.6,0.09,0.84,0.27
		c0.24,0.18,0.42,0.41,0.55,0.68c0.13,0.27,0.19,0.53,0.19,0.75c0,0.39-0.23,0.79-0.7,1.2c-0.47,0.41-1.11,0.75-1.92,1.01
		C159.21,307.56,158.28,307.69,157.23,307.69z"/>
	<path class="st0" d="M172.11,307.69c-1.23,0-2.38-0.32-3.46-0.96c-1.07-0.64-1.93-1.48-2.58-2.51c-0.65-1.04-0.98-2.15-0.98-3.34
		v-3.15c0-1.21,0.31-2.33,0.94-3.35c0.63-1.03,1.48-1.85,2.57-2.46c1.08-0.62,2.26-0.92,3.54-0.92c1.28,0,2.45,0.3,3.52,0.91
		c1.07,0.6,1.93,1.41,2.58,2.43c0.65,1.02,0.98,2.15,0.98,3.4v3.15c0,1.16-0.33,2.27-0.98,3.32c-0.65,1.05-1.52,1.89-2.6,2.53
		C174.57,307.37,173.39,307.69,172.11,307.69z M172.15,304.5c0.64,0,1.22-0.17,1.74-0.51c0.52-0.34,0.95-0.79,1.27-1.35
		c0.32-0.56,0.48-1.15,0.48-1.76v-3.15c0-0.59-0.16-1.16-0.48-1.71c-0.32-0.55-0.74-0.99-1.27-1.33c-0.53-0.34-1.11-0.51-1.74-0.51
		c-0.66,0-1.25,0.17-1.76,0.51c-0.51,0.34-0.92,0.79-1.23,1.33c-0.31,0.55-0.46,1.12-0.46,1.71v3.15c0,0.62,0.15,1.2,0.46,1.76
		c0.31,0.56,0.72,1.01,1.25,1.35C170.93,304.33,171.51,304.5,172.15,304.5z"/>
	<path class="st0" d="M183.64,300.71c-0.34,0-0.62-0.14-0.84-0.43c-0.22-0.28-0.33-0.64-0.33-1.08c0-0.43,0.11-0.8,0.33-1.1
		c0.22-0.3,0.5-0.44,0.84-0.44h8.9c0.32,0,0.6,0.15,0.85,0.44c0.25,0.3,0.38,0.66,0.38,1.1c0,0.43-0.13,0.79-0.38,1.08
		c-0.25,0.29-0.54,0.43-0.85,0.43H183.64z"/>
	<path class="st0" d="M202.39,307.69c-1.12,0-2.12-0.14-3.01-0.41c-0.89-0.27-1.59-0.62-2.1-1.04c-0.51-0.42-0.77-0.85-0.77-1.28
		c0-0.21,0.05-0.43,0.15-0.68c0.1-0.25,0.25-0.47,0.44-0.65c0.19-0.18,0.4-0.27,0.63-0.27c0.3,0,0.61,0.13,0.94,0.39
		c0.33,0.26,0.77,0.53,1.32,0.79c0.55,0.26,1.31,0.39,2.29,0.39c1.14,0,1.91-0.19,2.31-0.58c0.4-0.39,0.6-0.81,0.6-1.27
		c0-0.59-0.2-1.05-0.6-1.39c-0.4-0.33-0.91-0.6-1.54-0.8c-0.63-0.21-1.29-0.4-2-0.6c-0.71-0.19-1.37-0.45-2-0.77
		c-0.63-0.32-1.14-0.76-1.54-1.33c-0.4-0.57-0.6-1.32-0.6-2.26c0-0.78,0.19-1.54,0.58-2.31c0.39-0.76,1.01-1.39,1.86-1.88
		s2-0.74,3.44-0.74c0.87,0,1.69,0.09,2.46,0.27c0.78,0.18,1.41,0.43,1.92,0.74c0.5,0.31,0.75,0.64,0.75,1.01
		c0,0.16-0.06,0.38-0.17,0.67c-0.11,0.29-0.27,0.54-0.46,0.75c-0.19,0.22-0.44,0.33-0.74,0.33c-0.23,0-0.51-0.09-0.86-0.26
		c-0.34-0.17-0.74-0.34-1.2-0.5c-0.46-0.16-1.02-0.24-1.68-0.24c-0.66,0-1.19,0.11-1.59,0.33c-0.4,0.22-0.69,0.47-0.87,0.77
		c-0.18,0.3-0.27,0.59-0.27,0.89c0,0.5,0.19,0.89,0.58,1.16c0.39,0.27,0.9,0.5,1.54,0.68c0.64,0.18,1.31,0.37,2.02,0.56
		c0.71,0.19,1.37,0.47,2,0.84c0.63,0.36,1.14,0.85,1.54,1.47c0.4,0.62,0.6,1.44,0.6,2.46c0,1.44-0.52,2.59-1.56,3.46
		C205.79,307.25,204.31,307.69,202.39,307.69z"/>
	<path class="st0" d="M212.08,315.11c-0.46,0-0.84-0.1-1.16-0.29c-0.32-0.19-0.48-0.61-0.48-1.25c0-0.41,0.07-0.77,0.21-1.08
		c0.14-0.31,0.39-0.46,0.75-0.46c0.43,0,0.91-0.11,1.42-0.33c0.51-0.22,1.02-0.56,1.51-1.03c0.49-0.47,0.91-1.06,1.27-1.76
		c0.35-0.71,0.6-1.54,0.74-2.5l-5.78-13.27c-0.09-0.16-0.14-0.32-0.14-0.48c0-0.3,0.13-0.58,0.39-0.84
		c0.26-0.26,0.58-0.47,0.94-0.63c0.36-0.16,0.71-0.24,1.03-0.24c0.23,0,0.45,0.05,0.67,0.15c0.22,0.1,0.36,0.27,0.43,0.5l4.31,11.12
		l3.73-11.12c0.07-0.23,0.21-0.39,0.41-0.5c0.21-0.1,0.41-0.15,0.62-0.15c0.27,0,0.6,0.08,0.97,0.24c0.38,0.16,0.71,0.37,0.99,0.63
		c0.28,0.26,0.43,0.56,0.43,0.91c0,0.18-0.03,0.32-0.1,0.41l-5.13,13.38c-0.36,0.98-0.74,1.98-1.13,2.99
		c-0.39,1.01-0.86,1.94-1.42,2.79c-0.56,0.84-1.28,1.52-2.16,2.04C214.5,314.85,213.4,315.11,212.08,315.11z"/>
	<path class="st0" d="M233.19,307.69c-1.12,0-2.12-0.14-3.01-0.41c-0.89-0.27-1.59-0.62-2.1-1.04c-0.51-0.42-0.77-0.85-0.77-1.28
		c0-0.21,0.05-0.43,0.15-0.68c0.1-0.25,0.25-0.47,0.44-0.65c0.19-0.18,0.4-0.27,0.63-0.27c0.3,0,0.61,0.13,0.94,0.39
		c0.33,0.26,0.77,0.53,1.32,0.79c0.55,0.26,1.31,0.39,2.29,0.39c1.14,0,1.91-0.19,2.31-0.58c0.4-0.39,0.6-0.81,0.6-1.27
		c0-0.59-0.2-1.05-0.6-1.39c-0.4-0.33-0.91-0.6-1.54-0.8c-0.63-0.21-1.29-0.4-2-0.6c-0.71-0.19-1.37-0.45-2-0.77
		c-0.63-0.32-1.14-0.76-1.54-1.33c-0.4-0.57-0.6-1.32-0.6-2.26c0-0.78,0.19-1.54,0.58-2.31c0.39-0.76,1.01-1.39,1.86-1.88
		c0.86-0.49,2-0.74,3.44-0.74c0.87,0,1.69,0.09,2.46,0.27c0.78,0.18,1.41,0.43,1.92,0.74c0.5,0.31,0.75,0.64,0.75,1.01
		c0,0.16-0.06,0.38-0.17,0.67c-0.11,0.29-0.27,0.54-0.46,0.75c-0.19,0.22-0.44,0.33-0.74,0.33c-0.23,0-0.51-0.09-0.86-0.26
		c-0.34-0.17-0.74-0.34-1.2-0.5c-0.46-0.16-1.02-0.24-1.68-0.24c-0.66,0-1.19,0.11-1.59,0.33c-0.4,0.22-0.69,0.47-0.87,0.77
		c-0.18,0.3-0.27,0.59-0.27,0.89c0,0.5,0.19,0.89,0.58,1.16c0.39,0.27,0.9,0.5,1.54,0.68c0.64,0.18,1.31,0.37,2.02,0.56
		c0.71,0.19,1.37,0.47,2,0.84c0.63,0.36,1.14,0.85,1.54,1.47c0.4,0.62,0.6,1.44,0.6,2.46c0,1.44-0.52,2.59-1.56,3.46
		C236.58,307.25,235.1,307.69,233.19,307.69z"/>
	<path class="st0" d="M248.72,307.41c-1.94,0-3.42-0.43-4.45-1.28c-1.03-0.86-1.54-2.21-1.54-4.05v-17.14
		c0-0.34,0.19-0.62,0.56-0.84c0.38-0.22,0.78-0.33,1.21-0.33c0.43,0,0.84,0.11,1.23,0.33c0.39,0.22,0.58,0.5,0.58,0.84v6.26h4.17
		c0.32,0,0.56,0.14,0.74,0.41c0.17,0.27,0.26,0.58,0.26,0.92s-0.09,0.65-0.26,0.92c-0.17,0.27-0.42,0.41-0.74,0.41h-4.17v8.21
		c0,0.82,0.18,1.4,0.53,1.74c0.35,0.34,0.98,0.51,1.86,0.51h1.16c0.52,0,0.92,0.15,1.18,0.46c0.26,0.31,0.39,0.67,0.39,1.08
		c0,0.39-0.13,0.74-0.39,1.06c-0.26,0.32-0.66,0.48-1.18,0.48H248.72z"/>
	<path class="st0" d="M261.68,307.69c-1.55,0-2.92-0.29-4.11-0.86c-1.19-0.57-2.12-1.36-2.81-2.38c-0.68-1.01-1.03-2.21-1.03-3.58
		v-3.25c0-1.21,0.33-2.32,0.98-3.32c0.65-1,1.51-1.81,2.58-2.41c1.07-0.6,2.26-0.91,3.56-0.91c1.23,0,2.36,0.27,3.39,0.8
		c1.03,0.54,1.85,1.28,2.48,2.24c0.63,0.96,0.94,2.05,0.94,3.28c0,0.96-0.15,1.64-0.44,2.05c-0.3,0.41-0.68,0.66-1.16,0.75
		c-0.48,0.09-0.98,0.14-1.51,0.14h-7.22v0.79c0,1.14,0.42,2.05,1.25,2.72c0.83,0.67,1.9,1.01,3.2,1.01c0.8,0,1.45-0.11,1.95-0.34
		c0.5-0.23,0.92-0.44,1.27-0.65c0.34-0.21,0.66-0.31,0.96-0.31c0.3,0,0.55,0.09,0.75,0.27c0.21,0.18,0.36,0.4,0.48,0.65
		c0.11,0.25,0.17,0.48,0.17,0.68c0,0.34-0.23,0.72-0.7,1.13c-0.47,0.41-1.12,0.76-1.97,1.04
		C263.85,307.54,262.85,307.69,261.68,307.69z M257.34,298.04h5.68c0.5,0,0.84-0.07,1.01-0.21s0.26-0.41,0.26-0.82
		c0-0.59-0.15-1.15-0.45-1.66c-0.3-0.51-0.71-0.91-1.23-1.2c-0.53-0.29-1.12-0.43-1.78-0.43c-0.64,0-1.22,0.14-1.74,0.41
		c-0.53,0.27-0.95,0.65-1.27,1.13c-0.32,0.48-0.48,1.04-0.48,1.68V298.04z"/>
	<path class="st0" d="M273.08,307.41c-0.53,0-0.95-0.13-1.28-0.38c-0.33-0.25-0.5-0.52-0.5-0.82v-13.86c0-0.34,0.16-0.62,0.5-0.84
		c0.33-0.22,0.76-0.33,1.28-0.33c0.43,0,0.81,0.11,1.13,0.33c0.32,0.22,0.48,0.5,0.48,0.84v1.23c0.39-0.66,0.96-1.26,1.71-1.8
		c0.75-0.54,1.7-0.8,2.84-0.8c1.03,0,1.93,0.32,2.72,0.96c0.79,0.64,1.37,1.46,1.76,2.46c0.59-1.16,1.36-2.02,2.29-2.58
		c0.94-0.56,1.89-0.84,2.87-0.84c1.03,0,1.99,0.26,2.89,0.79c0.9,0.53,1.64,1.29,2.21,2.29c0.57,1,0.86,2.22,0.86,3.66v8.49
		c0,0.3-0.18,0.57-0.53,0.82c-0.35,0.25-0.78,0.38-1.28,0.38c-0.48,0-0.9-0.13-1.25-0.38c-0.35-0.25-0.53-0.52-0.53-0.82v-8.49
		c0-0.77-0.15-1.43-0.46-1.97c-0.31-0.54-0.71-0.94-1.2-1.21c-0.49-0.27-1-0.41-1.52-0.41c-0.55,0-1.06,0.14-1.54,0.43
		c-0.48,0.29-0.88,0.68-1.2,1.2c-0.32,0.51-0.48,1.15-0.48,1.9v8.59c0,0.41-0.19,0.71-0.56,0.89c-0.38,0.18-0.79,0.27-1.25,0.27
		c-0.41,0-0.81-0.09-1.2-0.27c-0.39-0.18-0.58-0.48-0.58-0.89v-8.55c0-0.73-0.15-1.36-0.44-1.88c-0.3-0.52-0.68-0.93-1.16-1.21
		c-0.48-0.28-1-0.43-1.57-0.43c-0.53,0-1.03,0.14-1.52,0.41c-0.49,0.27-0.89,0.67-1.2,1.2c-0.31,0.53-0.46,1.18-0.46,1.95v8.49
		c0,0.3-0.18,0.57-0.53,0.82C274.01,307.29,273.58,307.41,273.08,307.41z"/>
</g>
<path class="st0" d="M204.13,277.6"/>
</svg>
