<?xml version="1.0" encoding="utf-8"?>
<!-- Generator: Adobe Illustrator 27.9.0, SVG Export Plug-In . SVG Version: 6.00 Build 0)  -->
<svg version="1.1" xmlns="http://www.w3.org/2000/svg" xmlns:xlink="http://www.w3.org/1999/xlink" x="0px" y="0px"
	 viewBox="0 0 360 360" style="enable-background:new 0 0 360 360;" xml:space="preserve">
<style type="text/css">
	.st0{fill:#FFFFFF;}
	.st1{fill:none;stroke:#000000;stroke-width:4.691;stroke-linecap:round;stroke-linejoin:round;stroke-miterlimit:10;}
</style>
<g id="Layer_1">
	<g>
		<path class="st0" d="M100.87,307.92v-11.01c0-0.87,0.71-1.58,1.58-1.58s1.58,0.71,1.58,1.58v11.01c0,1.67,0.63,3.61,3.71,3.61
			c3.09,0,3.71-1.94,3.71-3.61v-11.01c0-0.87,0.71-1.58,1.58-1.58s1.58,0.71,1.58,1.58v11.01c0,3.11-1.37,6.39-6.88,6.39
			C102.23,314.31,100.87,311.04,100.87,307.92z"/>
		<path class="st0" d="M125.46,298.34v14.23c0,0.87-0.71,1.58-1.58,1.58s-1.58-0.71-1.58-1.58v-14.23h-4.18
			c-0.76,0-1.39-0.63-1.39-1.39c0-0.76,0.63-1.39,1.39-1.39h11.53c0.76,0,1.39,0.63,1.39,1.39c0,0.77-0.63,1.39-1.39,1.39H125.46z"
			/>
		<path class="st0" d="M136.42,312.57c0,0.87-0.71,1.58-1.58,1.58s-1.58-0.71-1.58-1.58v-15.65c0-0.87,0.71-1.58,1.58-1.58
			s1.58,0.71,1.58,1.58V312.57z"/>
		<path class="st0" d="M149.34,310.98c0.9,0,1.53,0.66,1.53,1.48c0,0.85-0.63,1.47-1.53,1.47h-8.08c-0.9,0-1.56-0.66-1.56-1.53
			v-15.49c0-0.87,0.71-1.58,1.58-1.58s1.58,0.71,1.58,1.58v14.07H149.34z"/>
		<path class="st0" d="M156.28,312.57c0,0.87-0.71,1.58-1.58,1.58s-1.58-0.71-1.58-1.58v-15.65c0-0.87,0.71-1.58,1.58-1.58
			s1.58,0.71,1.58,1.58V312.57z"/>
		<path class="st0" d="M167.23,298.34v14.23c0,0.87-0.71,1.58-1.58,1.58s-1.58-0.71-1.58-1.58v-14.23h-4.18
			c-0.76,0-1.39-0.63-1.39-1.39c0-0.76,0.63-1.39,1.39-1.39h11.53c0.76,0,1.39,0.63,1.39,1.39c0,0.77-0.63,1.39-1.39,1.39H167.23z"
			/>
		<path class="st0" d="M180.95,302.54l4.12-6.47c0.27-0.44,0.76-0.74,1.34-0.74c0.87,0,1.58,0.71,1.58,1.58
			c0,0.3-0.08,0.63-0.25,0.85l-5.22,7.79v7.02c0,0.87-0.71,1.58-1.58,1.58s-1.58-0.71-1.58-1.58v-7.02l-5.22-7.79
			c-0.16-0.22-0.25-0.55-0.25-0.85c0-0.87,0.71-1.58,1.58-1.58c0.57,0,1.04,0.27,1.34,0.74L180.95,302.54z"/>
		<path class="st0" d="M195.63,304.75c0-6.47,3.11-9.59,8.55-9.59c3.3,0,5.46,1.31,6.58,2.95c0.22,0.33,0.3,0.6,0.3,0.9
			c0,0.79-0.66,1.45-1.47,1.45c-0.38,0-0.76-0.16-1.12-0.55c-1.12-1.23-2.29-1.91-4.29-1.91c-3.63,0-5.27,2.24-5.27,6.75
			c0,4.78,1.64,6.72,5.27,6.72c2.02,0,3.11-0.46,4.42-1.8c0.44-0.44,0.79-0.6,1.17-0.6c0.82,0,1.47,0.66,1.47,1.47
			c0,0.33-0.11,0.6-0.27,0.82c-1.31,1.75-3.88,2.95-6.8,2.95C198.74,314.31,195.63,311.45,195.63,304.75z"/>
		<path class="st0" d="M213.11,304.75c0-6.47,3.14-9.59,8.66-9.59s8.66,3.11,8.66,9.59c0,6.39-3.14,9.56-8.66,9.56
			S213.11,311.15,213.11,304.75z M216.39,304.75c0,4.51,1.78,6.72,5.38,6.72s5.38-2.21,5.38-6.72c0-4.53-1.78-6.75-5.38-6.75
			S216.39,300.22,216.39,304.75z"/>
		<path class="st0" d="M239.29,298.01c-2.27,0-3.11,1.07-3.11,2.16c0,3.58,9.97,1.91,9.97,8.74c0,3.33-2.35,5.41-6.86,5.41
			c-3.25,0-5.84-1.61-6.91-3.33c-0.14-0.22-0.22-0.49-0.22-0.76c0-0.82,0.66-1.47,1.45-1.47c0.6,0,0.93,0.33,1.2,0.6
			c1.15,1.15,2.59,2.08,4.48,2.08c2.49,0,3.69-0.82,3.69-2.51c0-3.99-9.97-2.16-9.97-8.74c0-2.7,1.94-5,6.28-5
			c2.73,0,5.11,1.01,6.2,2.57c0.16,0.25,0.27,0.55,0.27,0.87c0,0.79-0.66,1.45-1.48,1.45c-0.38,0-0.76-0.22-1.17-0.6
			C242.26,298.64,240.84,298.01,239.29,298.01z"/>
		<path class="st0" d="M255.52,298.34v14.23c0,0.87-0.71,1.58-1.58,1.58s-1.58-0.71-1.58-1.58v-14.23h-4.18
			c-0.76,0-1.39-0.63-1.39-1.39c0-0.76,0.63-1.39,1.39-1.39h11.53c0.76,0,1.39,0.63,1.39,1.39c0,0.77-0.63,1.39-1.39,1.39H255.52z"
			/>
		<path class="st0" d="M124.54,339.67v5.68c0,0.87-0.71,1.58-1.58,1.58s-1.58-0.71-1.58-1.58v-15.43c0-0.87,0.71-1.58,1.58-1.58
			h5.22c3.69,0,5.76,2.62,5.76,5.71c0,2.59-1.58,5.11-4.21,5.43l4.04,4.92c0.25,0.33,0.33,0.66,0.33,0.96
			c0,0.87-0.71,1.58-1.58,1.58c-0.46,0-0.96-0.22-1.23-0.57l-4.97-6.69H124.54z M124.54,331.18v5.71h3.69
			c1.69,0,2.43-1.39,2.43-2.84c0-1.48-0.74-2.87-2.51-2.87H124.54z"/>
		<path class="st0" d="M139.84,336.07h5.16c0.76,0,1.39,0.63,1.39,1.39c0,0.76-0.63,1.39-1.39,1.39h-5.16v5.03h7.24
			c0.79,0,1.42,0.63,1.42,1.42s-0.63,1.42-1.42,1.42h-8.82c-0.87,0-1.58-0.71-1.58-1.58v-15.21c0-0.87,0.71-1.58,1.58-1.58h8.52
			c0.79,0,1.42,0.63,1.42,1.42c0,0.79-0.63,1.42-1.42,1.42h-6.94V336.07z"/>
		<path class="st0" d="M150.26,337.54c0-6.47,3.11-9.59,8.55-9.59c3.3,0,5.46,1.31,6.58,2.95c0.22,0.33,0.3,0.6,0.3,0.9
			c0,0.79-0.66,1.45-1.47,1.45c-0.38,0-0.76-0.16-1.12-0.55c-1.12-1.23-2.29-1.91-4.29-1.91c-3.63,0-5.27,2.24-5.27,6.75
			c0,4.78,1.64,6.72,5.27,6.72c2.02,0,3.11-0.46,4.42-1.8c0.44-0.44,0.79-0.6,1.17-0.6c0.82,0,1.47,0.66,1.47,1.47
			c0,0.33-0.11,0.6-0.27,0.82c-1.31,1.75-3.88,2.95-6.8,2.95C153.37,347.1,150.26,344.23,150.26,337.54z"/>
		<path class="st0" d="M167.74,337.54c0-6.47,3.14-9.59,8.66-9.59s8.66,3.11,8.66,9.59c0,6.39-3.14,9.56-8.66,9.56
			S167.74,343.93,167.74,337.54z M171.02,337.54c0,4.51,1.78,6.72,5.38,6.72s5.38-2.21,5.38-6.72c0-4.53-1.78-6.75-5.38-6.75
			S171.02,333.01,171.02,337.54z"/>
		<path class="st0" d="M192.82,345.93l-6.2-15.62c-0.08-0.19-0.11-0.36-0.11-0.6c0-0.87,0.71-1.58,1.58-1.58
			c0.79,0,1.28,0.49,1.45,0.93l4.75,12.59l4.75-12.59c0.16-0.41,0.66-0.93,1.45-0.93c0.87,0,1.58,0.71,1.58,1.58
			c0,0.25-0.03,0.41-0.11,0.6l-6.2,15.62c-0.22,0.55-0.66,1.01-1.48,1.01C193.48,346.94,193.04,346.47,192.82,345.93z"/>
		<path class="st0" d="M207.42,336.07h5.16c0.76,0,1.39,0.63,1.39,1.39c0,0.76-0.63,1.39-1.39,1.39h-5.16v5.03h7.24
			c0.79,0,1.42,0.63,1.42,1.42s-0.63,1.42-1.42,1.42h-8.82c-0.87,0-1.58-0.71-1.58-1.58v-15.21c0-0.87,0.71-1.58,1.58-1.58h8.52
			c0.79,0,1.42,0.63,1.42,1.42c0,0.79-0.63,1.42-1.42,1.42h-6.94V336.07z"/>
		<path class="st0" d="M221.7,339.67v5.68c0,0.87-0.71,1.58-1.58,1.58s-1.58-0.71-1.58-1.58v-15.43c0-0.87,0.71-1.58,1.58-1.58h5.22
			c3.69,0,5.76,2.62,5.76,5.71c0,2.59-1.58,5.11-4.21,5.43l4.04,4.92c0.25,0.33,0.33,0.66,0.33,0.96c0,0.87-0.71,1.58-1.58,1.58
			c-0.46,0-0.96-0.22-1.23-0.57l-4.97-6.69H221.7z M221.7,331.18v5.71h3.69c1.69,0,2.43-1.39,2.43-2.84c0-1.48-0.74-2.87-2.51-2.87
			H221.7z"/>
		<path class="st0" d="M239.76,335.33l4.12-6.47c0.27-0.44,0.76-0.74,1.34-0.74c0.87,0,1.58,0.71,1.58,1.58
			c0,0.3-0.08,0.63-0.25,0.85l-5.22,7.78v7.02c0,0.87-0.71,1.58-1.58,1.58s-1.58-0.71-1.58-1.58v-7.02l-5.22-7.78
			c-0.16-0.22-0.25-0.55-0.25-0.85c0-0.87,0.71-1.58,1.58-1.58c0.57,0,1.04,0.27,1.34,0.74L239.76,335.33z"/>
	</g>
</g>
<g id="Layer_2">
	<g>
		<path class="st0" d="M255.84,176.85l-4.74,1.13c15.24-16.92,23.58-38.57,23.58-61.51c0-24.59-9.57-47.7-26.96-65.08
			c-27.31-27.31-69.15-34.66-104.11-18.3c-1.75,0.82-2.5,2.9-1.69,4.65c0.82,1.75,2.9,2.5,4.65,1.69
			c32.31-15.12,70.97-8.32,96.2,16.91c16.06,16.06,24.91,37.42,24.91,60.14c0,20.89-7.5,40.62-21.19,56.15l0.99-4.13
			c0.45-1.88-0.71-3.76-2.59-4.21c-1.88-0.45-3.76,0.71-4.21,2.59l-3.95,16.52c-0.28,1.18,0.07,2.43,0.93,3.29
			c0.66,0.66,1.56,1.02,2.47,1.02c0.27,0,0.54-0.03,0.81-0.1l16.52-3.95c1.88-0.45,3.04-2.34,2.59-4.21
			C259.61,177.56,257.72,176.4,255.84,176.85z"/>
		<path class="st0" d="M223.64,200.45c-0.82-1.75-2.9-2.5-4.65-1.69c-32.31,15.12-70.97,8.32-96.2-16.91
			c-31.86-31.86-33.09-82.92-3.72-116.29l-0.99,4.12c-0.45,1.88,0.71,3.76,2.59,4.21c0.27,0.07,0.55,0.1,0.82,0.1
			c1.58,0,3.01-1.08,3.4-2.68l3.95-16.52c0.28-1.18-0.07-2.43-0.93-3.29c-0.86-0.86-2.1-1.21-3.29-0.93l-16.52,3.95
			c-1.88,0.45-3.04,2.34-2.59,4.21c0.45,1.88,2.33,3.04,4.21,2.59l4.73-1.13c-32.46,36.09-31.34,91.88,3.38,126.6
			c17.62,17.62,41.28,26.93,65.24,26.93c13.18,0,26.46-2.82,38.87-8.63C223.7,204.28,224.46,202.2,223.64,200.45z"/>
		<path class="st1" d="M207.18,136.94"/>
		<path class="st1" d="M144.73,136.94"/>
		<g>
			<path class="st0" d="M192.59,130.99h-46.62c-1.3,0-2.35-1.05-2.35-2.35s1.05-2.35,2.35-2.35h57.73c0.06,0,0.12,0.01,0.19,0.02
				c1.5-0.25,3.05-0.39,4.62-0.39c5.21,0,10.09,1.45,14.26,3.97l11.53-33.65l0-0.02h-94.67l-13.21,39.63h60.9
				C188.85,134.01,190.63,132.38,192.59,130.99z M153.86,101.01h18.36c1.3,0,2.35,1.05,2.35,2.35s-1.05,2.35-2.35,2.35h-18.36
				c-1.3,0-2.35-1.05-2.35-2.35S152.57,101.01,153.86,101.01z M149.69,114.01h57.73c1.3,0,2.35,1.05,2.35,2.35s-1.05,2.35-2.35,2.35
				h-57.73c-1.3,0-2.35-1.05-2.35-2.35S148.39,114.01,149.69,114.01z"/>
			<path class="st0" d="M218.41,179.33h8.91l-0.8-4.86C224.14,176.52,221.4,178.17,218.41,179.33z"/>
			<path class="st0" d="M181.82,160.65h-33.2c-1.3,0-2.35-1.05-2.35-2.35s1.05-2.35,2.35-2.35H181c-0.07-0.8-0.11-1.6-0.11-2.41
				c0-1.48,0.12-2.94,0.35-4.36h-36.09c-1.3,0-2.35-1.05-2.35-2.35s1.05-2.35,2.35-2.35h37.28c0.81-2.31,1.91-4.49,3.26-6.48h-59.05
				l6.66,41.31h65.32C190.42,176.17,184.1,169.23,181.82,160.65z"/>
		</g>
		<g>
			<path class="st0" d="M158.43,78.6h-2.97l0.52,4.17h2.97c1.51,0,2-0.81,1.84-2.08C160.64,79.38,159.84,78.6,158.43,78.6z"/>
			<path class="st0" d="M159.45,74.68c-0.14-1.11-0.78-1.81-2.12-1.81h-2.59l0.45,3.63h2.59C159.13,76.51,159.59,75.75,159.45,74.68
				z"/>
			<path class="st0" d="M227.32,55.23h-94.03l6.93,38.83h93.7L227.32,55.23z M159.23,84.97h-4.21c-0.68,0-1.3-0.55-1.39-1.23
				l-1.48-11.84c-0.08-0.68,0.4-1.23,1.08-1.23h3.82c3.21,0,4.57,1.74,4.82,3.7c0.18,1.4-0.39,2.47-1.21,2.89
				c1.67,0.62,2.43,1.76,2.64,3.42C163.63,83.27,162.29,84.97,159.23,84.97z M167.12,85.14c-0.68,0-1.3-0.55-1.39-1.23l-1.52-12.18
				c-0.08-0.68,0.4-1.23,1.08-1.23s1.3,0.55,1.39,1.23l1.52,12.18C168.28,84.59,167.8,85.14,167.12,85.14z M178.37,84.97h-6.29
				c-0.7,0-1.28-0.51-1.36-1.19l-1.51-12.05c-0.08-0.68,0.4-1.23,1.08-1.23s1.3,0.55,1.39,1.23l1.37,10.95h5.03
				c0.7,0,1.25,0.51,1.33,1.15C179.5,84.48,179.08,84.97,178.37,84.97z M188.8,84.97h-6.29c-0.7,0-1.28-0.51-1.36-1.19l-1.51-12.05
				c-0.09-0.68,0.4-1.23,1.08-1.23s1.3,0.55,1.39,1.23l1.37,10.95h5.03c0.7,0,1.25,0.51,1.33,1.15
				C189.93,84.48,189.5,84.97,188.8,84.97z"/>
		</g>
		<path class="st0" d="M208.51,129.61c-13.2,0-23.94,10.74-23.94,23.94s10.74,23.94,23.94,23.94s23.94-10.74,23.94-23.94
			S221.71,129.61,208.51,129.61z M217.09,147.32c0,0.25-0.2,0.45-0.45,0.45h-3.56c-0.59,0-1-0.43-1-1.04v-2.5
			c-2.05-1.13-4.18-1.32-5.61-0.51c-0.95,0.55-1.48,1.5-1.48,2.69v0.31c0,1.56,1,2.27,3.26,3.72c0.57,0.36,1.19,0.77,1.87,1.23
			c0.33,0.23,0.67,0.46,1.02,0.7c2.79,1.88,5.95,4.02,5.95,7.98v1.25c0,3.26-2.43,5.92-6.18,6.78c-0.22,0.05-0.26,0.1-0.26,0.1
			c0,0-0.02,0.03-0.02,0.17v1.72c0,0.62-0.42,1.04-1.04,1.04h-2.11c-0.62,0-1.04-0.42-1.04-1.04v-1.72c0-0.16,0-0.2-0.28-0.27
			c-3.83-0.95-6.22-3.55-6.22-6.78v-1.84c0-0.25,0.2-0.45,0.45-0.45h3.56c0.6,0,1.04,0.44,1.04,1.04v0.31
			c0,1.17,0.47,2.09,1.35,2.64c1.36,0.84,3.48,0.72,5.73-0.33v-2.62c0-1.59-1.36-2.45-3.41-3.75c-0.58-0.37-1.2-0.76-1.83-1.2
			c-0.3-0.21-0.61-0.42-0.92-0.62c-2.93-1.97-5.97-4.02-5.97-8.05v-1.25c0-3.21,2.47-5.94,6.15-6.78c0.22-0.05,0.26-0.1,0.26-0.1
			c0,0,0.02-0.03,0.02-0.17v-1.72c0-0.62,0.42-1.04,1.04-1.04h2.15c0.62,0,1.04,0.42,1.04,1.04v1.72c0,0.14,0.02,0.17,0.02,0.17
			c0,0,0.04,0.05,0.26,0.1c3.72,0.86,6.22,3.58,6.22,6.78V147.32z"/>
	</g>
</g>
</svg>
