<?xml version="1.0" encoding="utf-8"?>
<!-- Generator: Adobe Illustrator 27.9.0, SVG Export Plug-In . SVG Version: 6.00 Build 0)  -->
<svg version="1.1" xmlns="http://www.w3.org/2000/svg" xmlns:xlink="http://www.w3.org/1999/xlink" x="0px" y="0px"
	 viewBox="0 0 360 360" style="enable-background:new 0 0 360 360;" xml:space="preserve">
<style type="text/css">
	.st0{fill:#FFFFFF;}
</style>
<g id="Layer_1">
</g>
<g id="Layer_2">
	<g>
		<g>
			<path class="st0" d="M180,246.81c-0.54-1.09-1.4-1.91-2.41-2.39l-0.12-15.11c-0.01-1.25-1.03-2.26-2.28-2.26c0,0-0.01,0-0.02,0
				c-1.25,0.01-2.27,1.04-2.25,2.29l0.12,15.1c-2.56,1.28-3.61,4.38-2.34,6.94c1.26,2.57,4.37,3.63,6.95,2.37
				C180.21,252.5,181.26,249.38,180,246.81z M176.79,252.06c-0.47,0.23-0.96,0.34-1.45,0.34c-1.22,0-2.39-0.67-2.97-1.84
				c-0.8-1.64-0.13-3.61,1.51-4.42c1.63-0.8,3.61-0.13,4.42,1.51C179.11,249.28,178.43,251.26,176.79,252.06z"/>
			<path class="st0" d="M195.16,246.69c-0.53-1.09-1.4-1.9-2.41-2.39l-0.12-15.11c-0.01-1.25-1.02-2.25-2.26-2.25
				c-0.01,0-0.02,0-0.02,0c-1.26,0.01-2.27,1.03-2.26,2.29l0.12,15.1c-2.56,1.27-3.61,4.37-2.35,6.94c1.27,2.57,4.38,3.63,6.95,2.37
				C195.37,252.37,196.43,249.27,195.16,246.69z M191.96,251.94c-0.47,0.23-0.96,0.34-1.45,0.34c-1.22,0-2.39-0.68-2.96-1.84
				c-0.81-1.64-0.14-3.62,1.5-4.42c1.64-0.8,3.61-0.13,4.42,1.5C194.27,249.16,193.59,251.14,191.96,251.94z"/>
			<path class="st0" d="M224.62,184.29c-2.83,12.34-10.43,22.87-21.27,29.44c-1.28,0.78-1.76,2.41-1.05,3.73
				c0.75,1.41,2.53,1.92,3.9,1.1c12.2-7.38,20.74-19.21,23.89-33.1c0.35-1.56-0.69-3.08-2.27-3.35c-0.16-0.02-0.32-0.04-0.47-0.04
				C226.06,182.08,224.93,182.98,224.62,184.29"/>
			<path class="st0" d="M198.45,190.56c-1.02-1-2.62-1.07-3.74-0.17c-3.62,2.89-8.08,4.49-12.79,4.52
				c-5.71,0.04-11.12-2.24-15.06-6.31c0.38-0.79,0.6-1.67,0.6-2.61c-0.03-3.22-2.65-5.82-5.87-5.82c-0.01,0-0.03,0-0.04,0
				c-3.24,0.02-5.85,2.67-5.82,5.91c0.02,3.24,2.67,5.84,5.91,5.82c0.21,0,0.41-0.01,0.62-0.03c5.05,5.55,12.18,8.69,19.71,8.64
				c6.02-0.04,11.7-2.09,16.32-5.8C199.57,193.67,199.63,191.72,198.45,190.56z M161.62,189.79c-0.01,0-0.02,0-0.03,0
				c-2.06,0-3.73-1.66-3.74-3.71c-0.01-2.07,1.65-3.76,3.72-3.78c2.07-0.01,3.76,1.64,3.77,3.71S163.69,189.78,161.62,189.79z"/>
			<path class="st0" d="M167.72,205.19c-7.98-3.03-14.46-9-18.16-16.75c0.69-0.67,1.23-1.53,1.52-2.53
				c0.92-3.11-0.85-6.37-3.97-7.28c-0.55-0.16-1.11-0.24-1.66-0.24c-2.54,0-4.87,1.66-5.62,4.21c-0.92,3.11,0.86,6.37,3.97,7.28
				c0.09,0.03,0.19,0.05,0.29,0.08c4.24,9.47,11.99,16.79,21.6,20.45c1.52,0.58,3.23-0.26,3.68-1.83
				C169.78,207.2,169.08,205.71,167.72,205.19z M149.05,185.32c-0.48,1.63-1.97,2.69-3.59,2.69c-0.35,0-0.71-0.05-1.07-0.16
				c-1.98-0.59-3.11-2.67-2.53-4.65c0.59-1.98,2.67-3.11,4.65-2.53C148.5,181.25,149.64,183.33,149.05,185.32z"/>
			<path class="st0" d="M174.54,220.65c-6.97-0.72-13.76-3.03-19.77-6.74c-11.42-7.06-19.19-18.58-21.48-31.78
				c0.75-0.47,1.41-1.11,1.91-1.91c1.7-2.75,0.85-6.37-1.91-8.07c-0.96-0.6-2.03-0.88-3.08-0.88c-1.96,0-3.88,0.99-4.99,2.78
				c-1.71,2.76-0.85,6.37,1.91,8.07c0.17,0.11,0.36,0.21,0.54,0.3c2.41,15.05,11.19,28.22,24.16,36.24
				c6.74,4.16,14.36,6.75,22.19,7.55c1.57,0.16,2.94-1.06,3.02-2.64v-0.07C177.11,222.04,176,220.8,174.54,220.65z M130.21,180.89
				c-0.67,0-1.36-0.18-1.97-0.56c-1.76-1.09-2.31-3.39-1.22-5.15c1.09-1.76,3.4-2.31,5.16-1.22c1.76,1.09,2.3,3.39,1.22,5.15
				C132.69,180.26,131.47,180.89,130.21,180.89z"/>
			<path class="st0" d="M173.12,161.68v25.99c0,1.23,0.99,2.22,2.22,2.22c1.22,0,2.22-0.99,2.22-2.22v-25.99
				c0-1.22-0.99-2.22-2.22-2.22C174.11,159.46,173.12,160.46,173.12,161.68"/>
			<path class="st0" d="M188.29,161.68v25.99c0,1.23,0.99,2.22,2.22,2.22c1.23,0,2.22-0.99,2.22-2.22v-25.99
				c0-1.22-0.99-2.22-2.22-2.22C189.28,159.46,188.29,160.46,188.29,161.68"/>
			<path class="st0" d="M210.26,153.92c-1.2,0.8-1.61,2.4-0.9,3.66c3.68,6.53,5.06,14.09,3.86,21.57
				c-2.26,14.16-13.27,25.15-27.2,27.52c-1.43,0.24-2.43,1.56-2.3,3.01c0.16,1.64,1.67,2.78,3.28,2.51
				c16.26-2.78,29.11-15.62,31.74-32.15c1.39-8.71-0.2-17.53-4.49-25.15c-0.52-0.92-1.47-1.43-2.44-1.43
				C211.28,153.44,210.74,153.59,210.26,153.92"/>
			<path class="st0" d="M158.09,127.68c-1.01,1.23-0.82,3.04,0.41,4.05c6.13,5.01,13.93,8.06,23.2,9.06
				c7.54,0.81,13.91,3.14,18.93,6.92c0.52,0.39,1.14,0.58,1.75,0.58c0.87,0,1.72-0.4,2.28-1.15c0.96-1.27,0.7-3.07-0.57-4.03
				c-5.86-4.41-13.18-7.12-21.77-8.04c-8.13-0.88-14.92-3.5-20.17-7.79c-0.53-0.44-1.18-0.65-1.82-0.65
				C159.49,126.62,158.66,126.98,158.09,127.68"/>
			<path class="st0" d="M136.35,113.01c-1.55,0.38-2.48,1.99-2.02,3.51c5.17,16.84,18.27,29.59,34.57,34.59
				c4.35,1.33,8.94,2.12,13.66,2.28c0.02,0,0.05,0,0.08,0c10.5,0.46,19.26,8.92,19.86,19.53c0.19,3.45-0.46,6.86-1.88,9.93
				c-0.6,1.29-0.15,2.82,1.06,3.57c1.41,0.87,3.29,0.35,3.99-1.16c1.65-3.53,2.49-7.4,2.46-11.34c-0.08-9.15-4.81-17.17-11.94-21.86
				c-3.74-2.46-8.14-3.99-12.87-4.27c-0.41-0.01-0.81-0.03-1.21-0.04c-19.71-0.93-36.6-14-42.41-32.82
				c-0.37-1.21-1.48-2.01-2.69-2.01C136.8,112.93,136.58,112.96,136.35,113.01"/>
			<path class="st0" d="M157.45,89.95c-1.64,3.53-2.49,7.4-2.45,11.35c0.07,9.14,4.8,17.17,11.93,21.85
				c3.74,2.46,8.15,3.99,12.87,4.27c0.41,0.01,0.81,0.02,1.21,0.04c19.71,0.93,36.61,14,42.41,32.82c0.44,1.44,1.91,2.29,3.36,1.93
				c1.55-0.39,2.48-1.99,2.02-3.51c-5.17-16.85-18.27-29.6-34.57-34.59c-4.36-1.34-8.94-2.13-13.66-2.29c-0.02,0-0.05,0-0.08,0
				c-10.51-0.45-19.25-8.92-19.86-19.53c-0.2-3.45,0.46-6.86,1.88-9.94c0.6-1.28,0.15-2.82-1.06-3.56
				c-0.47-0.29-0.98-0.43-1.49-0.43C158.92,88.36,157.92,88.94,157.45,89.95"/>
			<path class="st0" d="M173.12,88.92v25.99c0,1.22,0.99,2.22,2.22,2.22c1.22,0,2.22-1,2.22-2.22V88.92c0-1.23-0.99-2.22-2.22-2.22
				C174.11,86.7,173.12,87.69,173.12,88.92"/>
			<path class="st0" d="M188.29,88.92v25.99c0,1.22,0.99,2.22,2.22,2.22c1.23,0,2.22-1,2.22-2.22V88.92c0-1.23-0.99-2.22-2.22-2.22
				C189.28,86.7,188.29,87.69,188.29,88.92"/>
			<path class="st0" d="M201.5,83.31c-0.2,0-0.41,0.01-0.62,0.04c-5.01-5.51-12.06-8.64-19.52-8.64c-0.07,0-0.13,0-0.2,0
				c-6.01,0.05-11.7,2.09-16.31,5.8c-1.29,1.04-1.35,2.99-0.17,4.15c1.02,1,2.62,1.06,3.74,0.17c3.62-2.9,8.08-4.48,12.79-4.52
				c5.7-0.05,11.12,2.24,15.06,6.3c-0.39,0.79-0.6,1.67-0.59,2.61c0.02,3.24,2.67,5.84,5.91,5.82c3.24-0.02,5.84-2.67,5.81-5.91
				C207.38,85.89,204.74,83.28,201.5,83.31z M201.57,92.92c-0.01,0-0.01,0-0.02,0c-2.06,0-3.74-1.65-3.75-3.71
				c-0.01-2.07,1.64-3.76,3.71-3.78c2.07-0.02,3.76,1.64,3.77,3.71C205.31,91.22,203.64,92.9,201.57,92.92z"/>
			<path class="st0" d="M219.81,87.29c-0.1-0.03-0.19-0.05-0.29-0.08c-3.91-9.61-11.41-17.19-20.89-21.17
				c-0.36-0.16-0.73-0.22-1.09-0.22c-1.17,0-2.27,0.74-2.66,1.92c-0.46,1.37,0.2,2.88,1.53,3.45c7.87,3.29,14.15,9.48,17.59,17.35
				c-0.71,0.65-1.28,1.49-1.6,2.48c-1.02,3.07,0.64,6.4,3.72,7.41c3.07,1.03,6.4-0.64,7.41-3.71
				C224.54,91.63,222.88,88.31,219.81,87.29z M221.51,94.04c-0.52,1.57-1.99,2.57-3.56,2.57c-0.39,0-0.79-0.06-1.17-0.19
				c-1.96-0.65-3.03-2.77-2.38-4.74c0.65-1.96,2.78-3.03,4.74-2.38C221.1,89.95,222.17,92.08,221.51,94.04z"/>
			<path class="st0" d="M177.04,62.85c-16.32,2.37-29.5,14.88-32.55,31.34c-1.61,8.67-0.24,17.53,3.85,25.26
				c0.77,1.44,2.6,1.92,3.98,1.05c1.22-0.77,1.67-2.36,0.99-3.63c-3.52-6.62-4.71-14.22-3.33-21.66
				c2.62-14.09,13.91-24.81,27.89-26.82c1.44-0.21,2.47-1.5,2.38-2.95c-0.1-1.5-1.35-2.62-2.81-2.62
				C177.32,62.82,177.18,62.83,177.04,62.85"/>
			<path class="st0" d="M155.11,57.88c-11.85,7.93-19.84,20.13-22.36,34.15c-0.28,1.57,0.83,3.04,2.42,3.24
				c1.48,0.18,2.84-0.84,3.1-2.32c2.26-12.47,9.37-23.32,19.9-30.39c1.24-0.83,1.64-2.48,0.88-3.77c-0.53-0.89-1.46-1.38-2.42-1.38
				C156.11,57.41,155.58,57.56,155.11,57.88"/>
			<path class="st0" d="M236.31,96.09c-0.17-0.12-0.34-0.22-0.53-0.32c-1.67-15.15-9.76-28.74-22.33-37.39
				c-6.53-4.5-14.01-7.46-21.78-8.65c-0.14-0.02-0.28-0.03-0.41-0.03c-1.39,0-2.59,1.08-2.73,2.51l-0.01,0.08
				c-0.14,1.46,0.9,2.76,2.35,2.98c6.93,1.07,13.59,3.71,19.41,7.72c11.05,7.62,18.24,19.51,19.88,32.8c-0.78,0.42-1.46,1.03-2,1.8
				c-1.84,2.67-1.16,6.32,1.51,8.16c2.66,1.84,6.32,1.17,8.16-1.5C239.65,101.58,238.98,97.93,236.31,96.09z M236.07,103.04
				c-0.73,1.06-1.9,1.62-3.09,1.62c-0.73,0-1.47-0.21-2.12-0.66c-1.7-1.17-2.13-3.51-0.96-5.21c1.17-1.7,3.5-2.13,5.21-0.96
				C236.81,99.01,237.24,101.34,236.07,103.04z"/>
			<path class="st0" d="M180,23.93c-0.91-1.83-2.75-2.9-4.66-2.9c-0.77,0-1.55,0.17-2.29,0.54c-2.57,1.27-3.63,4.38-2.36,6.95
				c0.53,1.09,1.4,1.9,2.41,2.39l0.12,15.11c0.01,1.26,1.04,2.26,2.29,2.26c1.26-0.01,2.27-1.04,2.26-2.3l-0.12-15.1
				C180.21,29.6,181.26,26.5,180,23.93z M176.79,29.19c-0.47,0.23-0.96,0.34-1.45,0.34c-1.21,0-2.39-0.68-2.96-1.85
				c-0.8-1.63-0.13-3.61,1.51-4.41c1.63-0.81,3.61-0.13,4.42,1.5C179.11,26.41,178.43,28.38,176.79,29.19z"/>
			<path class="st0" d="M195.16,23.82c-0.9-1.83-2.74-2.9-4.66-2.9c-0.77,0-1.55,0.17-2.29,0.53c-2.57,1.27-3.63,4.38-2.37,6.95
				c0.53,1.09,1.4,1.9,2.42,2.38l0.12,15.11c0.01,1.26,1.04,2.27,2.29,2.26c1.26-0.01,2.27-1.04,2.25-2.29l-0.11-15.1
				C195.37,29.49,196.43,26.38,195.16,23.82z M191.96,29.07c-0.47,0.23-0.96,0.34-1.45,0.34c-1.22,0-2.39-0.68-2.96-1.85
				c-0.81-1.63-0.14-3.61,1.5-4.42c1.64-0.8,3.61-0.13,4.42,1.5C194.27,26.29,193.59,28.27,191.96,29.07z"/>
		</g>
		<g>
			<path class="st0" d="M54.01,338.93v-18.61h1.24l10.29,16.04v-16.04h1.47v18.61H65.8l-10.32-16.04v16.04H54.01z"/>
			<path class="st0" d="M79.58,339.03c-0.41,0-0.83-0.03-1.28-0.1c-0.45-0.07-0.86-0.22-1.23-0.44c-0.37-0.23-0.68-0.57-0.91-1.04
				s-0.36-1.09-0.36-1.89V323.9c0-0.91,0.17-1.63,0.52-2.15c0.35-0.52,0.79-0.9,1.32-1.12c0.53-0.22,1.09-0.32,1.66-0.3
				c1.44,0.02,2.79,0.04,4.04,0.08c1.26,0.03,2.47,0.08,3.64,0.13v1.14h-7.38c-0.71,0-1.28,0.19-1.7,0.57
				c-0.42,0.38-0.63,0.99-0.63,1.84v4.94l8.64,0.13v1.09l-8.64,0.13v4.92c0,0.69,0.12,1.21,0.37,1.55s0.56,0.56,0.94,0.67
				c0.38,0.11,0.78,0.17,1.21,0.17h7.2v1.14c-1.18,0.05-2.41,0.09-3.68,0.13S80.8,339,79.58,339.03z"/>
			<path class="st0" d="M99.2,339.03c-0.41,0-0.83-0.03-1.28-0.1c-0.45-0.07-0.86-0.22-1.23-0.44c-0.37-0.23-0.68-0.57-0.91-1.04
				s-0.36-1.09-0.36-1.89V323.9c0-0.91,0.17-1.63,0.52-2.15c0.35-0.52,0.79-0.9,1.32-1.12c0.53-0.22,1.09-0.32,1.66-0.3
				c1.44,0.02,2.79,0.04,4.04,0.08c1.26,0.03,2.47,0.08,3.64,0.13v1.14h-7.38c-0.71,0-1.28,0.19-1.7,0.57
				c-0.42,0.38-0.63,0.99-0.63,1.84v4.94l8.64,0.13v1.09l-8.64,0.13v4.92c0,0.69,0.12,1.21,0.37,1.55s0.56,0.56,0.94,0.67
				c0.38,0.11,0.78,0.17,1.21,0.17h7.2v1.14c-1.18,0.05-2.41,0.09-3.68,0.13S100.42,339,99.2,339.03z"/>
			<path class="st0" d="M115.3,338.93v-18.61h7.2c2.16,0,3.71,0.79,4.63,2.36c0.92,1.57,1.38,3.89,1.38,6.95
				c0,1.91-0.22,3.56-0.67,4.94s-1.12,2.46-2,3.22c-0.89,0.76-2,1.14-3.33,1.14H115.3z M116.77,337.61h5.63c1.06,0,1.94-0.33,2.62-1
				c0.69-0.67,1.19-1.6,1.52-2.8s0.49-2.59,0.49-4.18c0-1.93-0.16-3.47-0.47-4.64s-0.81-2.02-1.5-2.55c-0.68-0.53-1.58-0.8-2.67-0.8
				h-5.63V337.61z"/>
			<path class="st0" d="M143.31,339.08c-1.13,0-2.11-0.13-2.93-0.38c-0.82-0.25-1.5-0.71-2.03-1.38c-0.53-0.67-0.93-1.63-1.18-2.88
				c-0.25-1.25-0.38-2.87-0.38-4.87c0-1.88,0.13-3.43,0.39-4.65c0.26-1.22,0.66-2.18,1.2-2.88c0.54-0.69,1.23-1.18,2.08-1.46
				c0.85-0.28,1.85-0.42,3.02-0.42c0.42,0,0.94,0.03,1.55,0.08c0.61,0.05,1.23,0.12,1.88,0.22s1.23,0.2,1.77,0.32v1.09
				c-0.27-0.05-0.68-0.11-1.22-0.16c-0.54-0.06-1.14-0.11-1.81-0.15c-0.67-0.04-1.33-0.06-1.99-0.06c-0.98,0-1.81,0.11-2.5,0.34
				c-0.68,0.23-1.24,0.63-1.66,1.22s-0.73,1.4-0.94,2.46c-0.2,1.06-0.3,2.41-0.3,4.07c0,1.74,0.1,3.15,0.29,4.22
				c0.19,1.07,0.5,1.9,0.91,2.47s0.96,0.97,1.63,1.18c0.68,0.21,1.5,0.32,2.46,0.32c1.27,0,2.31-0.03,3.13-0.1
				c0.82-0.07,1.48-0.14,1.99-0.23v1.09c-0.79,0.17-1.68,0.3-2.66,0.41C145.04,339.03,144.14,339.08,143.31,339.08z"/>
			<path class="st0" d="M155.93,338.93l6.57-18.61h1.9l6.56,18.61h-1.54l-2.05-5.78h-7.86l-2.03,5.78H155.93z M159.89,331.83h7.05
				l-3.5-10.19L159.89,331.83z"/>
			<path class="st0" d="M179.08,338.93v-18.61h7.25c0.54,0,1.09,0.07,1.63,0.22s1.06,0.42,1.52,0.82c0.46,0.41,0.84,0.99,1.13,1.75
				c0.29,0.76,0.43,1.77,0.43,3.02c0,1.27-0.15,2.29-0.46,3.08c-0.3,0.79-0.7,1.39-1.19,1.81c-0.49,0.42-1.02,0.71-1.58,0.86
				s-1.1,0.23-1.61,0.23c-0.27,0-0.66-0.01-1.17-0.03c-0.51-0.02-1.06-0.04-1.65-0.06c-0.59-0.03-1.15-0.05-1.66-0.08
				s-0.91-0.05-1.18-0.06v7.05H179.08z M180.55,330.79h5.47c0.64,0,1.23-0.13,1.76-0.41c0.53-0.27,0.96-0.74,1.29-1.41
				c0.33-0.67,0.49-1.62,0.49-2.85c0-1.2-0.16-2.12-0.48-2.78c-0.32-0.65-0.73-1.1-1.23-1.34s-1.04-0.37-1.63-0.37h-5.68V330.79z"/>
			<path class="st0" d="M199.33,338.93v-18.61h1.47v18.61H199.33z"/>
			<path class="st0" d="M214.31,338.93v-17.29h-5.96v-1.32h13.38v1.32h-5.96v17.29H214.31z"/>
			<path class="st0" d="M226.93,338.93l6.57-18.61h1.9l6.56,18.61h-1.54l-2.05-5.78h-7.86l-2.03,5.78H226.93z M230.89,331.83h7.05
				l-3.5-10.19L230.89,331.83z"/>
			<path class="st0" d="M253.62,338.93c-0.66,0-1.25-0.1-1.79-0.3c-0.53-0.2-0.96-0.56-1.28-1.08c-0.32-0.51-0.48-1.23-0.48-2.14
				v-15.08h1.47v14.9c0,0.66,0.11,1.16,0.34,1.5s0.52,0.56,0.88,0.67c0.36,0.11,0.73,0.16,1.12,0.16h6.89v1.37H253.62z"/>
			<path class="st0" d="M268.2,338.35v-2.28c0-0.42,0.2-0.63,0.61-0.63h2.18c0.42,0,0.63,0.21,0.63,0.63v2.28
				c0,0.39-0.21,0.58-0.63,0.58h-2.18c-0.19,0-0.33-0.05-0.44-0.17C268.25,338.66,268.2,338.52,268.2,338.35z"/>
			<path class="st0" d="M279.15,338.93l6.26-18.55h4.03l6.03,18.55h-3.78l-1.32-4.11h-6.08l-1.34,4.11H279.15z M285.23,331.68h4.31
				l-2.08-6.64L285.23,331.68z"/>
			<path class="st0" d="M302.44,338.93v-18.55h3.55v18.55H302.44z"/>
		</g>
	</g>
</g>
</svg>
