<?xml version="1.0" encoding="utf-8"?>
<!-- Generator: Adobe Illustrator 27.9.0, SVG Export Plug-In . SVG Version: 6.00 Build 0)  -->
<svg version="1.1" id="Layer_1" xmlns="http://www.w3.org/2000/svg" xmlns:xlink="http://www.w3.org/1999/xlink" x="0px" y="0px"
	 viewBox="0 0 360 360" style="enable-background:new 0 0 360 360;" xml:space="preserve">
<style type="text/css">
	.st0{fill:#FFFFFF;}
</style>
<g>
	<path class="st0" d="M104.01,286.19h5.16c0.76,0,1.39,0.63,1.39,1.39c0,0.77-0.63,1.39-1.39,1.39h-5.16V294h7.24
		c0.79,0,1.42,0.63,1.42,1.42c0,0.79-0.63,1.42-1.42,1.42h-8.82c-0.87,0-1.58-0.71-1.58-1.58v-15.21c0-0.88,0.71-1.58,1.58-1.58
		h8.52c0.79,0,1.42,0.63,1.42,1.42c0,0.79-0.63,1.42-1.42,1.42h-6.94V286.19z"/>
	<path class="st0" d="M120.32,296.05l-6.2-15.62c-0.08-0.19-0.11-0.35-0.11-0.6c0-0.88,0.71-1.58,1.58-1.58
		c0.79,0,1.28,0.49,1.45,0.93l4.75,12.59l4.75-12.59c0.16-0.41,0.66-0.93,1.45-0.93c0.87,0,1.58,0.71,1.58,1.58
		c0,0.25-0.03,0.41-0.11,0.6l-6.2,15.62c-0.22,0.55-0.66,1.01-1.48,1.01C120.97,297.06,120.54,296.6,120.32,296.05z"/>
	<path class="st0" d="M137.21,287.67c0-6.47,3.11-9.59,8.55-9.59c3.3,0,5.46,1.31,6.58,2.95c0.22,0.33,0.3,0.6,0.3,0.9
		c0,0.79-0.66,1.45-1.47,1.45c-0.38,0-0.76-0.16-1.12-0.55c-1.12-1.23-2.29-1.91-4.29-1.91c-3.63,0-5.27,2.24-5.27,6.75
		c0,4.78,1.64,6.72,5.27,6.72c2.02,0,3.11-0.46,4.42-1.8c0.44-0.44,0.79-0.6,1.17-0.6c0.82,0,1.47,0.65,1.47,1.47
		c0,0.33-0.11,0.6-0.27,0.82c-1.31,1.75-3.88,2.95-6.8,2.95C140.32,297.23,137.21,294.36,137.21,287.67z"/>
	<path class="st0" d="M169.55,295.48c0,0.87-0.71,1.58-1.58,1.58s-1.58-0.71-1.58-1.58v-6.58h-7.81v6.58c0,0.87-0.71,1.58-1.58,1.58
		s-1.58-0.71-1.58-1.58v-15.65c0-0.88,0.71-1.58,1.58-1.58s1.58,0.71,1.58,1.58V286h7.81v-6.17c0-0.88,0.71-1.58,1.58-1.58
		s1.58,0.71,1.58,1.58V295.48z"/>
	<path class="st0" d="M176.41,292.06l-1.67,3.96c-0.25,0.57-0.76,1.04-1.47,1.04c-0.85,0-1.56-0.71-1.56-1.56
		c0-0.16,0.03-0.38,0.11-0.57l6.45-15.71c0.16-0.38,0.6-0.98,1.45-0.98s1.28,0.6,1.45,0.98l6.45,15.71
		c0.08,0.19,0.11,0.41,0.11,0.57c0,0.85-0.71,1.56-1.56,1.56c-0.71,0-1.23-0.46-1.47-1.04l-1.67-3.96H176.41z M179.72,283.43
		l-2.24,5.73h4.48L179.72,283.43z"/>
	<path class="st0" d="M193.06,289.8v5.68c0,0.87-0.71,1.58-1.58,1.58s-1.58-0.71-1.58-1.58v-15.43c0-0.88,0.71-1.58,1.58-1.58h5.22
		c3.69,0,5.76,2.62,5.76,5.71c0,2.6-1.58,5.11-4.21,5.44l4.04,4.92c0.25,0.33,0.33,0.66,0.33,0.96c0,0.87-0.71,1.58-1.58,1.58
		c-0.46,0-0.96-0.22-1.23-0.57l-4.97-6.69H193.06z M193.06,281.3v5.71h3.69c1.69,0,2.43-1.39,2.43-2.84c0-1.47-0.74-2.87-2.51-2.87
		H193.06z"/>
	<path class="st0" d="M217.53,289.77h-3.71c-0.76,0-1.39-0.63-1.39-1.39c0-0.77,0.63-1.39,1.39-1.39h5.3c0.76,0,1.5,0.65,1.5,1.45
		v4.37c0,0.63-0.14,1.04-0.46,1.45c-1.31,1.75-4.21,2.98-7.13,2.98c-5.44,0-8.55-2.87-8.55-9.56c0-6.47,3.11-9.59,8.55-9.59
		c3.3,0,5.46,1.31,6.58,2.95c0.22,0.33,0.3,0.6,0.3,0.9c0,0.79-0.66,1.45-1.47,1.45c-0.38,0-0.76-0.16-1.12-0.55
		c-1.12-1.23-2.29-1.91-4.29-1.91c-3.63,0-5.27,2.24-5.27,6.75c0,4.78,1.64,6.72,5.27,6.72c2.02,0,3.44-0.46,4.51-1.56V289.77z"/>
	<path class="st0" d="M226.8,295.48c0,0.87-0.71,1.58-1.58,1.58s-1.58-0.71-1.58-1.58v-15.65c0-0.88,0.71-1.58,1.58-1.58
		s1.58,0.71,1.58,1.58V295.48z"/>
	<path class="st0" d="M243.95,279.8v15.71c0,0.85-0.71,1.56-1.56,1.56c-0.52,0-1.01-0.27-1.28-0.68l-8.06-11.63v10.76
		c0,0.85-0.71,1.56-1.56,1.56c-0.85,0-1.56-0.71-1.56-1.56V279.8c0-0.85,0.71-1.56,1.56-1.56c0.55,0,0.98,0.25,1.26,0.65l8.08,11.72
		V279.8c0-0.85,0.71-1.56,1.56-1.56S243.95,278.95,243.95,279.8z"/>
	<path class="st0" d="M259.45,289.77h-3.71c-0.76,0-1.39-0.63-1.39-1.39c0-0.77,0.63-1.39,1.39-1.39h5.3c0.76,0,1.5,0.65,1.5,1.45
		v4.37c0,0.63-0.14,1.04-0.46,1.45c-1.31,1.75-4.21,2.98-7.13,2.98c-5.44,0-8.55-2.87-8.55-9.56c0-6.47,3.11-9.59,8.55-9.59
		c3.3,0,5.46,1.31,6.58,2.95c0.22,0.33,0.3,0.6,0.3,0.9c0,0.79-0.66,1.45-1.47,1.45c-0.38,0-0.76-0.16-1.12-0.55
		c-1.12-1.23-2.29-1.91-4.29-1.91c-3.63,0-5.27,2.24-5.27,6.75c0,4.78,1.64,6.72,5.27,6.72c2.02,0,3.44-0.46,4.51-1.56V289.77z"/>
</g>
<g>
	<path class="st0" d="M242.81,125.01c10.72,0.01,19.06,8.87,18.98,19.15c-0.08,10.42-8.56,18.9-19.04,18.9
		c-10.52-0.01-18.99-8.51-19.03-19C223.69,133.81,232.01,125,242.81,125.01z M252.95,144.01c-0.02-5.62-4.6-10.2-10.21-10.18
		c-5.62,0.02-10.19,4.61-10.17,10.22c0.03,5.66,4.54,10.15,10.2,10.15C248.41,154.2,252.97,149.64,252.95,144.01z"/>
	<path class="st0" d="M96.88,163.7c-10.53-0.05-19.05-8.57-19.03-19.03c0.02-10.62,8.62-19.13,19.3-19.02
		c10.51,0.11,18.89,8.74,18.79,19.24C115.85,155.24,107.26,163.75,96.88,163.7z M96.87,134.49c-5.68,0.02-10.2,4.59-10.17,10.29
		c0.03,5.54,4.65,10.1,10.22,10.08c5.62-0.02,10.17-4.59,10.16-10.22C107.06,139,102.51,134.47,96.87,134.49z"/>
	<path class="st0" d="M287.79,130.52c-0.41-3.34-1.98-6.06-4.56-8.2c-0.4-0.33-0.54-0.67-0.55-1.17c-0.03-1.51-0.07-3.02-0.2-4.53
		c-0.23-2.52-0.69-5.01-1.61-7.39c-0.13-0.33-0.19-0.72-0.18-1.07c0.02-1.3-0.36-2.49-0.91-3.65c-0.25-0.53-0.6-0.83-1.17-0.91
		c-1.38-0.18-2.74-0.45-4.13-0.53c-3.45-0.21-6.9-0.43-10.36-0.45c-1.9-0.01-3.48-0.56-5.11-1.48
		c-18.95-10.77-39.24-17.03-61.07-18.13c-6.39-0.32-12.78-0.17-19.15,0.47c-5.53,0.55-11.01,1.47-16.42,2.74
		c-10.01,2.36-19.6,5.87-28.75,10.57c-5.53,2.84-10.82,6.06-15.86,9.69c-0.44,0.32-0.9,0.48-1.45,0.49
		c-5.38,0.08-10.73,0.49-16.06,1.14c-6.59,0.81-13.11,2.03-19.54,3.68c-5.41,1.39-10.74,3.04-15.92,5.14
		c-0.83,0.34-1.48,0.84-2.04,1.53c-1.84,2.31-3.39,4.78-4.52,7.5c-1.65,3.97-2.46,8.07-1.97,12.38c0.17,1.47,0.4,2.93,0.62,4.4
		c0.07,0.47,0.04,0.86-0.24,1.3c-0.54,0.84-0.3,1.47,0.61,1.82c1.67,0.64,2.67,1.74,2.61,3.64c0.96,0.6,2.02,0.92,3.11,1.15
		c3.95,0.85,7.96,0.96,11.97,0.93c0.06,0,0.12,0,0.18-0.01c0.66-0.09,1.05-0.54,1.03-1.2c-0.01-0.24-0.07-0.49-0.12-0.73
		c-0.72-3.08-0.79-6.17-0.13-9.27c3.37-16.01,22.46-22.61,34.91-11.96c5.63,4.82,8.05,11.08,7.39,18.48
		c-0.07,0.74-0.2,1.46-0.33,2.19c-0.17,1.01,0.24,1.55,1.24,1.59c0.28,0.01,0.56,0,0.83,0c18.59,0,37.17,0,55.76,0
		c15.16,0,30.32,0,45.48,0c0.35,0,0.71,0,1.13,0c-0.11-0.44-0.17-0.74-0.25-1.03c-0.82-2.96-0.96-5.96-0.49-8.99
		c1.79-11.51,12.6-19.47,24.2-17.83c10.57,1.5,18.41,10.52,18.39,21.2c0,0.95-0.1,1.91-0.18,2.86c-0.05,0.6,0.01,1.16,0.62,1.4
		c0.31,0.12,0.73,0.11,1.07,0.03c1.95-0.45,3.9-0.91,5.85-1.41c3.26-0.83,6.51-1.68,9.62-2.99c3-1.26,5.04-3.34,5.89-6.55
		C287.64,135.11,288.08,132.86,287.79,130.52z M191.11,95.06c0.02-1.82,1.63-3.29,3.45-3.31c1.82-0.02,3.48,1.39,3.52,3.22
		c0.07,3.58,0.02,7.16,0.02,10.78c-2.35,0-4.67,0-7,0C191.1,102.15,191.07,98.6,191.11,95.06z M177.01,91.75
		c2-0.01,3.53,1.58,3.53,3.68c0,3.26,0,6.51,0,9.77c0,0.18,0,0.36,0,0.58c-2.37,0-4.65,0-6.99,0c-0.01-0.19-0.03-0.36-0.03-0.54
		c0-3.27,0-6.55,0-9.82C173.53,93.34,175.04,91.76,177.01,91.75z M199.87,114.65c0,2.62,0.01,5.26,0,7.89c0,0.62-0.01,1.25-0.1,1.86
		c-0.45,3.32-3.35,5.91-6.7,5.99c-1.29,0.03-1.86,0.57-1.99,1.89c-0.09,0.88-0.62,1.4-1.74,1.67c0,2.88,0,5.77,0,8.7
		c-2.34,0-4.65,0-7.01,0c0-2.88,0-5.77,0-8.68c-0.15-0.04-0.26-0.07-0.38-0.11c-0.88-0.24-1.34-0.82-1.4-1.74
		c-0.06-1.02-0.76-1.71-1.76-1.74c-4.08-0.12-7.03-3.15-7.03-7.24c0-2.84,0-5.67,0-8.5c-1.48-0.49-1.76-0.87-1.76-2.43
		c0-0.93-0.01-1.87,0-2.8c0.01-1.12,0.73-1.86,1.85-1.87c9.3,0,18.6,0,27.89,0c1.13,0,1.86,0.73,1.87,1.85c0.01,0.95,0,1.9,0,2.86
		C201.63,113.79,201.32,114.21,199.87,114.65z"/>
</g>
</svg>
