<?xml version="1.0" encoding="utf-8"?>
<!-- Generator: Adobe Illustrator 27.9.0, SVG Export Plug-In . SVG Version: 6.00 Build 0)  -->
<svg version="1.1" id="Layer_1" xmlns="http://www.w3.org/2000/svg" xmlns:xlink="http://www.w3.org/1999/xlink" x="0px" y="0px"
	 viewBox="0 0 360 360" style="enable-background:new 0 0 360 360;" xml:space="preserve">
<style type="text/css">
	.st0{fill:#FFFFFF;}
</style>
<g>
	<path class="st0" d="M101.29,303.14c-2.27,0-3.11,1.07-3.11,2.16c0,3.58,9.97,1.91,9.97,8.74c0,3.33-2.35,5.41-6.86,5.41
		c-3.25,0-5.84-1.61-6.91-3.33c-0.14-0.22-0.22-0.49-0.22-0.77c0-0.82,0.66-1.47,1.45-1.47c0.6,0,0.93,0.33,1.2,0.6
		c1.15,1.15,2.59,2.07,4.48,2.07c2.49,0,3.69-0.82,3.69-2.51c0-3.99-9.97-2.16-9.97-8.74c0-2.71,1.94-5,6.28-5
		c2.73,0,5.11,1.01,6.2,2.57c0.16,0.25,0.27,0.55,0.27,0.88c0,0.79-0.66,1.45-1.48,1.45c-0.38,0-0.76-0.22-1.17-0.6
		C104.27,303.76,102.85,303.14,101.29,303.14z"/>
	<path class="st0" d="M109.96,309.88c0-6.47,3.14-9.59,8.66-9.59s8.66,3.11,8.66,9.59c0,6.39-3.14,9.56-8.66,9.56
		S109.96,316.27,109.96,309.88z M113.23,309.88c0,4.51,1.78,6.72,5.38,6.72s5.38-2.21,5.38-6.72c0-4.53-1.78-6.75-5.38-6.75
		S113.23,305.35,113.23,309.88z"/>
	<path class="st0" d="M139.49,316.11c0.9,0,1.53,0.65,1.53,1.47c0,0.85-0.63,1.47-1.53,1.47h-8.08c-0.9,0-1.56-0.66-1.56-1.53
		v-15.49c0-0.88,0.71-1.58,1.58-1.58s1.58,0.71,1.58,1.58v14.07H139.49z"/>
	<path class="st0" d="M146.84,314.28l-1.67,3.96c-0.25,0.57-0.76,1.04-1.47,1.04c-0.85,0-1.56-0.71-1.56-1.56
		c0-0.16,0.03-0.38,0.11-0.57l6.45-15.71c0.16-0.38,0.6-0.98,1.45-0.98s1.28,0.6,1.45,0.98l6.45,15.71
		c0.08,0.19,0.11,0.41,0.11,0.57c0,0.85-0.71,1.56-1.56,1.56c-0.71,0-1.23-0.46-1.47-1.04l-1.67-3.96H146.84z M150.15,305.65
		l-2.24,5.73h4.48L150.15,305.65z"/>
	<path class="st0" d="M163.48,312.01v5.68c0,0.87-0.71,1.58-1.58,1.58s-1.58-0.71-1.58-1.58v-15.43c0-0.88,0.71-1.58,1.58-1.58h5.22
		c3.69,0,5.76,2.62,5.76,5.71c0,2.6-1.58,5.11-4.21,5.44l4.04,4.92c0.25,0.33,0.33,0.66,0.33,0.96c0,0.87-0.71,1.58-1.58,1.58
		c-0.46,0-0.96-0.22-1.23-0.57l-4.97-6.69H163.48z M163.48,303.52v5.71h3.69c1.69,0,2.43-1.39,2.43-2.84c0-1.47-0.74-2.87-2.51-2.87
		H163.48z"/>
	<path class="st0" d="M184.96,311.9v5.79c0,0.87-0.71,1.58-1.58,1.58s-1.58-0.71-1.58-1.58v-15.43c0-0.88,0.71-1.58,1.58-1.58h5.22
		c3.2,0,5.74,1.77,5.74,5.6c0,3.77-2.49,5.63-5.74,5.63H184.96z M184.96,303.52v5.54h3.39c1.69,0,2.71-1.01,2.71-2.79
		c0-1.8-1.04-2.76-2.71-2.76H184.96z"/>
	<path class="st0" d="M196.16,309.88c0-6.47,3.14-9.59,8.66-9.59s8.66,3.11,8.66,9.59c0,6.39-3.14,9.56-8.66,9.56
		S196.16,316.27,196.16,309.88z M199.44,309.88c0,4.51,1.78,6.72,5.38,6.72s5.38-2.21,5.38-6.72c0-4.53-1.78-6.75-5.38-6.75
		S199.44,305.35,199.44,309.88z"/>
	<path class="st0" d="M225.58,306.9l-3.14,11.2c-0.19,0.68-0.79,1.17-1.53,1.17c-0.71,0-1.31-0.46-1.5-1.09l-4.67-15.65
		c-0.05-0.16-0.08-0.3-0.08-0.49c0-0.88,0.71-1.58,1.58-1.58c0.88,0,1.37,0.63,1.5,1.09l3.2,11.47l3.12-11.42
		c0.19-0.71,0.85-1.15,1.53-1.15c0.68,0,1.34,0.44,1.53,1.15l3.11,11.42l3.2-11.47c0.14-0.46,0.63-1.09,1.5-1.09
		c0.88,0,1.58,0.71,1.58,1.58c0,0.19-0.03,0.33-0.08,0.49l-4.67,15.65c-0.19,0.63-0.79,1.09-1.5,1.09c-0.74,0-1.34-0.49-1.53-1.17
		L225.58,306.9z"/>
	<path class="st0" d="M241.84,308.41H247c0.77,0,1.39,0.63,1.39,1.39c0,0.77-0.63,1.39-1.39,1.39h-5.16v5.03h7.24
		c0.79,0,1.42,0.63,1.42,1.42c0,0.79-0.63,1.42-1.42,1.42h-8.82c-0.87,0-1.58-0.71-1.58-1.58v-15.21c0-0.88,0.71-1.58,1.58-1.58
		h8.52c0.79,0,1.42,0.63,1.42,1.42c0,0.79-0.63,1.42-1.42,1.42h-6.94V308.41z"/>
	<path class="st0" d="M256.13,312.01v5.68c0,0.87-0.71,1.58-1.58,1.58c-0.87,0-1.58-0.71-1.58-1.58v-15.43
		c0-0.88,0.71-1.58,1.58-1.58h5.22c3.69,0,5.76,2.62,5.76,5.71c0,2.6-1.58,5.11-4.21,5.44l4.04,4.92c0.25,0.33,0.33,0.66,0.33,0.96
		c0,0.87-0.71,1.58-1.58,1.58c-0.46,0-0.96-0.22-1.23-0.57l-4.97-6.69H256.13z M256.13,303.52v5.71h3.69c1.69,0,2.43-1.39,2.43-2.84
		c0-1.47-0.74-2.87-2.51-2.87H256.13z"/>
</g>
<g>
	<path class="st0" d="M182.67,50.16c0.7,0.37,1.49,0.54,2.11,1.07c1.1,0.93,1.82,2.06,1.83,3.52c0.03,2.98,0.07,5.97-0.01,8.95
		c-0.06,2.28-1.77,4.1-3.99,4.52c-2.16,0.41-4.42-0.78-5.37-2.82c-0.36-0.78-0.43-1.61-0.43-2.45c0-2.46-0.01-4.91,0-7.37
		c0.01-2.72,1.01-4.18,3.53-5.21c0.1-0.04,0.19-0.14,0.28-0.21C181.3,50.16,181.98,50.16,182.67,50.16z"/>
	<g>
		<g>
			<path class="st0" d="M106.64,244.49c-6.92,0-13.84,0-20.76,0c-8.05,0-12.63-3.31-10.17-7.35c2.07-3.5,4.15-7,6.22-10.5
				c2.45-4.04,10.05-7.35,16.88-7.35c5.97,0,11.94,0,17.91,0c6.83,0,11.41,3.31,10.17,7.35c-1.12,3.5-2.25,7-3.37,10.5
				C122.29,241.18,114.69,244.49,106.64,244.49z"/>
			<path class="st0" d="M162.53,244.49c-6.92,0-13.84,0-20.76,0c-8.05,0-13.64-3.31-12.41-7.35c1.01-3.5,2.01-7,3.02-10.5
				c1.22-4.04,7.81-7.35,14.64-7.35c5.97,0,11.94,0,17.91,0c6.83,0,12.42,3.31,12.41,7.35c-0.06,3.5-0.11,7-0.17,10.5
				C177.17,241.18,170.58,244.49,162.53,244.49z"/>
			<path class="st0" d="M218.23,244.49c-6.92,0-13.84,0-20.76,0c-8.05,0-14.64-3.31-14.64-7.35c-0.06-3.5-0.11-7-0.17-10.5
				c0-4.04,5.58-7.35,12.41-7.35c5.97,0,11.94,0,17.91,0c6.83,0,13.42,3.31,14.64,7.35c1.01,3.5,2.01,7,3.02,10.5
				C231.86,241.18,226.28,244.49,218.23,244.49z"/>
			<path class="st0" d="M274.12,244.49c-6.92,0-13.84,0-20.76,0c-8.05,0-15.65-3.31-16.88-7.35c-1.12-3.5-2.25-7-3.37-10.5
				c-1.24-4.04,3.34-7.35,10.17-7.35c5.97,0,11.94,0,17.91,0c6.83,0,14.43,3.31,16.88,7.35c2.07,3.5,4.15,7,6.22,10.5
				C286.75,241.18,282.17,244.49,274.12,244.49z"/>
			<path class="st0" d="M118.09,215.84c-5.84,0-11.68,0-17.52,0c-6.8,0-10.36-3.31-7.91-7.35c2.07-3.5,4.15-7,6.22-10.5
				c2.45-4.04,9.03-7.35,14.62-7.35c4.89,0,9.78,0,14.66,0c5.58,0,9.14,3.31,7.91,7.35c-1.12,3.5-2.25,7-3.37,10.5
				C131.47,212.53,124.89,215.84,118.09,215.84z"/>
			<path class="st0" d="M165.26,215.84c-5.84,0-11.68,0-17.52,0c-6.8,0-11.37-3.31-10.15-7.35c1.01-3.5,2.01-7,3.02-10.5
				c1.22-4.04,6.79-7.35,12.38-7.35c4.89,0,9.78,0,14.66,0c5.58,0,10.15,3.31,10.15,7.35c-0.06,3.5-0.11,7-0.17,10.5
				C177.63,212.53,172.06,215.84,165.26,215.84z"/>
			<path class="st0" d="M212.26,215.84c-5.84,0-11.68,0-17.52,0c-6.8,0-12.37-3.31-12.38-7.35c-0.06-3.5-0.11-7-0.17-10.5
				c0-4.04,4.56-7.35,10.15-7.35c4.89,0,9.78,0,14.66,0c5.58,0,11.15,3.31,12.38,7.35c1.01,3.5,2.01,7,3.02,10.5
				C223.63,212.53,219.06,215.84,212.26,215.84z"/>
			<path class="st0" d="M259.42,215.84c-5.84,0-11.68,0-17.52,0c-6.8,0-13.38-3.31-14.62-7.35c-1.12-3.5-2.25-7-3.37-10.5
				c-1.24-4.04,2.32-7.35,7.91-7.35c4.89,0,9.78,0,14.66,0c5.58,0,12.16,3.31,14.62,7.35c2.07,3.5,4.15,7,6.22,10.5
				C269.79,212.53,266.23,215.84,259.42,215.84z"/>
			<path class="st0" d="M129.54,187.2c-4.76,0-9.52,0-14.28,0c-5.56,0-8.09-3.31-5.64-7.35c2.07-3.5,4.15-7,6.22-10.5
				c2.45-4.04,8.01-7.35,12.35-7.35c3.81,0,7.62,0,11.42,0c4.34,0,6.87,3.31,5.64,7.35c-1.12,3.5-2.25,7-3.37,10.5
				C140.66,183.89,135.1,187.2,129.54,187.2z"/>
			<path class="st0" d="M167.99,187.2c-4.76,0-9.52,0-14.28,0c-5.56,0-9.1-3.31-7.88-7.35c1.01-3.5,2.01-7,3.02-10.5
				c1.22-4.04,5.77-7.35,10.11-7.35c3.81,0,7.62,0,11.42,0c4.34,0,7.88,3.31,7.88,7.35c-0.06,3.5-0.11,7-0.17,10.5
				C178.09,183.89,173.54,187.2,167.99,187.2z"/>
			<path class="st0" d="M206.29,187.2c-4.76,0-9.52,0-14.28,0c-5.56,0-10.1-3.31-10.11-7.35c-0.06-3.5-0.11-7-0.17-10.5
				c0-4.04,3.54-7.35,7.88-7.35c3.81,0,7.62,0,11.42,0c4.34,0,8.89,3.31,10.11,7.35c1.01,3.5,2.01,7,3.02,10.5
				C215.39,183.89,211.85,187.2,206.29,187.2z"/>
			<path class="st0" d="M244.73,187.2c-4.76,0-9.52,0-14.28,0c-5.56,0-11.11-3.31-12.35-7.35c-1.12-3.5-2.25-7-3.37-10.5
				c-1.24-4.04,1.3-7.35,5.64-7.35c3.81,0,7.62,0,11.42,0c4.34,0,9.89,3.31,12.35,7.35c2.07,3.5,4.15,7,6.22,10.5
				C252.82,183.89,250.29,187.2,244.73,187.2z"/>
		</g>
		<path class="st0" d="M229.55,99.1c-0.05,0.03-0.13,0.06-0.14,0.1c-0.93,2.77-2.93,3.81-5.74,3.72c-2.42-0.08-4.85,0.04-7.27-0.03
			c-3.98-0.13-6.24-4.09-4.26-7.42c0.84-1.42,2.11-2.31,3.79-2.35c2.92-0.07,5.84-0.09,8.76-0.03c2.38,0.05,3.98,1.38,4.68,3.68
			c0.04,0.12,0.05,0.24,0.19,0.29C229.55,97.73,229.55,98.41,229.55,99.1z"/>
		<path class="st0" d="M204.82,97.94c-0.09,12.72-10.08,23.01-23.07,23.12c-12.65,0.1-23.13-10.41-23.11-23.09
			c0.03-12.7,10.16-22.97,23.03-23.05C194.28,74.84,204.65,84.84,204.82,97.94z"/>
		<path class="st0" d="M150.14,134.23c-1.77-0.07-3.32-1-4.19-2.84c-0.84-1.78-0.72-3.59,0.57-5.08c2.09-2.39,4.33-4.65,6.72-6.73
			c1.86-1.62,4.72-1.36,6.46,0.38c1.76,1.75,2.04,4.57,0.42,6.45c-2.08,2.43-4.4,4.65-6.78,6.8
			C152.55,133.95,151.51,134.22,150.14,134.23z"/>
		<path class="st0" d="M212.97,134.23c-1.38-0.01-2.53-0.57-3.5-1.52c-1.88-1.86-3.77-3.71-5.61-5.61c-2.07-2.13-2.1-5.14-0.13-7.11
			c1.97-1.98,4.98-1.95,7.11,0.12c1.9,1.84,3.76,3.72,5.61,5.61c1.53,1.57,1.96,3.43,1.14,5.49
			C216.85,133.09,215.01,134.25,212.97,134.23z"/>
		<path class="st0" d="M217.97,65.97c0.04,2.06-0.51,3.25-1.49,4.24c-1.88,1.91-3.74,3.83-5.68,5.67c-2.97,2.83-7.49,1.53-8.4-2.4
			c-0.34-1.49-0.04-2.9,0.96-4.02c2.09-2.35,4.3-4.59,6.66-6.66c1.51-1.32,3.34-1.46,5.16-0.58C217,63.09,217.9,64.61,217.97,65.97z
			"/>
		<path class="st0" d="M149.99,61.72c1.8-0.02,3,0.52,3.99,1.5c1.9,1.88,3.82,3.75,5.67,5.68c2.03,2.1,2.04,5.08,0.1,7.04
			c-1.94,1.96-4.93,1.99-7.04-0.02c-1.98-1.89-3.91-3.83-5.81-5.81c-1.49-1.56-1.87-3.44-1-5.43
			C146.73,62.77,148.29,61.81,149.99,61.72z"/>
		<path class="st0" d="M143,102.86c-1.52,0-3.05,0.07-4.57-0.01c-2.52-0.14-4.49-2.3-4.51-4.83c-0.02-2.57,1.96-4.82,4.53-4.9
			c3.04-0.1,6.1-0.1,9.14,0.01c2.51,0.08,4.45,2.31,4.45,4.87c0,2.55-1.95,4.72-4.47,4.86C146.05,102.93,144.52,102.86,143,102.86z"
			/>
		<path class="st0" d="M186.62,136.74c0,1.52,0.07,3.05-0.02,4.57c-0.14,2.51-2.32,4.48-4.85,4.48c-2.53,0.01-4.76-1.96-4.88-4.46
			c-0.15-3.08-0.15-6.16,0-9.24c0.12-2.5,2.34-4.44,4.89-4.42c2.51,0.01,4.68,1.94,4.83,4.4
			C186.69,133.62,186.61,135.18,186.62,136.74C186.61,136.74,186.62,136.74,186.62,136.74z"/>
	</g>
</g>
</svg>
