<?xml version="1.0" encoding="utf-8"?>
<!-- Generator: Adobe Illustrator 27.9.0, SVG Export Plug-In . SVG Version: 6.00 Build 0)  -->
<svg version="1.1" id="Layer_1" xmlns="http://www.w3.org/2000/svg" xmlns:xlink="http://www.w3.org/1999/xlink" x="0px" y="0px"
	 viewBox="0 0 360 360" style="enable-background:new 0 0 360 360;" xml:space="preserve">
<style type="text/css">
	.st0{fill:#FFFFFF;}
</style>
<g>
	<g>
		<path class="st0" d="M108.92,293.15v5.79c0,0.87-0.71,1.58-1.58,1.58s-1.58-0.71-1.58-1.58v-15.43c0-0.87,0.71-1.58,1.58-1.58
			h5.22c3.2,0,5.74,1.78,5.74,5.6c0,3.77-2.49,5.63-5.74,5.63H108.92z M108.92,284.77v5.54h3.39c1.69,0,2.7-1.01,2.7-2.79
			c0-1.8-1.04-2.76-2.7-2.76H108.92z"/>
		<path class="st0" d="M120.12,291.13c0-6.47,3.14-9.59,8.66-9.59c5.52,0,8.66,3.11,8.66,9.59c0,6.39-3.14,9.56-8.66,9.56
			C123.26,300.69,120.12,297.52,120.12,291.13z M123.4,291.13c0,4.51,1.78,6.72,5.38,6.72c3.61,0,5.38-2.21,5.38-6.72
			c0-4.53-1.78-6.75-5.38-6.75C125.17,284.38,123.4,286.6,123.4,291.13z"/>
		<path class="st0" d="M143.18,289.66h5.16c0.76,0,1.39,0.63,1.39,1.39c0,0.76-0.63,1.39-1.39,1.39h-5.16v5.03h7.24
			c0.79,0,1.42,0.63,1.42,1.42s-0.63,1.42-1.42,1.42h-8.82c-0.87,0-1.58-0.71-1.58-1.58v-15.21c0-0.87,0.71-1.58,1.58-1.58h8.52
			c0.79,0,1.42,0.63,1.42,1.42s-0.63,1.42-1.42,1.42h-6.94V289.66z"/>
		<path class="st0" d="M170.12,297.36c0.9,0,1.53,0.66,1.53,1.48c0,0.85-0.63,1.47-1.53,1.47h-8.08c-0.9,0-1.56-0.66-1.56-1.53
			v-15.49c0-0.87,0.71-1.58,1.58-1.58s1.58,0.71,1.58,1.58v14.07H170.12z"/>
		<path class="st0" d="M177.06,289.66h5.16c0.76,0,1.39,0.63,1.39,1.39c0,0.76-0.63,1.39-1.39,1.39h-5.16v5.03h7.24
			c0.79,0,1.42,0.63,1.42,1.42s-0.63,1.42-1.42,1.42h-8.82c-0.87,0-1.58-0.71-1.58-1.58v-15.21c0-0.87,0.71-1.58,1.58-1.58H184
			c0.79,0,1.42,0.63,1.42,1.42s-0.63,1.42-1.42,1.42h-6.94V289.66z"/>
		<path class="st0" d="M193.46,281.93c5.44,0,8.88,2.46,8.88,9.2c0,6.75-3.44,9.18-8.88,9.18h-3.69c-0.87,0-1.58-0.71-1.58-1.58
			v-15.21c0-0.87,0.71-1.58,1.58-1.58H193.46z M191.35,297.47h2.1c3.5,0,5.6-1.58,5.6-6.34c0-4.75-2.1-6.36-5.6-6.36h-2.1V297.47z"
			/>
		<path class="st0" d="M108.4,330.15c0.9,0,1.53,0.66,1.53,1.48c0,0.85-0.63,1.47-1.53,1.47h-8.08c-0.9,0-1.56-0.66-1.56-1.53
			v-15.49c0-0.87,0.71-1.58,1.58-1.58s1.58,0.71,1.58,1.58v14.07H108.4z"/>
		<path class="st0" d="M115.34,331.73c0,0.87-0.71,1.58-1.58,1.58s-1.58-0.71-1.58-1.58v-15.65c0-0.87,0.71-1.58,1.58-1.58
			s1.58,0.71,1.58,1.58V331.73z"/>
		<path class="st0" d="M130.96,326.02h-3.71c-0.76,0-1.39-0.63-1.39-1.39s0.63-1.39,1.39-1.39h5.3c0.76,0,1.5,0.66,1.5,1.45v4.37
			c0,0.63-0.14,1.04-0.46,1.45c-1.31,1.75-4.21,2.98-7.13,2.98c-5.44,0-8.55-2.87-8.55-9.56c0-6.47,3.11-9.59,8.55-9.59
			c3.3,0,5.46,1.31,6.58,2.95c0.22,0.33,0.3,0.6,0.3,0.9c0,0.79-0.66,1.45-1.47,1.45c-0.38,0-0.76-0.16-1.12-0.55
			c-1.12-1.23-2.29-1.91-4.29-1.91c-3.63,0-5.27,2.24-5.27,6.75c0,4.78,1.64,6.72,5.27,6.72c2.02,0,3.44-0.46,4.51-1.56V326.02z"/>
		<path class="st0" d="M151.21,331.73c0,0.87-0.71,1.58-1.58,1.58s-1.58-0.71-1.58-1.58v-6.58h-7.81v6.58
			c0,0.87-0.71,1.58-1.58,1.58s-1.58-0.71-1.58-1.58v-15.65c0-0.87,0.71-1.58,1.58-1.58s1.58,0.71,1.58,1.58v6.17h7.81v-6.17
			c0-0.87,0.71-1.58,1.58-1.58s1.58,0.71,1.58,1.58V331.73z"/>
		<path class="st0" d="M162.17,317.5v14.23c0,0.87-0.71,1.58-1.58,1.58s-1.58-0.71-1.58-1.58V317.5h-4.18
			c-0.76,0-1.39-0.63-1.39-1.39c0-0.76,0.63-1.39,1.39-1.39h11.53c0.76,0,1.39,0.63,1.39,1.39c0,0.77-0.63,1.39-1.39,1.39H162.17z"
			/>
		<path class="st0" d="M173.13,331.73c0,0.87-0.71,1.58-1.58,1.58s-1.58-0.71-1.58-1.58v-15.65c0-0.87,0.71-1.58,1.58-1.58
			s1.58,0.71,1.58,1.58V331.73z"/>
		<path class="st0" d="M190.28,316.05v15.71c0,0.85-0.71,1.56-1.56,1.56c-0.52,0-1.01-0.27-1.28-0.68L179.38,321v10.76
			c0,0.85-0.71,1.56-1.56,1.56c-0.85,0-1.56-0.71-1.56-1.56v-15.71c0-0.85,0.71-1.56,1.56-1.56c0.55,0,0.98,0.25,1.26,0.66
			l8.08,11.72v-10.82c0-0.85,0.71-1.56,1.56-1.56S190.28,315.21,190.28,316.05z"/>
		<path class="st0" d="M205.77,326.02h-3.71c-0.76,0-1.39-0.63-1.39-1.39s0.63-1.39,1.39-1.39h5.3c0.76,0,1.5,0.66,1.5,1.45v4.37
			c0,0.63-0.14,1.04-0.46,1.45c-1.31,1.75-4.21,2.98-7.13,2.98c-5.44,0-8.55-2.87-8.55-9.56c0-6.47,3.11-9.59,8.55-9.59
			c3.3,0,5.46,1.31,6.58,2.95c0.22,0.33,0.3,0.6,0.3,0.9c0,0.79-0.66,1.45-1.47,1.45c-0.38,0-0.76-0.16-1.12-0.55
			c-1.12-1.23-2.29-1.91-4.29-1.91c-3.63,0-5.27,2.24-5.27,6.75c0,4.78,1.64,6.72,5.27,6.72c2.02,0,3.44-0.46,4.51-1.56V326.02z"/>
	</g>
	<g>
		<g>
			<path class="st0" d="M157.95,48.26c-4.33-12.32-13.34-19.43-26.33-21.1c-12.84-1.65-25.64,5.37-31.48,17.01
				c-5.98,11.9-4.16,26.59,5.08,35.81c4.84,4.83,6.52,10.41,6.59,16.85c0.03,2.82,0.47,3.3,3.37,3.31
				c4.32,0.02,8.63,0.01,12.95,0.01c4.16,0,8.31,0,12.47,0c3.62-0.01,3.76-0.21,3.92-3.73c0.27-5.94,1.58-11.31,6.04-15.89
				C159.43,71.39,162.21,60.37,157.95,48.26z M152.43,58.1c-0.06,1.26-1.09,2.24-2.34,2.24c-0.04,0-0.07,0-0.11,0
				c-1.29-0.06-2.29-1.15-2.23-2.45c0.01-0.31,0.19-7.87-6.73-13.98c-5.49-4.85-13.36-5.22-13.44-5.22
				c-1.29-0.05-2.3-1.14-2.25-2.43c0.05-1.29,1.11-2.33,2.42-2.25c0.39,0.01,9.59,0.41,16.37,6.39
				C152.78,48.05,152.44,57.7,152.43,58.1z"/>
			<path class="st0" d="M140.62,105.45h-24.17c-2.84,0-5.14,2.31-5.14,5.14c0,2.84,2.31,5.14,5.14,5.14h23.21
				c3.1,0,5.63-2.52,5.63-5.63C145.28,107.54,143.19,105.45,140.62,105.45z"/>
			<path class="st0" d="M135.78,120.1h-14.97c-2.57,0-4.66,2.09-4.66,4.66c0,2.57,2.09,4.66,4.66,4.66h14.97
				c2.57,0,4.66-2.09,4.66-4.66C140.44,122.19,138.35,120.1,135.78,120.1z"/>
		</g>
		<path class="st0" d="M203.78,186.09c-0.01-2.26-1.26-3.38-3.53-3.43c-1.2-0.03-2.4,0-3.53,0c-0.79-3.95-0.79-3.95-4.64-4
			c-0.06,0-0.12,0-0.17,0c-1.06,0.03-2.11-0.08-2.14-1.44c-0.02-1.34,0.98-1.53,2.07-1.5c1.2,0.02,2.4,0.01,3.59,0.01
			c0.05-4.8,0.05-4.8-4.33-4.81c-0.29,0-0.58-0.01-0.87,0c-1.07,0.06-1.94-0.3-1.93-1.48c0.01-1.2,0.91-1.47,1.96-1.45
			c1.37,0.03,2.74,0.01,4.13,0.01c-0.06-5.04-3.62-4.54-6.89-4.6c0-0.57,0-1.12,0-1.69h0.85v-19.78c0-14.27-6.85-22.79-18.31-22.79
			c-17.99,0-17.99,18.97-17.99,28.08v1.4c0,13.16-1.51,19.84-9.75,19.84c-6.69,0-10.08-4.9-10.08-14.55v-19.78h-8.24v19.78
			c0,14.27,6.85,22.79,18.32,22.79c17.99,0,17.99-18.97,17.99-28.08v-1.4c0-13.16,1.51-19.84,9.75-19.84
			c6.69,0,10.08,4.9,10.08,14.55v19.78h0.78c0,0.5,0,1.01,0,1.51c-1.75,0.22-3.36,0.18-4.8,0.68c-1.69,0.58-2.05,2.2-2,4.09
			c1.43,0,2.81,0.01,4.19,0c0.98-0.01,1.8,0.24,1.84,1.38c0.04,1.22-0.78,1.56-1.85,1.55c-1.56-0.01-3.12,0-4.74,0
			c-0.24,1.68-0.45,3.15-0.69,4.81c1.35,0,2.51,0.01,3.66,0c1.05-0.01,2.14,0.07,2.16,1.42c0.02,1.47-1.13,1.53-2.24,1.52
			c-1.32-0.01-2.63,0-3.88,0c-1.01,3.98-1.01,3.98-3.79,3.99c-3.06,0.02-4.07,1.02-4.08,4.09c-0.01,8.57,0.1,17.14-0.05,25.7
			c-0.06,3.89,1.22,5.27,4.63,5.06c0.09-0.01,0.18,0.12,0.4,0.29c0,4.79-0.01,9.68,0,14.57c0.01,3.67,1.66,5.3,5.37,5.3
			c6,0.01,12.01,0,18.01,0c4.23,0,5.68-1.45,5.68-5.64c0-4.77,0-9.54,0-14.5c0.71-0.03,1.17-0.06,1.63-0.08
			c2.15-0.1,3.4-1.22,3.42-3.37C203.81,204.74,203.82,195.42,203.78,186.09z M193.38,234.01c-6.18-0.05-12.35,0-18.53-0.06
			c-0.5-0.01-1.42-0.61-1.43-0.95c-0.09-5.11-0.06-10.23-0.06-15.49c2.5,0,4.7,0,7.09,0c0,2.13,0,4.2,0,6.39c2.49,0,4.79,0,7.36,0
			c0-2.05,0-4.16,0-6.36c2.51,0,4.76,0,7.3,0c0,0.73,0,1.46,0,2.19c0,4.14-0.04,8.27,0.03,12.41
			C195.16,233.47,194.79,234.02,193.38,234.01z"/>
	</g>
</g>
</svg>
