<?xml version="1.0" encoding="utf-8"?>
<!-- Generator: Adobe Illustrator 27.9.0, SVG Export Plug-In . SVG Version: 6.00 Build 0)  -->
<svg version="1.1" id="Layer_1" xmlns="http://www.w3.org/2000/svg" xmlns:xlink="http://www.w3.org/1999/xlink" x="0px" y="0px"
	 viewBox="0 0 360 360" style="enable-background:new 0 0 360 360;" xml:space="preserve">
<style type="text/css">
	.st0{fill:#FFFFFF;}
</style>
<path class="st0" d="M251.7,179.73l-5.1,1.22c34.96-38.87,33.75-98.96-3.64-136.36c-29.41-29.41-74.48-37.33-112.14-19.71
	c-1.88,0.88-2.7,3.12-1.81,5.01c0.88,1.88,3.12,2.7,5.01,1.81c34.8-16.28,76.44-8.96,103.62,18.22
	c34.32,34.32,35.64,89.32,4.01,125.26l1.06-4.45c0.48-2.02-0.76-4.05-2.79-4.54c-2.02-0.49-4.06,0.76-4.54,2.79l-4.26,17.8
	c-0.3,1.27,0.07,2.61,1,3.54c0.71,0.71,1.68,1.1,2.66,1.1c0.29,0,0.59-0.03,0.88-0.1l17.8-4.26c2.02-0.48,3.27-2.52,2.79-4.54
	C255.76,180.5,253.73,179.25,251.7,179.73z"/>
<path class="st0" d="M217.02,205.15c-0.88-1.88-3.12-2.7-5.01-1.82c-34.8,16.28-76.44,8.96-103.62-18.22
	c-17.3-17.3-26.83-40.31-26.83-64.78c0-22.5,8.08-43.75,22.83-60.48l-1.06,4.45c-0.48,2.02,0.76,4.05,2.79,4.54
	c0.29,0.07,0.59,0.1,0.88,0.1c1.7,0,3.25-1.16,3.66-2.89l4.26-17.8c0.3-1.27-0.07-2.61-1-3.54c-0.93-0.93-2.27-1.3-3.54-1
	l-17.8,4.26c-2.02,0.48-3.27,2.52-2.79,4.54c0.48,2.02,2.52,3.27,4.54,2.79l5.1-1.22c-16.41,18.22-25.39,41.55-25.39,66.25
	c0,26.48,10.31,51.38,29.04,70.1c18.97,18.97,44.46,29,70.27,29c14.2,0,28.5-3.04,41.87-9.29
	C217.08,209.27,217.9,207.03,217.02,205.15z"/>
<g>
	<path class="st0" d="M155.94,295.62c0,0.87-0.71,1.58-1.58,1.58s-1.58-0.71-1.58-1.58v-6.58h-7.81v6.58c0,0.87-0.71,1.58-1.58,1.58
		s-1.58-0.71-1.58-1.58v-15.65c0-0.87,0.71-1.58,1.58-1.58s1.58,0.71,1.58,1.58v6.17h7.81v-6.17c0-0.87,0.71-1.58,1.58-1.58
		s1.58,0.71,1.58,1.58V295.62z"/>
	<path class="st0" d="M164.41,296.2l-6.2-15.62c-0.08-0.19-0.11-0.36-0.11-0.6c0-0.87,0.71-1.58,1.58-1.58
		c0.79,0,1.28,0.49,1.45,0.93l4.75,12.59l4.75-12.59c0.16-0.41,0.66-0.93,1.45-0.93c0.87,0,1.58,0.71,1.58,1.58
		c0,0.25-0.03,0.41-0.11,0.6l-6.2,15.62c-0.22,0.55-0.66,1.01-1.47,1.01C165.07,297.21,164.63,296.74,164.41,296.2z"/>
	<path class="st0" d="M177.37,292.21l-1.67,3.96c-0.25,0.57-0.76,1.04-1.47,1.04c-0.85,0-1.56-0.71-1.56-1.56
		c0-0.16,0.03-0.38,0.11-0.57l6.45-15.71c0.16-0.38,0.6-0.98,1.45-0.98c0.85,0,1.28,0.6,1.45,0.98l6.45,15.71
		c0.08,0.19,0.11,0.41,0.11,0.57c0,0.85-0.71,1.56-1.56,1.56c-0.71,0-1.23-0.46-1.47-1.04l-1.67-3.96H177.37z M180.67,283.58
		l-2.24,5.74h4.48L180.67,283.58z"/>
	<path class="st0" d="M189.31,287.81c0-6.47,3.11-9.59,8.55-9.59c3.3,0,5.46,1.31,6.58,2.95c0.22,0.33,0.3,0.6,0.3,0.9
		c0,0.79-0.65,1.45-1.47,1.45c-0.38,0-0.76-0.16-1.12-0.55c-1.12-1.23-2.29-1.91-4.29-1.91c-3.63,0-5.27,2.24-5.27,6.75
		c0,4.78,1.64,6.72,5.27,6.72c2.02,0,3.12-0.46,4.43-1.8c0.44-0.44,0.79-0.6,1.17-0.6c0.82,0,1.47,0.66,1.47,1.47
		c0,0.33-0.11,0.6-0.27,0.82c-1.31,1.75-3.88,2.95-6.8,2.95C192.42,297.37,189.31,294.5,189.31,287.81z"/>
	<path class="st0" d="M88.7,320.6c0-6.47,3.14-9.59,8.66-9.59s8.66,3.11,8.66,9.59c0,6.39-3.14,9.56-8.66,9.56
		S88.7,326.99,88.7,320.6z M91.98,320.6c0,4.51,1.78,6.72,5.38,6.72s5.38-2.21,5.38-6.72c0-4.53-1.78-6.75-5.38-6.75
		S91.98,316.07,91.98,320.6z"/>
	<path class="st0" d="M111.76,322.62v5.79c0,0.87-0.71,1.58-1.58,1.58s-1.58-0.71-1.58-1.58v-15.43c0-0.87,0.71-1.58,1.58-1.58h5.22
		c3.2,0,5.74,1.78,5.74,5.6c0,3.77-2.49,5.63-5.74,5.63H111.76z M111.76,314.24v5.54h3.39c1.69,0,2.7-1.01,2.7-2.79
		c0-1.8-1.04-2.76-2.7-2.76H111.76z"/>
	<path class="st0" d="M131.35,314.18v14.23c0,0.87-0.71,1.58-1.58,1.58s-1.58-0.71-1.58-1.58v-14.23h-4.18
		c-0.76,0-1.39-0.63-1.39-1.39c0-0.76,0.63-1.39,1.39-1.39h11.53c0.76,0,1.39,0.63,1.39,1.39c0,0.77-0.63,1.39-1.39,1.39H131.35z"/>
	<path class="st0" d="M142.31,328.41c0,0.87-0.71,1.58-1.58,1.58s-1.58-0.71-1.58-1.58v-15.65c0-0.87,0.71-1.58,1.58-1.58
		s1.58,0.71,1.58,1.58V328.41z"/>
	<path class="st0" d="M152.86,326.12l-4.29-7.62v9.94c0,0.85-0.71,1.56-1.56,1.56c-0.85,0-1.56-0.71-1.56-1.56v-15.71
		c0-0.85,0.71-1.56,1.56-1.56c0.68,0,1.12,0.38,1.39,0.87l5.79,10.38l5.79-10.38c0.27-0.49,0.71-0.87,1.39-0.87
		c0.85,0,1.56,0.71,1.56,1.56v15.71c0,0.85-0.71,1.56-1.56,1.56s-1.56-0.71-1.56-1.56v-9.94l-4.29,7.62
		c-0.27,0.49-0.79,0.76-1.34,0.76C153.65,326.88,153.13,326.61,152.86,326.12z"/>
	<path class="st0" d="M169.39,328.41c0,0.87-0.71,1.58-1.58,1.58s-1.58-0.71-1.58-1.58v-15.65c0-0.87,0.71-1.58,1.58-1.58
		s1.58,0.71,1.58,1.58V328.41z"/>
	<path class="st0" d="M172.86,329.78c-0.79,0-1.42-0.63-1.42-1.42c0-0.3,0.11-0.63,0.27-0.85l9.18-13.33h-7.51
		c-0.76,0-1.39-0.63-1.39-1.39c0-0.76,0.63-1.39,1.39-1.39h10.32c0.77,0,1.39,0.63,1.39,1.39c0,0.25-0.05,0.52-0.25,0.79
		l-9.15,13.36h8.33c0.79,0,1.42,0.63,1.42,1.42s-0.63,1.42-1.42,1.42H172.86z"/>
	<path class="st0" d="M191.03,325l-1.67,3.96c-0.25,0.57-0.77,1.04-1.47,1.04c-0.85,0-1.56-0.71-1.56-1.56
		c0-0.16,0.03-0.38,0.11-0.57l6.45-15.71c0.16-0.38,0.6-0.98,1.45-0.98c0.85,0,1.28,0.6,1.45,0.98l6.45,15.71
		c0.08,0.19,0.11,0.41,0.11,0.57c0,0.85-0.71,1.56-1.56,1.56c-0.71,0-1.23-0.46-1.47-1.04l-1.67-3.96H191.03z M194.33,316.37
		l-2.24,5.74h4.48L194.33,316.37z"/>
	<path class="st0" d="M209.44,314.18v14.23c0,0.87-0.71,1.58-1.58,1.58c-0.88,0-1.58-0.71-1.58-1.58v-14.23h-4.18
		c-0.76,0-1.39-0.63-1.39-1.39c0-0.76,0.63-1.39,1.39-1.39h11.53c0.76,0,1.39,0.63,1.39,1.39c0,0.77-0.63,1.39-1.39,1.39H209.44z"/>
	<path class="st0" d="M220.4,328.41c0,0.87-0.71,1.58-1.58,1.58c-0.87,0-1.58-0.71-1.58-1.58v-15.65c0-0.87,0.71-1.58,1.58-1.58
		c0.88,0,1.58,0.71,1.58,1.58V328.41z"/>
	<path class="st0" d="M222.97,320.6c0-6.47,3.14-9.59,8.66-9.59s8.66,3.11,8.66,9.59c0,6.39-3.14,9.56-8.66,9.56
		S222.97,326.99,222.97,320.6z M226.25,320.6c0,4.51,1.78,6.72,5.38,6.72s5.38-2.21,5.38-6.72c0-4.53-1.78-6.75-5.38-6.75
		S226.25,316.07,226.25,320.6z"/>
	<path class="st0" d="M256.74,312.73v15.71c0,0.85-0.71,1.56-1.56,1.56c-0.52,0-1.01-0.27-1.28-0.68l-8.06-11.64v10.76
		c0,0.85-0.71,1.56-1.56,1.56c-0.85,0-1.56-0.71-1.56-1.56v-15.71c0-0.85,0.71-1.56,1.56-1.56c0.55,0,0.98,0.25,1.26,0.66
		l8.08,11.72v-10.82c0-0.85,0.71-1.56,1.56-1.56S256.74,311.89,256.74,312.73z"/>
</g>
<path class="st0" d="M173.77,135.37c-5.85-5.36-6.04-11.69,0.12-16.75c3.23-2.65,4.11-5.08,1.8-8.59c-0.44-0.67-0.72-1.49-0.91-2.28
	c-0.74-3.05-2.53-3.98-5.68-3.69c-3.23,0.3-6.39,0.88-9.47-2.05c-3.3-3.15-4.15-6.37-3.7-10.53c0.16-1.52,0.19-4-0.65-4.51
	c-2.89-1.74-6.12-3.42-9.38-3.82c-1.49-0.18-3.49,2.54-5.02,4.17c-4.15,4.46-11.12,4.49-15.22-0.01c-5.31-5.83-2.95-4.87-10.44-2.44
	c-4.28,1.39-5.59,3.64-4.67,7.76c0.83,3.71-0.63,6.38-3.37,8.97c-2.2,2.08-4.27,2.98-7.23,2.71c-2.23-0.2-5.62-0.65-6.57,0.54
	c-2.04,2.57-3.38,6.04-3.88,9.32c-0.21,1.39,2.22,3.4,3.74,4.82c5.13,4.78,5.11,11.19-0.14,15.96c-1.39,1.26-3.83,2.97-3.63,4.08
	c0.62,3.41,1.9,6.88,3.74,9.81c0.7,1.11,3.64,0.81,5.56,1.15c7.46-0.78,12.46,3.75,11.65,10.91c-0.53,4.7,0.81,7.21,5.33,8.19
	c0.79,0.17,1.58,0.51,2.27,0.93c2.25,1.38,4.05,1.04,5.58-1.15c0.7-1,1.62-1.85,2.44-2.76c3.54-3.96,10.71-3.99,14.28-0.11
	c1.56,1.7,3.37,4.77,4.83,4.64c3.39-0.3,6.79-1.89,9.83-3.6c0.92-0.52,0.97-3.13,0.91-4.77c-0.31-9.22,3.64-13.16,12.79-12.67
	c1.45,0.08,3.81,0.35,4.22-0.36c1.76-3.04,3.33-6.32,4.12-9.72C177.32,138.46,175.11,136.6,173.77,135.37z M145.63,144.63
	c-5,5.6-13.6,7.25-21.66,4.15c-10.17-3.91-14.62-16.45-9.3-26.4c0.93-1.74,2.02-3.43,3.26-4.96c4.76-5.87,10.55-11.12,10.61-20.14
	c4.09,4.29,3.97,8.62,3.09,13.15c-0.47,2.44-1.08,4.91-1.07,7.36c0.01,4,2.02,7.02,5.78,8.51c3.8,1.5,7.38,0.87,10.49-1.91
	c0.53-0.47,1.05-0.95,1.61-1.45C151.98,129.63,150.75,138.89,145.63,144.63z"/>
<path class="st0" d="M252.13,119.45c-5.35-4.9-5.52-10.69,0.11-15.31c2.95-2.42,3.75-4.65,1.65-7.85c-0.4-0.61-0.66-1.36-0.83-2.08
	c-0.68-2.78-2.31-3.64-5.19-3.37c-2.96,0.28-5.84,0.8-8.65-1.88c-3.02-2.88-3.79-5.82-3.38-9.62c0.15-1.39,0.17-3.66-0.59-4.12
	c-2.64-1.59-5.59-3.13-8.57-3.5c-1.36-0.17-3.19,2.32-4.58,3.81c-3.79,4.08-10.16,4.1-13.91-0.01c-4.86-5.33-2.7-4.45-9.54-2.23
	c-3.91,1.27-5.11,3.33-4.27,7.09c0.76,3.39-0.57,5.83-3.08,8.2c-2.01,1.9-3.9,2.72-6.61,2.48c-2.04-0.18-5.14-0.59-6,0.49
	c-1.86,2.35-3.09,5.52-3.54,8.52c-0.19,1.27,2.03,3.11,3.42,4.4c4.69,4.37,4.67,10.22-0.12,14.59c-1.27,1.16-3.5,2.71-3.32,3.73
	c0.56,3.12,1.73,6.29,3.42,8.97c0.64,1.02,3.33,0.74,5.08,1.05c6.82-0.71,11.39,3.43,10.65,9.98c-0.49,4.29,0.74,6.59,4.88,7.48
	c0.72,0.15,1.44,0.46,2.07,0.85c2.06,1.26,3.7,0.95,5.1-1.05c0.64-0.91,1.48-1.69,2.23-2.53c3.23-3.62,9.79-3.65,13.05-0.1
	c1.43,1.55,3.08,4.36,4.41,4.24c3.09-0.28,6.21-1.73,8.99-3.29c0.84-0.47,0.88-2.86,0.83-4.36c-0.28-8.42,3.33-12.03,11.69-11.58
	c1.32,0.07,3.48,0.32,3.86-0.33c1.61-2.78,3.04-5.78,3.76-8.88C255.37,122.28,253.36,120.58,252.13,119.45z M238.26,107.6
	c-0.47,1.72-1.76,2.01-3.35,1.48c-0.7-0.23-1.43-0.38-2.15-0.56c-5.43-1.4-8.15-0.7-12.72,3.44c2.43,1.39,4.75,2.81,7.17,4.04
	c0.55,0.28,1.44,0.03,2.14-0.13c2.09-0.49,4.16-1.1,6.26-1.56c1.35-0.29,2.61,0.3,2.59,1.67c-0.02,0.91-0.87,2.25-1.69,2.61
	c-1.87,0.82-3.96,1.16-6.33,1.79c0.47,1.83,0.9,3.59,1.39,5.32c0.47,1.68,0.81,3.43-1.36,4.01c-2.09,0.56-2.62-1.1-3-2.71
	c-0.1-0.43-0.33-0.85-0.35-1.28c-0.2-5.86-4.8-7.52-9.41-9.85c0,3.08-0.05,5.85,0.05,8.61c0.02,0.48,0.57,1,0.97,1.41
	c1.44,1.49,2.94,2.94,4.4,4.42c1.08,1.1,1.41,2.39,0.24,3.53c-1.19,1.16-2.47,0.71-3.51-0.39c-1.37-1.45-2.69-2.94-4.64-5.09
	c-1.65,1.97-2.93,3.58-4.3,5.12c-1.03,1.16-2.34,1.47-3.51,0.31c-1.2-1.18-0.77-2.41,0.37-3.47c0.54-0.51,0.96-1.18,1.57-1.58
	c4.84-3.11,4.04-7.83,3.7-12.93c-3.6,2.48-8.46,2.93-8.94,8.4c-0.11,1.31-0.42,2.73-1.1,3.82c-0.51,0.82-1.78,1.7-2.64,1.63
	c-1.39-0.12-2.01-1.39-1.62-2.87c0.53-2.07,1.09-4.12,1.7-6.39c-2.09-0.57-3.99-1.11-5.9-1.61c-1.56-0.41-2.64-1.2-2.17-2.98
	c0.45-1.71,1.82-1.71,3.23-1.43c0.51,0.1,1.04,0.19,1.5,0.42c5.25,2.63,9.31,0.1,13.5-3.22c-2.52-1.44-4.9-2.92-7.4-4.13
	c-0.65-0.32-1.7,0.12-2.55,0.32c-1.8,0.43-3.57,1.17-5.38,1.33c-0.92,0.08-2.38-0.56-2.81-1.32c-0.71-1.26,0.08-2.44,1.53-2.88
	c2.11-0.64,4.23-1.23,6.43-1.86c-0.58-2.22-1.09-4.22-1.63-6.22c-0.39-1.46,0.04-2.57,1.49-2.98c1.45-0.42,2.43,0.3,2.85,1.74
	c0.19,0.64,0.47,1.28,0.51,1.93c0.31,5.81,4.61,7.9,9.61,10.06c-0.54-4.2,1.62-8.58-2.82-11.71c-1.07-0.76-1.9-1.87-2.83-2.83
	c-1.02-1.05-1.29-2.22-0.21-3.34c1.09-1.13,2.31-0.91,3.33,0.12c1.51,1.51,2.94,3.09,4.7,4.96c1.66-1.78,3.01-3.24,4.38-4.68
	c1.1-1.15,2.38-1.73,3.65-0.39c1.16,1.22,0.68,2.44-0.4,3.51c-0.32,0.31-0.58,0.71-0.95,0.94c-5.04,3.21-4.93,8.06-4.17,13.52
	c2.53-1.47,4.97-2.82,7.31-4.32c0.46-0.29,0.64-1.13,0.82-1.75c0.6-2.06,1.1-4.16,1.72-6.22c0.4-1.33,1.4-1.93,2.77-1.56
	c1.38,0.37,1.87,1.38,1.54,2.74c-0.5,2.08-1.05,4.15-1.65,6.51c2.18,0.6,4.1,1.13,6.01,1.67
	C237.61,105.16,238.71,105.94,238.26,107.6z"/>
</svg>
