<?xml version="1.0" encoding="utf-8"?>
<!-- Generator: Adobe Illustrator 27.9.0, SVG Export Plug-In . SVG Version: 6.00 Build 0)  -->
<svg version="1.1" xmlns="http://www.w3.org/2000/svg" xmlns:xlink="http://www.w3.org/1999/xlink" x="0px" y="0px"
	 viewBox="0 0 360 360" style="enable-background:new 0 0 360 360;" xml:space="preserve">
<style type="text/css">
	.st0{fill:#FFFFFF;}
	.st1{fill:none;stroke:#FFFFFF;stroke-width:6.2341;stroke-miterlimit:10;}
</style>
<g id="Layer_1">
</g>
<g id="Layer_2">
	<g>
		<path class="st0" d="M120.39,305.5c0-6.47,3.12-9.59,8.55-9.59c3.3,0,5.46,1.31,6.58,2.95c0.22,0.33,0.3,0.6,0.3,0.9
			c0,0.79-0.66,1.45-1.48,1.45c-0.38,0-0.76-0.16-1.12-0.55c-1.12-1.23-2.29-1.91-4.29-1.91c-3.63,0-5.27,2.24-5.27,6.75
			c0,4.78,1.64,6.72,5.27,6.72c2.02,0,3.11-0.46,4.42-1.8c0.44-0.44,0.79-0.6,1.17-0.6c0.82,0,1.48,0.65,1.48,1.47
			c0,0.33-0.11,0.6-0.27,0.82c-1.31,1.75-3.88,2.95-6.8,2.95C123.5,315.06,120.39,312.19,120.39,305.5z"/>
		<path class="st0" d="M141.75,304.03h5.16c0.77,0,1.39,0.63,1.39,1.39c0,0.77-0.63,1.39-1.39,1.39h-5.16v5.03h7.24
			c0.79,0,1.42,0.63,1.42,1.42c0,0.79-0.63,1.42-1.42,1.42h-8.82c-0.87,0-1.58-0.71-1.58-1.58v-15.21c0-0.88,0.71-1.58,1.58-1.58
			h8.52c0.79,0,1.42,0.63,1.42,1.42c0,0.79-0.63,1.42-1.42,1.42h-6.94V304.03z"/>
		<path class="st0" d="M156.04,307.63v5.68c0,0.87-0.71,1.58-1.58,1.58c-0.87,0-1.58-0.71-1.58-1.58v-15.43
			c0-0.88,0.71-1.58,1.58-1.58h5.22c3.69,0,5.76,2.62,5.76,5.71c0,2.6-1.58,5.11-4.21,5.44l4.04,4.92c0.25,0.33,0.33,0.66,0.33,0.96
			c0,0.87-0.71,1.58-1.58,1.58c-0.46,0-0.96-0.22-1.23-0.57l-4.97-6.69H156.04z M156.04,299.14v5.71h3.69
			c1.69,0,2.43-1.39,2.43-2.84c0-1.47-0.74-2.87-2.51-2.87H156.04z"/>
		<path class="st0" d="M175.44,299.08v14.23c0,0.87-0.71,1.58-1.58,1.58c-0.88,0-1.59-0.71-1.59-1.58v-14.23h-4.18
			c-0.77,0-1.39-0.63-1.39-1.39c0-0.77,0.63-1.39,1.39-1.39h11.53c0.77,0,1.39,0.63,1.39,1.39c0,0.76-0.63,1.39-1.39,1.39H175.44z"
			/>
		<path class="st0" d="M186.4,313.31c0,0.87-0.71,1.58-1.58,1.58c-0.87,0-1.58-0.71-1.58-1.58v-15.65c0-0.88,0.71-1.58,1.58-1.58
			c0.88,0,1.58,0.71,1.58,1.58V313.31z"/>
		<path class="st0" d="M192.85,313.31c0,0.87-0.71,1.58-1.58,1.58c-0.87,0-1.58-0.71-1.58-1.58v-15.43c0-0.88,0.71-1.58,1.58-1.58
			h8.52c0.79,0,1.42,0.63,1.42,1.42c0,0.79-0.63,1.42-1.42,1.42h-6.94v5.05h5.16c0.77,0,1.39,0.63,1.39,1.39
			c0,0.77-0.63,1.39-1.39,1.39h-5.16V313.31z"/>
		<path class="st0" d="M207.14,313.31c0,0.87-0.71,1.58-1.58,1.58c-0.87,0-1.58-0.71-1.58-1.58v-15.65c0-0.88,0.71-1.58,1.58-1.58
			c0.88,0,1.58,0.71,1.58,1.58V313.31z"/>
		<path class="st0" d="M213.59,304.03h5.16c0.77,0,1.39,0.63,1.39,1.39c0,0.77-0.63,1.39-1.39,1.39h-5.16v5.03h7.24
			c0.79,0,1.42,0.63,1.42,1.42c0,0.79-0.63,1.42-1.42,1.42H212c-0.87,0-1.58-0.71-1.58-1.58v-15.21c0-0.88,0.71-1.58,1.58-1.58h8.52
			c0.79,0,1.42,0.63,1.42,1.42c0,0.79-0.63,1.42-1.42,1.42h-6.94V304.03z"/>
		<path class="st0" d="M229.98,296.3c5.44,0,8.88,2.46,8.88,9.2s-3.44,9.18-8.88,9.18h-3.69c-0.87,0-1.58-0.71-1.58-1.58v-15.21
			c0-0.88,0.71-1.58,1.58-1.58H229.98z M227.88,311.84h2.1c3.5,0,5.6-1.58,5.6-6.34c0-4.75-2.1-6.36-5.6-6.36h-2.1V311.84z"/>
		<path class="st0" d="M82.2,336.82h5.16c0.77,0,1.39,0.63,1.39,1.39c0,0.77-0.63,1.39-1.39,1.39H82.2v5.03h7.24
			c0.79,0,1.42,0.63,1.42,1.42c0,0.79-0.63,1.42-1.42,1.42h-8.82c-0.87,0-1.58-0.71-1.58-1.58v-15.21c0-0.88,0.71-1.58,1.58-1.58
			h8.52c0.79,0,1.42,0.63,1.42,1.42c0,0.79-0.63,1.42-1.42,1.42H82.2V336.82z"/>
		<path class="st0" d="M92.62,338.29c0-6.47,3.12-9.59,8.55-9.59c3.3,0,5.46,1.31,6.58,2.95c0.22,0.33,0.3,0.6,0.3,0.9
			c0,0.79-0.66,1.45-1.48,1.45c-0.38,0-0.76-0.16-1.12-0.55c-1.12-1.23-2.29-1.91-4.29-1.91c-3.63,0-5.27,2.24-5.27,6.75
			c0,4.78,1.64,6.72,5.27,6.72c2.02,0,3.11-0.46,4.42-1.8c0.44-0.44,0.79-0.6,1.17-0.6c0.82,0,1.48,0.65,1.48,1.47
			c0,0.33-0.11,0.6-0.27,0.82c-1.31,1.75-3.88,2.95-6.8,2.95C95.73,347.85,92.62,344.98,92.62,338.29z"/>
		<path class="st0" d="M110.1,338.29c0-6.47,3.14-9.59,8.66-9.59c5.52,0,8.66,3.11,8.66,9.59c0,6.39-3.14,9.56-8.66,9.56
			C113.24,347.85,110.1,344.68,110.1,338.29z M113.38,338.29c0,4.51,1.78,6.72,5.38,6.72c3.6,0,5.38-2.21,5.38-6.72
			c0-4.53-1.78-6.75-5.38-6.75C115.16,331.54,113.38,333.76,113.38,338.29z"/>
		<path class="st0" d="M136.25,339.66h-5.46c-0.68,0-1.26-0.57-1.26-1.26c0-0.68,0.57-1.26,1.26-1.26h5.46
			c0.68,0,1.26,0.57,1.26,1.26C137.51,339.08,136.93,339.66,136.25,339.66z"/>
		<path class="st0" d="M143.49,336.82h5.16c0.77,0,1.39,0.63,1.39,1.39c0,0.77-0.63,1.39-1.39,1.39h-5.16v5.03h7.24
			c0.79,0,1.42,0.63,1.42,1.42c0,0.79-0.63,1.42-1.42,1.42h-8.82c-0.87,0-1.58-0.71-1.58-1.58v-15.21c0-0.88,0.71-1.58,1.58-1.58
			h8.52c0.79,0,1.42,0.63,1.42,1.42c0,0.79-0.63,1.42-1.42,1.42h-6.94V336.82z"/>
		<path class="st0" d="M168.49,330.43v15.71c0,0.85-0.71,1.56-1.56,1.56c-0.52,0-1.01-0.27-1.28-0.68l-8.06-11.63v10.76
			c0,0.85-0.71,1.56-1.56,1.56c-0.85,0-1.56-0.71-1.56-1.56v-15.71c0-0.85,0.71-1.56,1.56-1.56c0.55,0,0.98,0.25,1.26,0.65
			l8.08,11.72v-10.82c0-0.85,0.71-1.56,1.56-1.56S168.49,329.58,168.49,330.43z"/>
		<path class="st0" d="M179.31,331.87v14.23c0,0.87-0.71,1.58-1.58,1.58c-0.88,0-1.59-0.71-1.59-1.58v-14.23h-4.18
			c-0.77,0-1.39-0.63-1.39-1.39c0-0.77,0.63-1.39,1.39-1.39h11.53c0.77,0,1.39,0.63,1.39,1.39c0,0.76-0.63,1.39-1.39,1.39H179.31z"
			/>
		<path class="st0" d="M190.27,336.82h5.16c0.77,0,1.39,0.63,1.39,1.39c0,0.77-0.63,1.39-1.39,1.39h-5.16v5.03h7.24
			c0.79,0,1.42,0.63,1.42,1.42c0,0.79-0.63,1.42-1.42,1.42h-8.82c-0.87,0-1.58-0.71-1.58-1.58v-15.21c0-0.88,0.71-1.58,1.58-1.58
			h8.52c0.79,0,1.42,0.63,1.42,1.42c0,0.79-0.63,1.42-1.42,1.42h-6.94V336.82z"/>
		<path class="st0" d="M204.56,340.42v5.68c0,0.87-0.71,1.58-1.58,1.58c-0.87,0-1.58-0.71-1.58-1.58v-15.43
			c0-0.88,0.71-1.58,1.58-1.58h5.22c3.69,0,5.76,2.62,5.76,5.71c0,2.6-1.58,5.11-4.21,5.44l4.04,4.92c0.25,0.33,0.33,0.66,0.33,0.96
			c0,0.87-0.71,1.58-1.58,1.58c-0.46,0-0.96-0.22-1.23-0.57l-4.97-6.69H204.56z M204.56,331.93v5.71h3.69
			c1.69,0,2.43-1.39,2.43-2.84c0-1.47-0.74-2.87-2.51-2.87H204.56z"/>
		<path class="st0" d="M219.86,340.31v5.79c0,0.87-0.71,1.58-1.58,1.58c-0.87,0-1.58-0.71-1.58-1.58v-15.43
			c0-0.88,0.71-1.58,1.58-1.58h5.22c3.2,0,5.74,1.77,5.74,5.6c0,3.77-2.49,5.63-5.74,5.63H219.86z M219.86,331.93v5.54h3.39
			c1.69,0,2.71-1.01,2.71-2.79c0-1.8-1.04-2.76-2.71-2.76H219.86z"/>
		<path class="st0" d="M234.94,340.42v5.68c0,0.87-0.71,1.58-1.58,1.58c-0.87,0-1.58-0.71-1.58-1.58v-15.43
			c0-0.88,0.71-1.58,1.58-1.58h5.22c3.69,0,5.76,2.62,5.76,5.71c0,2.6-1.58,5.11-4.21,5.44l4.04,4.92c0.25,0.33,0.33,0.66,0.33,0.96
			c0,0.87-0.71,1.58-1.58,1.58c-0.46,0-0.96-0.22-1.23-0.57l-4.97-6.69H234.94z M234.94,331.93v5.71h3.69
			c1.69,0,2.43-1.39,2.43-2.84c0-1.47-0.74-2.87-2.51-2.87H234.94z"/>
		<path class="st0" d="M250.24,346.1c0,0.87-0.71,1.58-1.58,1.58c-0.87,0-1.58-0.71-1.58-1.58v-15.65c0-0.88,0.71-1.58,1.58-1.58
			c0.88,0,1.58,0.71,1.58,1.58V346.1z"/>
		<path class="st0" d="M259.8,331.54c-2.27,0-3.11,1.07-3.11,2.16c0,3.58,9.97,1.91,9.97,8.74c0,3.33-2.35,5.41-6.86,5.41
			c-3.25,0-5.84-1.61-6.91-3.33c-0.14-0.22-0.22-0.49-0.22-0.77c0-0.82,0.65-1.47,1.45-1.47c0.6,0,0.93,0.33,1.2,0.6
			c1.15,1.15,2.6,2.07,4.48,2.07c2.49,0,3.69-0.82,3.69-2.51c0-3.99-9.97-2.16-9.97-8.74c0-2.71,1.94-5,6.28-5
			c2.73,0,5.11,1.01,6.2,2.57c0.16,0.25,0.27,0.55,0.27,0.88c0,0.79-0.66,1.45-1.47,1.45c-0.38,0-0.77-0.22-1.18-0.6
			C262.78,332.17,261.36,331.54,259.8,331.54z"/>
		<path class="st0" d="M272.35,336.82h5.16c0.77,0,1.39,0.63,1.39,1.39c0,0.77-0.63,1.39-1.39,1.39h-5.16v5.03h7.24
			c0.79,0,1.42,0.63,1.42,1.42c0,0.79-0.63,1.42-1.42,1.42h-8.82c-0.87,0-1.58-0.71-1.58-1.58v-15.21c0-0.88,0.71-1.58,1.58-1.58
			h8.52c0.79,0,1.42,0.63,1.42,1.42c0,0.79-0.63,1.42-1.42,1.42h-6.94V336.82z"/>
	</g>
	<g>
		<path class="st0" d="M200.16,84.95c1.1,0,1.65,0.49,1.65,1.45v6.28c0,0.97-0.55,1.45-1.65,1.45h-31.31c-1.86,0-3.4,0.14-4.62,0.43
			c-1.22,0.29-2.2,0.77-2.94,1.45c-0.74,0.68-1.25,1.61-1.54,2.78c-0.29,1.17-0.43,2.61-0.43,4.33v0.66h28.82
			c1.05,0,1.58,0.49,1.58,1.45v5.22c0,0.97-0.53,1.45-1.58,1.45h-28.82v1.12c0,1.72,0.14,3.16,0.43,4.33
			c0.29,1.17,0.8,2.09,1.54,2.78c0.74,0.68,1.72,1.17,2.94,1.45c1.22,0.29,2.76,0.43,4.62,0.43h31.31c1.1,0,1.65,0.49,1.65,1.45
			v6.28c0,0.97-0.55,1.45-1.65,1.45h-31.52c-3.63,0-6.71-0.31-9.24-0.93c-2.53-0.62-4.6-1.62-6.2-3.01
			c-1.6-1.39-2.77-3.19-3.51-5.42c-0.74-2.22-1.11-4.92-1.11-8.1v-11.37c0-3.17,0.37-5.86,1.11-8.06c0.74-2.2,1.91-4,3.51-5.39
			c1.6-1.39,3.66-2.4,6.2-3.04c2.53-0.64,5.61-0.96,9.24-0.96H200.16z"/>
		<path class="st0" d="M179.61,173.51c-17.39,0-34.77-6.62-48.01-19.85c-26.47-26.47-26.47-69.54,0-96.02
			c26.47-26.47,69.55-26.47,96.02,0c26.47,26.47,26.47,69.55,0,96.02C214.38,166.89,197,173.51,179.61,173.51z M179.61,51.11
			c-13.97,0-27.95,5.32-38.58,15.96c-21.28,21.28-21.28,55.89,0,77.17c21.28,21.27,55.89,21.27,77.17,0
			c21.27-21.28,21.27-55.89,0-77.17C207.56,56.43,193.58,51.11,179.61,51.11z"/>
		<path class="st0" d="M204.89,84.25c-0.63-0.65-0.94-1.48-0.94-2.5c0-1.18,0.39-2.45,1.17-3.8c0.78-1.36,1.76-2.5,2.95-3.43
			c1.19-0.93,2.35-1.39,3.49-1.39c1.24,0,1.86,0.61,1.86,1.83c0,0.98-0.37,1.89-1.11,2.74c-0.74,0.85-1.69,1.54-2.85,2.08
			c-1.16,0.54-2.32,0.87-3.48,0.99c-0.08,0.34-0.12,0.7-0.12,1.08c0,0.72,0.18,1.32,0.54,1.8s0.97,0.72,1.83,0.72
			c1.22,0,2.45-0.51,3.69-1.53c1.24-1.02,2.25-2.28,3.03-3.77l0.36,0.27c-0.8,1.78-1.91,3.2-3.33,4.28
			c-1.42,1.08-2.88,1.62-4.37,1.62C206.42,85.22,205.52,84.9,204.89,84.25z M208.77,78.93c0.92-0.54,1.7-1.17,2.35-1.9
			c0.65-0.73,0.97-1.49,0.97-2.29c0-0.24-0.04-0.41-0.13-0.52c-0.09-0.11-0.25-0.16-0.49-0.16c-0.62,0-1.29,0.31-2.02,0.93
			c-0.73,0.62-1.4,1.41-2.01,2.37c-0.61,0.96-1.04,1.91-1.3,2.85C206.97,79.89,207.85,79.47,208.77,78.93z"/>
	</g>
	<path class="st1" d="M182.07,20.64c3.22,1.01,5.94,2.78,8.44,5.06c2.41,2.19,5.18,1.72,7.9,0.51c2.87-1.28,5.8-1.6,8.86-0.82
		c3.85,0.98,6.91,3.11,8.58,6.7c1.95,4.19,4.96,5.71,9.53,5.37c6.61-0.49,12.82,4.92,13.45,11.54c0.41,4.28,2.4,6.77,6.55,8.05
		c7.14,2.2,10.81,8.63,9.14,15.91c-0.95,4.14,0.22,7.04,3.59,9.56c5.79,4.33,7.14,11.86,3.16,17.93c-2.38,3.63-2.33,6.77,0.05,10.37
		c3.91,5.93,2.61,13.46-3.12,17.77c-3.62,2.72-4.65,5.81-3.55,10.15c1.58,6.21-2.25,12.89-8.3,15.15c-0.4,0.15-0.81,0.3-1.23,0.4
		c-3.95,0.98-5.82,3.55-6.26,7.55c-0.78,7.11-6.43,12.19-13.57,11.85c-4.68-0.22-7.52,1.48-9.59,5.67
		c-2.94,5.94-10.43,8.54-16.54,5.88c-4.08-1.78-7.33-1.34-10.62,1.78c-5.05,4.81-12.83,4.85-17.87,0.03
		c-3.29-3.14-6.46-3.66-10.57-1.84c-6.21,2.74-13.63,0.1-16.66-5.98c-2.04-4.1-4.88-5.76-9.47-5.53
		c-7.01,0.34-12.56-4.37-13.53-11.37c-0.62-4.48-2.64-7.06-7.11-8.34c-6.49-1.86-10.37-8.78-8.76-15.43
		c1.07-4.41-0.11-7.42-3.71-10.07c-5.46-4.02-6.84-11.77-3.08-17.45c2.53-3.83,2.49-7.12-0.03-10.93c-3.71-5.6-2.41-13.25,3-17.29
		c3.75-2.8,4.83-5.91,3.8-10.46c-1.53-6.71,2.45-13.25,9.06-15.24c4.11-1.24,6.14-3.61,6.78-7.89c1.17-7.81,6.69-12.14,14.52-11.76
		c3.65,0.18,6.15-1.18,7.91-4.44c4.09-7.6,10.33-9.82,18.38-6.66c2.85,1.12,5.34,1.04,7.9-0.87c2.44-1.82,5.16-3.26,7.76-4.86
		C178.6,20.64,180.34,20.64,182.07,20.64z"/>
	<path class="st1" d="M221.32,212.27c-0.53,1.04-1.04,2.03-1.53,3.02c-3.59,7.33-7.2,14.65-10.76,21.99
		c-1.33,2.74-3.2,4.65-6.45,4.6c-3.15-0.05-4.94-1.96-6.21-4.63c-5.04-10.61-10.12-21.2-15.19-31.8c-0.21-0.44-0.38-0.9-0.49-1.17
		c3.37-1.02,7.04-1.46,9.94-3.18c3.59-2.14,6.91-2.13,10.86-1.74c8.94,0.88,16.4-2.56,22.1-9.52c1.22-1.49,2.32-2.49,4.38-2.7
		c5.64-0.59,10.41-3.23,14.56-6.97c0.2,0.15,0.35,0.2,0.4,0.3c4.63,9.64,9.28,19.27,13.86,28.93c1.14,2.4,0.98,4.82-0.72,6.97
		c-1.9,2.41-4.49,2.75-7.27,2.14c-6.38-1.42-12.75-2.91-19.12-4.36C226.95,213.52,224.21,212.92,221.32,212.27z"/>
	<path class="st1" d="M116.51,180.05c4.76,4.28,10.11,6.84,16.38,7.38c0.62,0.05,1.32,0.72,1.76,1.27
		c7.06,9.05,16.17,12.43,27.41,10.09c0.76-0.16,1.79-0.25,2.35,0.13c3.99,2.71,8.33,4.33,13.13,4.75c0.33,0.03,0.65,0.18,1.13,0.32
		c-3.34,7-6.63,13.91-9.93,20.82c-1.94,4.06-3.91,8.1-5.81,12.18c-1.31,2.81-3.13,4.89-6.48,4.88c-3.25-0.01-5.04-2-6.36-4.73
		c-3.71-7.66-7.48-15.28-11.23-22.92c-0.31-0.62-0.64-1.24-1.03-1.98c-7.83,1.78-15.62,3.56-23.42,5.32
		c-1.92,0.43-3.84,0.94-5.79,1.1c-4.79,0.39-8.06-3.94-6.53-8.52c0.2-0.6,0.48-1.17,0.75-1.74c4.24-8.88,8.48-17.76,12.73-26.64
		C115.84,181.23,116.16,180.7,116.51,180.05z"/>
</g>
</svg>
