<?xml version="1.0" encoding="utf-8"?>
<!-- Generator: Adobe Illustrator 27.9.0, SVG Export Plug-In . SVG Version: 6.00 Build 0)  -->
<svg version="1.1" xmlns="http://www.w3.org/2000/svg" xmlns:xlink="http://www.w3.org/1999/xlink" x="0px" y="0px"
	 viewBox="0 0 360 360" style="enable-background:new 0 0 360 360;" xml:space="preserve">
<style type="text/css">
	.st0{fill:#FFFFFF;}
</style>
<g id="Layer_1">
</g>
<g id="Layer_2">
	<path class="st0" d="M245.62,164.3l-4.73,1.13c15.22-16.9,23.55-38.53,23.55-61.45c0-24.56-9.56-47.65-26.93-65.01
		c-27.28-27.28-69.07-34.63-104-18.28c-1.75,0.82-2.5,2.9-1.68,4.64s2.9,2.5,4.64,1.68c32.27-15.1,70.89-8.31,96.1,16.9
		c16.05,16.05,24.88,37.38,24.88,60.08c0,20.87-7.49,40.58-21.17,56.09l0.99-4.12c0.45-1.88-0.71-3.76-2.58-4.21
		c-1.88-0.45-3.76,0.71-4.21,2.58l-3.95,16.5c-0.28,1.18,0.07,2.42,0.93,3.28c0.66,0.66,1.55,1.02,2.47,1.02
		c0.27,0,0.54-0.03,0.81-0.1l16.5-3.95c1.88-0.45,3.03-2.33,2.58-4.21C249.38,165.01,247.5,163.85,245.62,164.3z"/>
	<path class="st0" d="M213.45,187.87c-0.82-1.75-2.9-2.5-4.64-1.68c-32.27,15.1-70.89,8.31-96.1-16.9
		c-16.05-16.05-24.88-37.38-24.88-60.08c0-20.87,7.49-40.58,21.17-56.09l-0.99,4.12c-0.45,1.88,0.71,3.76,2.58,4.21
		c0.27,0.07,0.55,0.1,0.82,0.1c1.58,0,3.01-1.08,3.39-2.68l3.95-16.5c0.28-1.18-0.07-2.42-0.93-3.28c-0.86-0.86-2.1-1.21-3.28-0.93
		l-16.5,3.95c-1.88,0.45-3.03,2.33-2.58,4.21c0.45,1.88,2.33,3.03,4.21,2.58l4.73-1.13c-15.22,16.9-23.55,38.53-23.55,61.45
		c0,24.56,9.56,47.65,26.93,65.02c17.6,17.6,41.23,26.9,65.17,26.9c13.17,0,26.43-2.82,38.83-8.62
		C213.51,191.7,214.26,189.62,213.45,187.87z"/>
	<g>
		<path class="st0" d="M125.97,299.88c0-6.47,3.11-9.59,8.55-9.59c3.3,0,5.46,1.31,6.58,2.95c0.22,0.33,0.3,0.6,0.3,0.9
			c0,0.79-0.66,1.45-1.47,1.45c-0.38,0-0.76-0.16-1.12-0.55c-1.12-1.23-2.29-1.91-4.29-1.91c-3.63,0-5.27,2.24-5.27,6.75
			c0,4.78,1.64,6.72,5.27,6.72c2.02,0,3.11-0.46,4.42-1.8c0.44-0.44,0.79-0.6,1.17-0.6c0.82,0,1.47,0.65,1.47,1.47
			c0,0.33-0.11,0.6-0.27,0.82c-1.31,1.75-3.88,2.95-6.8,2.95C129.08,309.44,125.97,306.57,125.97,299.88z"/>
		<path class="st0" d="M147.61,304.28l-1.67,3.96c-0.25,0.57-0.76,1.04-1.47,1.04c-0.85,0-1.56-0.71-1.56-1.56
			c0-0.16,0.03-0.38,0.11-0.57l6.45-15.71c0.16-0.38,0.6-0.98,1.45-0.98s1.28,0.6,1.45,0.98l6.45,15.71
			c0.08,0.19,0.11,0.41,0.11,0.57c0,0.85-0.71,1.56-1.56,1.56c-0.71,0-1.23-0.46-1.47-1.04l-1.67-3.96H147.61z M150.91,295.64
			l-2.24,5.73h4.48L150.91,295.64z"/>
		<path class="st0" d="M164.25,302.01v5.68c0,0.87-0.71,1.58-1.58,1.58s-1.58-0.71-1.58-1.58v-15.43c0-0.88,0.71-1.58,1.58-1.58
			h5.22c3.69,0,5.76,2.62,5.76,5.71c0,2.6-1.58,5.11-4.21,5.44l4.04,4.92c0.25,0.33,0.33,0.66,0.33,0.96c0,0.87-0.71,1.58-1.58,1.58
			c-0.46,0-0.96-0.22-1.23-0.57l-4.97-6.69H164.25z M164.25,293.51v5.71h3.69c1.69,0,2.43-1.39,2.43-2.84
			c0-1.47-0.74-2.87-2.51-2.87H164.25z"/>
		<path class="st0" d="M177.96,309.05c-0.87,0-1.58-0.71-1.58-1.58v-15.21c0-0.88,0.71-1.58,1.58-1.58h4.92
			c4.12,0,5.6,2.24,5.6,4.75c0,1.8-0.9,3.17-2.02,3.71c2.05,0.79,2.84,2.27,2.84,4.4c0,3.33-1.99,5.52-5.93,5.52H177.96z
			 M179.55,298.18h3.33c1.72,0,2.43-0.98,2.43-2.35c0-1.42-0.71-2.32-2.43-2.32h-3.33V298.18z M179.55,306.22h3.82
			c1.94,0,2.7-1.04,2.7-2.68c0-1.67-0.9-2.68-2.7-2.68h-3.82V306.22z"/>
		<path class="st0" d="M191.19,299.88c0-6.47,3.14-9.59,8.66-9.59s8.66,3.11,8.66,9.59c0,6.39-3.14,9.56-8.66,9.56
			S191.19,306.27,191.19,299.88z M194.47,299.88c0,4.51,1.78,6.72,5.38,6.72s5.38-2.21,5.38-6.72c0-4.53-1.78-6.75-5.38-6.75
			S194.47,295.34,194.47,299.88z"/>
		<path class="st0" d="M224.95,292.01v15.71c0,0.85-0.71,1.56-1.56,1.56c-0.52,0-1.01-0.27-1.28-0.68l-8.06-11.63v10.76
			c0,0.85-0.71,1.56-1.56,1.56c-0.85,0-1.56-0.71-1.56-1.56v-15.71c0-0.85,0.71-1.56,1.56-1.56c0.55,0,0.98,0.25,1.26,0.65
			l8.08,11.72v-10.82c0-0.85,0.71-1.56,1.56-1.56S224.95,291.16,224.95,292.01z"/>
		<path class="st0" d="M83.71,332.67c0-6.47,3.11-9.59,8.55-9.59c3.3,0,5.46,1.31,6.58,2.95c0.22,0.33,0.3,0.6,0.3,0.9
			c0,0.79-0.66,1.45-1.47,1.45c-0.38,0-0.76-0.16-1.12-0.55c-1.12-1.23-2.29-1.91-4.29-1.91c-3.63,0-5.27,2.24-5.27,6.75
			c0,4.78,1.64,6.72,5.27,6.72c2.02,0,3.11-0.46,4.42-1.8c0.44-0.44,0.79-0.6,1.17-0.6c0.82,0,1.47,0.65,1.47,1.47
			c0,0.33-0.11,0.6-0.27,0.82c-1.31,1.75-3.88,2.95-6.8,2.95C86.83,342.23,83.71,339.36,83.71,332.67z"/>
		<path class="st0" d="M101.2,332.67c0-6.47,3.14-9.59,8.66-9.59s8.66,3.11,8.66,9.59c0,6.39-3.14,9.56-8.66,9.56
			S101.2,339.06,101.2,332.67z M104.48,332.67c0,4.51,1.78,6.72,5.38,6.72s5.38-2.21,5.38-6.72c0-4.53-1.78-6.75-5.38-6.75
			S104.48,328.13,104.48,332.67z"/>
		<path class="st0" d="M134.97,324.8v15.71c0,0.85-0.71,1.56-1.56,1.56c-0.52,0-1.01-0.27-1.28-0.68l-8.06-11.63v10.76
			c0,0.85-0.71,1.56-1.56,1.56c-0.85,0-1.56-0.71-1.56-1.56V324.8c0-0.85,0.71-1.56,1.56-1.56c0.55,0,0.98,0.25,1.26,0.65
			l8.08,11.72V324.8c0-0.85,0.71-1.56,1.56-1.56S134.97,323.95,134.97,324.8z"/>
		<path class="st0" d="M144.39,325.92c-2.27,0-3.11,1.07-3.11,2.16c0,3.58,9.97,1.91,9.97,8.74c0,3.33-2.35,5.41-6.86,5.41
			c-3.25,0-5.84-1.61-6.91-3.33c-0.14-0.22-0.22-0.49-0.22-0.77c0-0.82,0.66-1.47,1.45-1.47c0.6,0,0.93,0.33,1.2,0.6
			c1.15,1.15,2.59,2.07,4.48,2.07c2.49,0,3.69-0.82,3.69-2.51c0-3.99-9.97-2.16-9.97-8.74c0-2.71,1.94-5,6.28-5
			c2.73,0,5.11,1.01,6.2,2.57c0.16,0.25,0.27,0.55,0.27,0.88c0,0.79-0.66,1.45-1.48,1.45c-0.38,0-0.76-0.22-1.17-0.6
			C147.37,326.55,145.95,325.92,144.39,325.92z"/>
		<path class="st0" d="M156.94,331.19h5.16c0.76,0,1.39,0.63,1.39,1.39c0,0.77-0.63,1.39-1.39,1.39h-5.16V339h7.24
			c0.79,0,1.42,0.63,1.42,1.42c0,0.79-0.63,1.42-1.42,1.42h-8.82c-0.87,0-1.58-0.71-1.58-1.58v-15.21c0-0.88,0.71-1.58,1.58-1.58
			h8.52c0.79,0,1.42,0.63,1.42,1.42c0,0.79-0.63,1.42-1.42,1.42h-6.94V331.19z"/>
		<path class="st0" d="M171.23,334.8v5.68c0,0.87-0.71,1.58-1.58,1.58s-1.58-0.71-1.58-1.58v-15.43c0-0.88,0.71-1.58,1.58-1.58h5.22
			c3.69,0,5.76,2.62,5.76,5.71c0,2.6-1.58,5.11-4.21,5.44l4.04,4.92c0.25,0.33,0.33,0.66,0.33,0.96c0,0.87-0.71,1.58-1.58,1.58
			c-0.46,0-0.96-0.22-1.23-0.57L173,334.8H171.23z M171.23,326.3v5.71h3.69c1.69,0,2.43-1.39,2.43-2.84c0-1.47-0.74-2.87-2.51-2.87
			H171.23z"/>
		<path class="st0" d="M188.55,341.05l-6.2-15.62c-0.08-0.19-0.11-0.35-0.11-0.6c0-0.88,0.71-1.58,1.58-1.58
			c0.79,0,1.28,0.49,1.45,0.93l4.75,12.59l4.75-12.59c0.16-0.41,0.66-0.93,1.45-0.93c0.87,0,1.58,0.71,1.58,1.58
			c0,0.25-0.03,0.41-0.11,0.6l-6.2,15.62c-0.22,0.55-0.66,1.01-1.48,1.01C189.21,342.06,188.77,341.6,188.55,341.05z"/>
		<path class="st0" d="M201.5,337.06l-1.67,3.96c-0.25,0.57-0.76,1.04-1.47,1.04c-0.85,0-1.56-0.71-1.56-1.56
			c0-0.16,0.03-0.38,0.11-0.57l6.45-15.71c0.16-0.38,0.6-0.98,1.45-0.98s1.28,0.6,1.45,0.98l6.45,15.71
			c0.08,0.19,0.11,0.41,0.11,0.57c0,0.85-0.71,1.56-1.56,1.56c-0.71,0-1.23-0.46-1.47-1.04l-1.67-3.96H201.5z M204.81,328.43
			l-2.24,5.73h4.48L204.81,328.43z"/>
		<path class="st0" d="M219.92,326.25v14.23c0,0.87-0.71,1.58-1.58,1.58s-1.58-0.71-1.58-1.58v-14.23h-4.18
			c-0.76,0-1.39-0.63-1.39-1.39c0-0.77,0.63-1.39,1.39-1.39h11.53c0.76,0,1.39,0.63,1.39,1.39c0,0.76-0.63,1.39-1.39,1.39H219.92z"
			/>
		<path class="st0" d="M230.87,340.48c0,0.87-0.71,1.58-1.58,1.58s-1.58-0.71-1.58-1.58v-15.65c0-0.88,0.71-1.58,1.58-1.58
			s1.58,0.71,1.58,1.58V340.48z"/>
		<path class="st0" d="M233.44,332.67c0-6.47,3.14-9.59,8.66-9.59s8.66,3.11,8.66,9.59c0,6.39-3.14,9.56-8.66,9.56
			S233.44,339.06,233.44,332.67z M236.72,332.67c0,4.51,1.78,6.72,5.38,6.72s5.38-2.21,5.38-6.72c0-4.53-1.78-6.75-5.38-6.75
			S236.72,328.13,236.72,332.67z"/>
		<path class="st0" d="M267.21,324.8v15.71c0,0.85-0.71,1.56-1.56,1.56c-0.52,0-1.01-0.27-1.28-0.68l-8.06-11.63v10.76
			c0,0.85-0.71,1.56-1.56,1.56c-0.85,0-1.56-0.71-1.56-1.56V324.8c0-0.85,0.71-1.56,1.56-1.56c0.55,0,0.98,0.25,1.26,0.65
			l8.08,11.72V324.8c0-0.85,0.71-1.56,1.56-1.56S267.21,323.95,267.21,324.8z"/>
	</g>
	<g>
		<g>
			<path class="st0" d="M150.45,95.49c3.62,0,6.52,1.16,8.87,3.55c0.16,0.16,0.38,0.26,0.61,0.26c0.26,0.03,0.45-0.09,0.61-0.25
				l2.15-2.15c0.32-0.32,0.34-0.85,0.03-1.19c-2.91-3.19-7.3-4.95-12.36-4.95c-10.07,0-17.67,7.38-17.67,17.17
				c0,9.79,7.58,17.17,17.62,17.17c5.06,0,9.47-1.78,12.41-5c0.31-0.34,0.3-0.86-0.03-1.19l-2.15-2.15
				c-0.16-0.16-0.34-0.25-0.62-0.25c-0.23,0-0.45,0.1-0.61,0.26c-2.33,2.41-5.23,3.59-8.86,3.59c-7.24,0-12.7-5.34-12.7-12.43
				C137.75,100.83,143.21,95.49,150.45,95.49z"/>
			<path class="st0" d="M182.66,90.74c-10.1,0-17.72,7.38-17.72,17.17c0,9.79,7.62,17.17,17.72,17.17
				c10.07,0,17.67-7.38,17.67-17.17C200.33,98.12,192.73,90.74,182.66,90.74z M182.66,120.34c-7.33,0-12.65-5.23-12.65-12.43
				c0-7.2,5.32-12.42,12.65-12.42c7.28,0,12.56,5.23,12.56,12.42C195.22,115.11,189.94,120.34,182.66,120.34z"/>
		</g>
		<path class="st0" d="M216.01,136.63h-8.18l4.86-4.78c2.76-2.7,3.33-4.54,3.33-6.46c0-3.59-2.77-5.91-7.05-5.91
			c-3.07,0-5.66,1.06-7.28,2.97c-0.3,0.36-0.26,0.9,0.1,1.21l1.36,1.17c0.36,0.31,0.9,0.27,1.21-0.09c1.04-1.2,2.5-1.79,4.45-1.79
			c1.61,0,3.52,0.46,3.52,2.64c0,0.9-0.17,1.95-2.25,4.01l-7.77,7.61c-0.17,0.16-0.26,0.38-0.26,0.61v1.36
			c0,0.47,0.38,0.86,0.86,0.86h13.11c0.47,0,0.86-0.38,0.86-0.86v-1.71C216.87,137.02,216.48,136.63,216.01,136.63z"/>
	</g>
	<g>
		<path class="st0" d="M180.49,40.34c2.39,0.04,4.78-0.01,7.16,0.15c1.58,0.11,3.16,0.47,4.72,0.82c1.52,0.34,2.32,1.58,2.05,2.98
			c-0.25,1.31-1.41,2.05-2.9,1.89c-2.81-0.31-5.63-0.88-8.43-0.83c-7.39,0.12-13.69,3.07-18.94,8.33c-0.94,0.94-1.77,1.99-2.59,3.04
			c-1.54,1.96-2.4,2.17-4.48,0.83c-4.97-3.2-10.38-4.61-16.16-4.06c-6.07,0.57-11.43,2.98-15.7,7.48
			c-6.63,6.99-8.91,15.39-6.81,24.98c1.05,4.79,3.4,8.94,6.79,12.45c1.92,1.99,1.93,2.97,0.08,4.98
			c-13.65,14.82-10.11,38.76,7.28,49.08c4.42,2.63,9.21,4.03,14.3,4.13c1.64,0.03,2.66,0.7,3.47,2.14
			c2.46,4.35,6.16,6.95,10.93,7.97c6.71,1.44,14.05-2.23,16.98-8.53c0.14-0.3,0.27-0.59,0.41-0.89c0.98-2.08,2.14-2.51,4.15-1.43
			c4.25,2.29,8.74,3.67,13.52,3.97c17.7,1.13,32.79-11.89,34.73-29.96c1.57-14.58-6.57-28.95-19.74-34.86
			c-0.33-0.15-0.67-0.28-0.99-0.45c-1.84-0.91-2.23-2.26-1.31-4.14c0.94-1.93,1.97-3.85,2.66-5.88c2.4-7.1,2.12-14.21-0.86-21.12
			c-1.07-2.49-2.68-4.75-4.09-7.09c-0.84-1.39-0.9-2.53-0.03-3.49c1.07-1.19,2.66-1.04,3.82,0.41c2.41,3.03,4.28,6.38,5.53,10.06
			c3.11,9.18,2.7,18.16-1.36,26.89c-0.07,0.15-0.14,0.3-0.19,0.45c-0.03,0.07-0.03,0.16-0.06,0.32c10.34,5.4,17.3,13.79,20.33,25.32
			c2.54,9.63,1.56,19.01-2.9,27.82c-4.65,9.17-11.8,15.5-21.37,18.79c-9.53,3.28-18.94,2.52-27.85-1.57
			c-2.02,2.19-3.69,4.55-5.86,6.24c-6.75,5.22-14.14,5.88-21.86,2.08c-3.36-1.65-6.07-4.13-8.17-7.32
			c-0.28-0.42-0.94-0.74-1.45-0.79c-10.96-1.02-19.74-6.1-26.36-15.15c-2.26-3.08-3.92-6.5-5.08-10.18
			c-0.09-0.3-0.28-0.57-0.42-0.85c-0.43-2.18-0.86-4.36-1.29-6.54c-0.02-1.87-0.14-3.75-0.03-5.62c0.43-7.92,2.98-15.01,7.87-21.14
			c0.3-0.37,0.57-0.77,0.84-1.14c-0.17-0.24-0.28-0.41-0.41-0.56c-4.98-5.92-7.53-12.8-7.6-20.54c-0.12-13.56,8.22-25.3,20.07-29.54
			c1.2-0.43,2.4-0.82,3.61-1.23c0.55-0.11,1.1-0.22,1.65-0.33c0.43-0.01,0.87,0.02,1.29-0.04c4.3-0.59,8.54-0.23,12.67,1.15
			c2.19,0.73,4.3,1.74,6.49,2.64c0.13-0.14,0.3-0.31,0.46-0.49c3.5-4.14,7.75-7.21,12.7-9.27c1.03-0.43,2.07-0.82,3.11-1.22
			C176.72,41.08,178.61,40.71,180.49,40.34z"/>
	</g>
</g>
</svg>
