<?xml version="1.0" encoding="utf-8"?>
<!-- Generator: Adobe Illustrator 27.9.0, SVG Export Plug-In . SVG Version: 6.00 Build 0)  -->
<svg version="1.1" id="Layer_1" xmlns="http://www.w3.org/2000/svg" xmlns:xlink="http://www.w3.org/1999/xlink" x="0px" y="0px"
	 viewBox="0 0 360 360" style="enable-background:new 0 0 360 360;" xml:space="preserve">
<style type="text/css">
	.st0{fill:#FFFFFF;}
</style>
<g>
	<g>
		<path class="st0" d="M135.23,289.41v5.79c0,0.87-0.71,1.58-1.58,1.58c-0.87,0-1.58-0.71-1.58-1.58v-15.43
			c0-0.87,0.71-1.58,1.58-1.58h5.22c3.2,0,5.74,1.78,5.74,5.6c0,3.77-2.49,5.63-5.74,5.63H135.23z M135.23,281.03v5.54h3.39
			c1.69,0,2.71-1.01,2.71-2.79c0-1.8-1.04-2.76-2.71-2.76H135.23z"/>
		<path class="st0" d="M146.43,287.39c0-6.47,3.14-9.59,8.66-9.59c5.52,0,8.66,3.11,8.66,9.59c0,6.39-3.14,9.56-8.66,9.56
			C149.58,296.95,146.43,293.78,146.43,287.39z M149.71,287.39c0,4.51,1.78,6.72,5.38,6.72c3.6,0,5.38-2.21,5.38-6.72
			c0-4.53-1.78-6.75-5.38-6.75C151.49,280.64,149.71,282.86,149.71,287.39z"/>
		<path class="st0" d="M175.86,284.41l-3.14,11.2c-0.19,0.68-0.79,1.17-1.53,1.17c-0.71,0-1.31-0.46-1.5-1.09l-4.67-15.65
			c-0.05-0.16-0.08-0.3-0.08-0.49c0-0.87,0.71-1.58,1.58-1.58c0.87,0,1.37,0.63,1.5,1.09l3.2,11.47l3.11-11.42
			c0.19-0.71,0.85-1.15,1.53-1.15c0.68,0,1.34,0.44,1.53,1.15l3.11,11.42l3.2-11.47c0.14-0.46,0.63-1.09,1.5-1.09
			c0.88,0,1.58,0.71,1.58,1.58c0,0.19-0.03,0.33-0.08,0.49l-4.67,15.65c-0.19,0.63-0.79,1.09-1.5,1.09c-0.74,0-1.34-0.49-1.53-1.17
			L175.86,284.41z"/>
		<path class="st0" d="M192.12,285.91h5.16c0.77,0,1.39,0.63,1.39,1.39c0,0.76-0.63,1.39-1.39,1.39h-5.16v5.03h7.24
			c0.79,0,1.42,0.63,1.42,1.42s-0.63,1.42-1.42,1.42h-8.82c-0.87,0-1.58-0.71-1.58-1.58v-15.21c0-0.87,0.71-1.58,1.58-1.58h8.52
			c0.79,0,1.42,0.63,1.42,1.42s-0.63,1.42-1.42,1.42h-6.94V285.91z"/>
		<path class="st0" d="M206.41,289.52v5.68c0,0.87-0.71,1.58-1.58,1.58c-0.87,0-1.58-0.71-1.58-1.58v-15.43
			c0-0.87,0.71-1.58,1.58-1.58h5.22c3.69,0,5.76,2.62,5.76,5.71c0,2.6-1.58,5.11-4.21,5.44l4.04,4.92c0.25,0.33,0.33,0.66,0.33,0.96
			c0,0.87-0.71,1.58-1.58,1.58c-0.46,0-0.96-0.22-1.23-0.57l-4.97-6.69H206.41z M206.41,281.03v5.71h3.69
			c1.69,0,2.43-1.39,2.43-2.84c0-1.47-0.74-2.87-2.51-2.87H206.41z"/>
		<path class="st0" d="M100.12,325.69l-4.29-7.62v9.94c0,0.85-0.71,1.56-1.56,1.56c-0.85,0-1.56-0.71-1.56-1.56v-15.71
			c0-0.85,0.71-1.56,1.56-1.56c0.68,0,1.12,0.38,1.39,0.87l5.79,10.38l5.79-10.38c0.27-0.49,0.71-0.87,1.39-0.87
			c0.85,0,1.56,0.71,1.56,1.56v15.71c0,0.85-0.71,1.56-1.56,1.56c-0.85,0-1.56-0.71-1.56-1.56v-9.94l-4.29,7.62
			c-0.27,0.49-0.79,0.76-1.34,0.76S100.39,326.19,100.12,325.69z"/>
		<path class="st0" d="M117.06,324.57l-1.67,3.96c-0.25,0.57-0.77,1.04-1.47,1.04c-0.85,0-1.56-0.71-1.56-1.56
			c0-0.16,0.03-0.38,0.11-0.57l6.45-15.71c0.16-0.38,0.6-0.98,1.45-0.98c0.85,0,1.28,0.6,1.45,0.98l6.45,15.71
			c0.08,0.19,0.11,0.41,0.11,0.57c0,0.85-0.71,1.56-1.56,1.56c-0.71,0-1.23-0.46-1.47-1.04l-1.67-3.96H117.06z M120.36,315.94
			l-2.24,5.74h4.48L120.36,315.94z"/>
		<path class="st0" d="M144.41,312.31v15.71c0,0.85-0.71,1.56-1.56,1.56c-0.52,0-1.01-0.27-1.28-0.68l-8.06-11.64v10.76
			c0,0.85-0.71,1.56-1.56,1.56c-0.85,0-1.56-0.71-1.56-1.56v-15.71c0-0.85,0.71-1.56,1.56-1.56c0.55,0,0.98,0.25,1.26,0.66
			l8.08,11.72v-10.82c0-0.85,0.71-1.56,1.56-1.56S144.41,311.46,144.41,312.31z"/>
		<path class="st0" d="M151.13,324.57l-1.67,3.96c-0.25,0.57-0.77,1.04-1.47,1.04c-0.85,0-1.56-0.71-1.56-1.56
			c0-0.16,0.03-0.38,0.11-0.57l6.45-15.71c0.16-0.38,0.6-0.98,1.45-0.98c0.85,0,1.28,0.6,1.45,0.98l6.45,15.71
			c0.08,0.19,0.11,0.41,0.11,0.57c0,0.85-0.71,1.56-1.56,1.56c-0.71,0-1.23-0.46-1.47-1.04l-1.67-3.96H151.13z M154.44,315.94
			l-2.24,5.74h4.48L154.44,315.94z"/>
		<path class="st0" d="M176.13,322.28h-3.71c-0.76,0-1.39-0.63-1.39-1.39s0.63-1.39,1.39-1.39h5.3c0.77,0,1.5,0.66,1.5,1.45v4.37
			c0,0.63-0.14,1.04-0.46,1.45c-1.31,1.75-4.21,2.98-7.13,2.98c-5.44,0-8.55-2.87-8.55-9.56c0-6.47,3.12-9.59,8.55-9.59
			c3.3,0,5.46,1.31,6.58,2.95c0.22,0.33,0.3,0.6,0.3,0.9c0,0.79-0.66,1.45-1.48,1.45c-0.38,0-0.76-0.16-1.12-0.55
			c-1.12-1.23-2.29-1.91-4.29-1.91c-3.63,0-5.27,2.24-5.27,6.75c0,4.78,1.64,6.72,5.27,6.72c2.02,0,3.44-0.46,4.51-1.56V322.28z"/>
		<path class="st0" d="M185.4,318.7h5.16c0.77,0,1.39,0.63,1.39,1.39c0,0.76-0.63,1.39-1.39,1.39h-5.16v5.03h7.24
			c0.79,0,1.42,0.63,1.42,1.42s-0.63,1.42-1.42,1.42h-8.82c-0.87,0-1.58-0.71-1.58-1.58v-15.21c0-0.87,0.71-1.58,1.58-1.58h8.52
			c0.79,0,1.42,0.63,1.42,1.42c0,0.79-0.63,1.42-1.42,1.42h-6.94V318.7z"/>
		<path class="st0" d="M203.78,325.69l-4.29-7.62v9.94c0,0.85-0.71,1.56-1.56,1.56c-0.85,0-1.56-0.71-1.56-1.56v-15.71
			c0-0.85,0.71-1.56,1.56-1.56c0.68,0,1.12,0.38,1.39,0.87l5.79,10.38l5.79-10.38c0.27-0.49,0.71-0.87,1.39-0.87
			c0.85,0,1.56,0.71,1.56,1.56v15.71c0,0.85-0.71,1.56-1.56,1.56c-0.85,0-1.56-0.71-1.56-1.56v-9.94l-4.29,7.62
			c-0.27,0.49-0.79,0.76-1.34,0.76S204.06,326.19,203.78,325.69z"/>
		<path class="st0" d="M220.32,318.7h5.16c0.77,0,1.39,0.63,1.39,1.39c0,0.76-0.63,1.39-1.39,1.39h-5.16v5.03h7.24
			c0.79,0,1.42,0.63,1.42,1.42s-0.63,1.42-1.42,1.42h-8.82c-0.87,0-1.58-0.71-1.58-1.58v-15.21c0-0.87,0.71-1.58,1.58-1.58h8.52
			c0.79,0,1.42,0.63,1.42,1.42c0,0.79-0.63,1.42-1.42,1.42h-6.94V318.7z"/>
		<path class="st0" d="M245.31,312.31v15.71c0,0.85-0.71,1.56-1.56,1.56c-0.52,0-1.01-0.27-1.28-0.68l-8.06-11.64v10.76
			c0,0.85-0.71,1.56-1.56,1.56c-0.85,0-1.56-0.71-1.56-1.56v-15.71c0-0.85,0.71-1.56,1.56-1.56c0.55,0,0.98,0.25,1.26,0.66
			l8.08,11.72v-10.82c0-0.85,0.71-1.56,1.56-1.56C244.6,310.75,245.31,311.46,245.31,312.31z"/>
		<path class="st0" d="M256.14,313.76v14.23c0,0.87-0.71,1.58-1.58,1.58c-0.88,0-1.59-0.71-1.59-1.58v-14.23h-4.18
			c-0.77,0-1.39-0.63-1.39-1.39c0-0.76,0.63-1.39,1.39-1.39h11.53c0.77,0,1.39,0.63,1.39,1.39c0,0.77-0.63,1.39-1.39,1.39H256.14z"
			/>
	</g>
	<path class="st0" d="M164.26,90.18c1.45,0,2.9,0,4.36,0c0.78,0.1,1.56,0.18,2.33,0.3c6.47,0.94,12.2,3.52,17.1,7.86
		c5.94,5.26,9.57,11.83,10.8,19.69c0.15,0.92,0.25,1.85,0.38,2.77c0,1.45,0,2.9,0,4.36c-0.1,0.78-0.18,1.56-0.3,2.34
		c-1.31,8.65-5.33,15.77-12.19,21.19c-7.27,5.75-15.6,8.01-24.76,6.77c-8.67-1.17-15.78-5.28-21.22-12.13
		c-5.77-7.28-8-15.62-6.81-24.81c0.84-6.49,3.5-12.22,7.83-17.12c5.26-5.95,11.83-9.58,19.7-10.82
		C162.41,90.42,163.34,90.31,164.26,90.18z M166.43,137.74c-3.4-0.02-6.44-1.08-9.14-3.13c-6.2-4.7-7.67-13.87-3.16-20.21
		c0.87-1.22,2-2.26,3.04-3.35c0.78-0.82,1.2-1.78,1.02-2.9c-0.46-2.79-3.5-3.96-5.65-2.1c-6.5,5.63-8.99,12.75-7.42,21.18
		c0.87,4.66,3.2,8.61,6.77,11.76c5.42,4.78,11.74,6.5,18.82,5.17c4.67-0.87,8.63-3.14,11.8-6.69c4.92-5.51,6.65-11.94,5.22-19.17
		c-0.93-4.68-3.31-8.59-6.84-11.8c-1.08-0.99-2.52-1.2-3.8-0.6c-1.27,0.6-2.02,1.88-1.95,3.32c0.06,1.24,0.85,2.03,1.66,2.85
		c3.77,3.77,5.23,8.32,4.31,13.56C179.88,132.59,173.55,137.76,166.43,137.74z M162.96,107.73
		C162.96,107.73,162.96,107.73,162.96,107.73c-0.01,1.81-0.01,3.63-0.01,5.44c0,0.06,0,0.13,0.01,0.19c0.07,1.9,1.56,3.35,3.42,3.34
		c1.86-0.01,3.37-1.49,3.38-3.39c0.02-3.69,0.04-7.39-0.03-11.08c-0.01-0.7-0.32-1.47-0.71-2.06c-0.83-1.22-2.36-1.62-3.76-1.16
		c-1.34,0.44-2.28,1.68-2.3,3.14C162.94,104.01,162.96,105.87,162.96,107.73z"/>
	<path class="st0" d="M274.28,217.9l-55.97-55.97l1.29-1.9c7.26-10.64,11.1-23.08,11.1-35.97c0-35.3-28.72-64.01-64.01-64.01
		s-64.01,28.72-64.01,64.01s28.72,64.01,64.01,64.01c11.7,0,23.15-3.2,33.13-9.26l1.86-1.13l56.41,56.41
		c1.58,1.58,3.69,2.45,5.94,2.45c2.26,0,4.37-0.87,5.95-2.45l4.31-4.31C277.56,226.51,277.56,221.18,274.28,217.9z M166.69,173.75
		c-27.4,0-49.7-22.29-49.7-49.69s22.29-49.69,49.7-49.69c27.4,0,49.69,22.29,49.69,49.69S194.09,173.75,166.69,173.75z"/>
</g>
</svg>
